M48
;DRILL file {KiCad 4.0.7} date 06/19/18 09:29:24
;FORMAT={2:4/ absolute / inch / suppress leading zeros}
FMAT,2
INCH,TZ
T1C0.012
T2C0.028
T3C0.031
T4C0.035
T5C0.039
T6C0.047
%
G90
G05
M72
T1
X14850Y-37075
X16425Y-32000
X16925Y-17200
X17225Y-18500
X18650Y-24000
X18850Y-18500
X18900Y-19000
X19000Y-20550
X19000Y-29500
X19000Y-38750
X19325Y-18525
X19700Y-29025
X19700Y-30700
X19700Y-32000
X21200Y-29016
X21200Y-30700
X22100Y-34825
X22100Y-37000
X22675Y-29025
X22700Y-30700
X24575Y-36500
X24650Y-28475
X25025Y-37025
X25025Y-41950
X25700Y-33450
X26050Y-28475
X26050Y-44575
X27525Y-27000
X27525Y-32500
X27725Y-13000
X28000Y-14000
X28275Y-31000
X28500Y-37000
X28500Y-38000
X28550Y-35125
X28750Y-21000
X29000Y-30500
X29050Y-33950
X29050Y-34500
X29300Y-38475
X29550Y-11725
X30650Y-26275
X30775Y-34500
X31875Y-14650
X32075Y-30500
X33325Y-26150
X33400Y-42000
X33950Y-15525
X34575Y-29500
X34575Y-32475
X34600Y-24500
X34625Y-21700
X34925Y-25500
X34925Y-25975
X34975Y-35150
X35000Y-37050
X35000Y-38000
X35025Y-36650
X35050Y-19950
X35200Y-24000
X35225Y-28075
X35475Y-25000
X35825Y-32025
X36050Y-28075
X36125Y-44500
X36425Y-36000
X36525Y-31275
X37475Y-39575
X37475Y-45000
X38225Y-44000
X38975Y-36000
X39000Y-31150
X39000Y-34500
X39050Y-22900
X39050Y-23850
X39275Y-26500
X39275Y-33500
X39325Y-23225
X40800Y-22025
X42425Y-24500
X43700Y-21000
X43700Y-36500
X44000Y-44175
X46000Y-44500
X46025Y-21000
X47025Y-36450
X47225Y-28300
X47500Y-25975
X47775Y-20275
X47775Y-29000
X48050Y-20675
X48275Y-29650
X48325Y-22350
X48500Y-42575
T2
X25650Y-30525
X25775Y-18925
X31325Y-18925
X32421Y-43300
X32750Y-40475
X33000Y-43300
X33579Y-43300
X38150Y-30525
X38150Y-40450
X40421Y-43300
X41000Y-43300
X41579Y-43300
T3
X13816Y-28100
X14800Y-28100
X15925Y-33750
X15925Y-34734
X16000Y-13000
X16000Y-14000
X16500Y-10516
X16500Y-11500
X16500Y-43000
X16500Y-44000
X18000Y-17250
X18000Y-21250
X18016Y-40500
X19000Y-40500
X19750Y-11000
X19750Y-15000
X19750Y-16000
X19750Y-20000
X20500Y-29016
X20500Y-30000
X20500Y-31500
X20500Y-32484
X20500Y-43000
X20500Y-44000
X21000Y-11000
X21000Y-15000
X21516Y-27750
X22250Y-29750
X22250Y-31750
X22250Y-43250
X22250Y-47250
X22500Y-27750
X23000Y-12516
X23000Y-13500
X24000Y-20000
X24000Y-21000
X24000Y-22000
X24000Y-23000
X24000Y-24000
X24000Y-25000
X24000Y-26000
X24000Y-27000
X24000Y-28000
X24000Y-29000
X24000Y-30000
X24000Y-31000
X24000Y-32000
X24000Y-33000
X24000Y-34000
X24000Y-35000
X24000Y-36000
X24000Y-37000
X24000Y-38000
X24000Y-39000
X24000Y-44000
X28000Y-44000
X29500Y-13500
X29500Y-17500
X30000Y-20000
X30000Y-21000
X30000Y-22000
X30000Y-23000
X30000Y-24000
X30000Y-25000
X30000Y-26000
X30000Y-27000
X30000Y-28000
X30000Y-29000
X30000Y-30000
X30000Y-31000
X30000Y-32000
X30000Y-33000
X30000Y-34000
X30000Y-35000
X30000Y-36000
X30000Y-37000
X30000Y-38000
X30000Y-39000
X30000Y-45000
X30500Y-13500
X30500Y-17500
X30500Y-46750
X31500Y-13500
X31500Y-17500
X31500Y-31500
X31500Y-35500
X31500Y-38000
X31500Y-42000
X31500Y-46750
X32500Y-29016
X32500Y-30000
X34000Y-20000
X34000Y-21000
X34000Y-22000
X34000Y-23000
X34000Y-24000
X34000Y-25000
X34000Y-26000
X34000Y-27000
X34000Y-28000
X34000Y-29000
X34000Y-30000
X34000Y-31000
X34000Y-32000
X34000Y-33000
X34000Y-34000
X34000Y-35000
X34000Y-36000
X34000Y-37000
X34000Y-38000
X34000Y-39000
X34000Y-45000
X34000Y-46750
X35000Y-42000
X35000Y-43000
X35000Y-44000
X35000Y-45000
X35000Y-46750
X36000Y-14000
X36000Y-17000
X37000Y-14000
X37000Y-17000
X37500Y-46750
X38000Y-14000
X38000Y-17000
X38500Y-46750
X39000Y-14000
X39000Y-17000
X39000Y-42000
X39000Y-43000
X39000Y-44000
X39000Y-45000
X40000Y-14000
X40000Y-17000
X40000Y-20000
X40000Y-21000
X40000Y-22000
X40000Y-23000
X40000Y-24000
X40000Y-25000
X40000Y-26000
X40000Y-27000
X40000Y-28000
X40000Y-29000
X40000Y-30000
X40000Y-31000
X40000Y-32000
X40000Y-33000
X40000Y-34000
X40000Y-35000
X40000Y-36000
X40000Y-37000
X40000Y-38000
X40000Y-39000
X40000Y-45000
X41000Y-14000
X41000Y-17000
X41000Y-46750
X41500Y-38766
X41500Y-39750
X42000Y-14000
X42000Y-17000
X42000Y-46750
X43000Y-14000
X43000Y-17000
X43000Y-20000
X43000Y-21000
X43000Y-22000
X43000Y-23000
X43000Y-24000
X43000Y-25000
X43000Y-26000
X43000Y-27000
X43000Y-28000
X43000Y-29000
X43000Y-30000
X43000Y-31000
X43000Y-32000
X43000Y-33000
X43000Y-34000
X43000Y-35000
X43000Y-39000
X43000Y-42000
X44000Y-14000
X44000Y-17000
X44000Y-18250
X44000Y-39000
X44000Y-42000
X44000Y-45000
X44500Y-46750
X44984Y-18250
X45000Y-14000
X45000Y-17000
X45000Y-39000
X45000Y-42000
X45000Y-45000
X45500Y-46750
X46000Y-14000
X46000Y-17000
X46000Y-39000
X46000Y-42000
X46500Y-37000
X47000Y-14000
X47000Y-17000
X47000Y-39000
X47000Y-42000
X48000Y-14000
X48000Y-17000
X48000Y-39000
X48000Y-42000
X49000Y-14000
X49000Y-17000
X49000Y-20000
X49000Y-21000
X49000Y-22000
X49000Y-23000
X49000Y-24000
X49000Y-25000
X49000Y-26000
X49000Y-27000
X49000Y-28000
X49000Y-29000
X49000Y-30000
X49000Y-31000
X49000Y-32000
X49000Y-33000
X49000Y-34000
X49000Y-35000
X49000Y-39000
X49000Y-42000
X49000Y-45000
X50250Y-20000
X50250Y-20984
X50500Y-37000
T4
X13500Y-31000
X13500Y-32000
X13500Y-33000
X13500Y-34000
X13500Y-35000
X13500Y-36000
X13500Y-37000
X13500Y-38000
X13750Y-17500
X13750Y-18500
X13750Y-19500
X14750Y-17500
X14750Y-18500
X14750Y-19500
X18000Y-11000
X18000Y-12000
X18000Y-13000
X18000Y-14000
X18000Y-15000
X18000Y-16000
X25500Y-11000
X25500Y-12000
X25500Y-13000
X25500Y-14000
X25500Y-15000
X25500Y-16000
X33000Y-11000
X34000Y-11000
X35000Y-11000
X36000Y-11000
X38500Y-11000
X38500Y-12000
X39500Y-11000
X39500Y-12000
X40500Y-11000
X40500Y-12000
X41500Y-11000
X41500Y-12000
X42500Y-11000
X42500Y-12000
X43500Y-11000
X43500Y-12000
X44500Y-11000
X44500Y-12000
X45500Y-11000
X45500Y-12000
X46500Y-11000
X46500Y-12000
X47500Y-11000
X47500Y-12000
T5
X14000Y-23516
X14000Y-24500
X16500Y-41750
X20500Y-41750
X21000Y-16000
X21000Y-20000
X24000Y-42750
X28000Y-42750
X32500Y-20000
X32500Y-21000
X32500Y-22000
X32500Y-23000
X32500Y-24000
X32500Y-25000
X32500Y-26000
X32500Y-27000
X32500Y-28000
X41500Y-24000
X41500Y-25000
X41500Y-26000
X41500Y-27000
X41500Y-28000
X41500Y-29000
X41500Y-30000
X41500Y-31000
X41500Y-32000
X41500Y-36500
X41500Y-37750
X45500Y-36500
X45500Y-37750
T6
X17000Y-45250
X17000Y-47250
X20000Y-45250
X20000Y-47250
X24500Y-45250
X24500Y-47250
X27500Y-45250
X27500Y-47250
T0
M30
