G04 #@! TF.FileFunction,Legend,Bot*
%FSLAX46Y46*%
G04 Gerber Fmt 4.6, Leading zero omitted, Abs format (unit mm)*
G04 Created by KiCad (PCBNEW 4.0.7) date 06/19/18 09:28:48*
%MOMM*%
%LPD*%
G01*
G04 APERTURE LIST*
%ADD10C,0.100000*%
%ADD11C,0.150000*%
%ADD12C,0.010000*%
G04 APERTURE END LIST*
D10*
D11*
X65258000Y-88150000D02*
X62758000Y-88150000D01*
X62758000Y-88150000D02*
X62758000Y-89650000D01*
X62758000Y-89650000D02*
X65258000Y-89650000D01*
X65258000Y-89650000D02*
X65258000Y-88150000D01*
X53320000Y-86880000D02*
X50820000Y-86880000D01*
X50820000Y-86880000D02*
X50820000Y-88380000D01*
X50820000Y-88380000D02*
X53320000Y-88380000D01*
X53320000Y-88380000D02*
X53320000Y-86880000D01*
D12*
G36*
X53365371Y-96503066D02*
X53325889Y-96503467D01*
X53210200Y-96506259D01*
X53113311Y-96514550D01*
X53031919Y-96529232D01*
X52962723Y-96551193D01*
X52902420Y-96581322D01*
X52847708Y-96620510D01*
X52828167Y-96637532D01*
X52795750Y-96677363D01*
X52766520Y-96731413D01*
X52743991Y-96791323D01*
X52731679Y-96848739D01*
X52730400Y-96869956D01*
X52738417Y-96928769D01*
X52759899Y-96993013D01*
X52790999Y-97053821D01*
X52827866Y-97102330D01*
X52833854Y-97108182D01*
X52884579Y-97149321D01*
X52940125Y-97181435D01*
X53003696Y-97205365D01*
X53078494Y-97221953D01*
X53167722Y-97232041D01*
X53274582Y-97236469D01*
X53323528Y-97236845D01*
X53385762Y-97236545D01*
X53429528Y-97235292D01*
X53458931Y-97232554D01*
X53478079Y-97227801D01*
X53491077Y-97220501D01*
X53498045Y-97214267D01*
X53504626Y-97206694D01*
X53509788Y-97196924D01*
X53513703Y-97182340D01*
X53516543Y-97160326D01*
X53518480Y-97128264D01*
X53519684Y-97083536D01*
X53520328Y-97023526D01*
X53520583Y-96945617D01*
X53520622Y-96869956D01*
X53520870Y-96769041D01*
X53520817Y-96688427D01*
X53519857Y-96649822D01*
X53373867Y-96649822D01*
X53373867Y-97090089D01*
X53280734Y-97090004D01*
X53224693Y-97088396D01*
X53165999Y-97084256D01*
X53117028Y-97078464D01*
X53115538Y-97078226D01*
X53036392Y-97059090D01*
X52975002Y-97029287D01*
X52928305Y-96986878D01*
X52898635Y-96940961D01*
X52880353Y-96890026D01*
X52881771Y-96842200D01*
X52902988Y-96790933D01*
X52944489Y-96737899D01*
X53001998Y-96698600D01*
X53076750Y-96672331D01*
X53126708Y-96663035D01*
X53183416Y-96656507D01*
X53243519Y-96651782D01*
X53294639Y-96649817D01*
X53297667Y-96649808D01*
X53373867Y-96649822D01*
X53519857Y-96649822D01*
X53519260Y-96625851D01*
X53514998Y-96579055D01*
X53506830Y-96545778D01*
X53493556Y-96523759D01*
X53473974Y-96510739D01*
X53446883Y-96504457D01*
X53411082Y-96502653D01*
X53365371Y-96503066D01*
X53365371Y-96503066D01*
G37*
X53365371Y-96503066D02*
X53325889Y-96503467D01*
X53210200Y-96506259D01*
X53113311Y-96514550D01*
X53031919Y-96529232D01*
X52962723Y-96551193D01*
X52902420Y-96581322D01*
X52847708Y-96620510D01*
X52828167Y-96637532D01*
X52795750Y-96677363D01*
X52766520Y-96731413D01*
X52743991Y-96791323D01*
X52731679Y-96848739D01*
X52730400Y-96869956D01*
X52738417Y-96928769D01*
X52759899Y-96993013D01*
X52790999Y-97053821D01*
X52827866Y-97102330D01*
X52833854Y-97108182D01*
X52884579Y-97149321D01*
X52940125Y-97181435D01*
X53003696Y-97205365D01*
X53078494Y-97221953D01*
X53167722Y-97232041D01*
X53274582Y-97236469D01*
X53323528Y-97236845D01*
X53385762Y-97236545D01*
X53429528Y-97235292D01*
X53458931Y-97232554D01*
X53478079Y-97227801D01*
X53491077Y-97220501D01*
X53498045Y-97214267D01*
X53504626Y-97206694D01*
X53509788Y-97196924D01*
X53513703Y-97182340D01*
X53516543Y-97160326D01*
X53518480Y-97128264D01*
X53519684Y-97083536D01*
X53520328Y-97023526D01*
X53520583Y-96945617D01*
X53520622Y-96869956D01*
X53520870Y-96769041D01*
X53520817Y-96688427D01*
X53519857Y-96649822D01*
X53373867Y-96649822D01*
X53373867Y-97090089D01*
X53280734Y-97090004D01*
X53224693Y-97088396D01*
X53165999Y-97084256D01*
X53117028Y-97078464D01*
X53115538Y-97078226D01*
X53036392Y-97059090D01*
X52975002Y-97029287D01*
X52928305Y-96986878D01*
X52898635Y-96940961D01*
X52880353Y-96890026D01*
X52881771Y-96842200D01*
X52902988Y-96790933D01*
X52944489Y-96737899D01*
X53001998Y-96698600D01*
X53076750Y-96672331D01*
X53126708Y-96663035D01*
X53183416Y-96656507D01*
X53243519Y-96651782D01*
X53294639Y-96649817D01*
X53297667Y-96649808D01*
X53373867Y-96649822D01*
X53519857Y-96649822D01*
X53519260Y-96625851D01*
X53514998Y-96579055D01*
X53506830Y-96545778D01*
X53493556Y-96523759D01*
X53473974Y-96510739D01*
X53446883Y-96504457D01*
X53411082Y-96502653D01*
X53365371Y-96503066D01*
G36*
X51956794Y-96503146D02*
X51887386Y-96503518D01*
X51834997Y-96504385D01*
X51796847Y-96505946D01*
X51770159Y-96508403D01*
X51752153Y-96511957D01*
X51740049Y-96516810D01*
X51731069Y-96523161D01*
X51727818Y-96526084D01*
X51708043Y-96557142D01*
X51704482Y-96592828D01*
X51717491Y-96624510D01*
X51723506Y-96630913D01*
X51733235Y-96637121D01*
X51748901Y-96641910D01*
X51773408Y-96645514D01*
X51809661Y-96648164D01*
X51860565Y-96650095D01*
X51929026Y-96651539D01*
X51991617Y-96652418D01*
X52239334Y-96655467D01*
X52242719Y-96720378D01*
X52246105Y-96785289D01*
X52077958Y-96785289D01*
X52004959Y-96785919D01*
X51951517Y-96788553D01*
X51914628Y-96794309D01*
X51891288Y-96804304D01*
X51878494Y-96819656D01*
X51873242Y-96841482D01*
X51872445Y-96861738D01*
X51874923Y-96886592D01*
X51884277Y-96904906D01*
X51903383Y-96917637D01*
X51935118Y-96925741D01*
X51982359Y-96930176D01*
X52047983Y-96931899D01*
X52083801Y-96932045D01*
X52244978Y-96932045D01*
X52244978Y-97090089D01*
X51996622Y-97090089D01*
X51915213Y-97090202D01*
X51853342Y-97090712D01*
X51807968Y-97091870D01*
X51776054Y-97093930D01*
X51754559Y-97097146D01*
X51740443Y-97101772D01*
X51730668Y-97108059D01*
X51725689Y-97112667D01*
X51708610Y-97139560D01*
X51703111Y-97163467D01*
X51710963Y-97192667D01*
X51725689Y-97214267D01*
X51733546Y-97221066D01*
X51743688Y-97226346D01*
X51758844Y-97230298D01*
X51781741Y-97233113D01*
X51815109Y-97234982D01*
X51861675Y-97236098D01*
X51924167Y-97236651D01*
X52005314Y-97236833D01*
X52047422Y-97236845D01*
X52137598Y-97236765D01*
X52207924Y-97236398D01*
X52261129Y-97235552D01*
X52299940Y-97234036D01*
X52327087Y-97231659D01*
X52345298Y-97228229D01*
X52357300Y-97223554D01*
X52365822Y-97217444D01*
X52369156Y-97214267D01*
X52375755Y-97206670D01*
X52380927Y-97196870D01*
X52384846Y-97182239D01*
X52387684Y-97160152D01*
X52389615Y-97127982D01*
X52390812Y-97083103D01*
X52391448Y-97022889D01*
X52391697Y-96944713D01*
X52391734Y-96871923D01*
X52391700Y-96778707D01*
X52391465Y-96705431D01*
X52390830Y-96649458D01*
X52389594Y-96608151D01*
X52387556Y-96578872D01*
X52384517Y-96558984D01*
X52380277Y-96545850D01*
X52374635Y-96536832D01*
X52367391Y-96529293D01*
X52365606Y-96527612D01*
X52356945Y-96520172D01*
X52346882Y-96514409D01*
X52332625Y-96510112D01*
X52311383Y-96507064D01*
X52280364Y-96505051D01*
X52236777Y-96503860D01*
X52177831Y-96503275D01*
X52100734Y-96503083D01*
X52046001Y-96503067D01*
X51956794Y-96503146D01*
X51956794Y-96503146D01*
G37*
X51956794Y-96503146D02*
X51887386Y-96503518D01*
X51834997Y-96504385D01*
X51796847Y-96505946D01*
X51770159Y-96508403D01*
X51752153Y-96511957D01*
X51740049Y-96516810D01*
X51731069Y-96523161D01*
X51727818Y-96526084D01*
X51708043Y-96557142D01*
X51704482Y-96592828D01*
X51717491Y-96624510D01*
X51723506Y-96630913D01*
X51733235Y-96637121D01*
X51748901Y-96641910D01*
X51773408Y-96645514D01*
X51809661Y-96648164D01*
X51860565Y-96650095D01*
X51929026Y-96651539D01*
X51991617Y-96652418D01*
X52239334Y-96655467D01*
X52242719Y-96720378D01*
X52246105Y-96785289D01*
X52077958Y-96785289D01*
X52004959Y-96785919D01*
X51951517Y-96788553D01*
X51914628Y-96794309D01*
X51891288Y-96804304D01*
X51878494Y-96819656D01*
X51873242Y-96841482D01*
X51872445Y-96861738D01*
X51874923Y-96886592D01*
X51884277Y-96904906D01*
X51903383Y-96917637D01*
X51935118Y-96925741D01*
X51982359Y-96930176D01*
X52047983Y-96931899D01*
X52083801Y-96932045D01*
X52244978Y-96932045D01*
X52244978Y-97090089D01*
X51996622Y-97090089D01*
X51915213Y-97090202D01*
X51853342Y-97090712D01*
X51807968Y-97091870D01*
X51776054Y-97093930D01*
X51754559Y-97097146D01*
X51740443Y-97101772D01*
X51730668Y-97108059D01*
X51725689Y-97112667D01*
X51708610Y-97139560D01*
X51703111Y-97163467D01*
X51710963Y-97192667D01*
X51725689Y-97214267D01*
X51733546Y-97221066D01*
X51743688Y-97226346D01*
X51758844Y-97230298D01*
X51781741Y-97233113D01*
X51815109Y-97234982D01*
X51861675Y-97236098D01*
X51924167Y-97236651D01*
X52005314Y-97236833D01*
X52047422Y-97236845D01*
X52137598Y-97236765D01*
X52207924Y-97236398D01*
X52261129Y-97235552D01*
X52299940Y-97234036D01*
X52327087Y-97231659D01*
X52345298Y-97228229D01*
X52357300Y-97223554D01*
X52365822Y-97217444D01*
X52369156Y-97214267D01*
X52375755Y-97206670D01*
X52380927Y-97196870D01*
X52384846Y-97182239D01*
X52387684Y-97160152D01*
X52389615Y-97127982D01*
X52390812Y-97083103D01*
X52391448Y-97022889D01*
X52391697Y-96944713D01*
X52391734Y-96871923D01*
X52391700Y-96778707D01*
X52391465Y-96705431D01*
X52390830Y-96649458D01*
X52389594Y-96608151D01*
X52387556Y-96578872D01*
X52384517Y-96558984D01*
X52380277Y-96545850D01*
X52374635Y-96536832D01*
X52367391Y-96529293D01*
X52365606Y-96527612D01*
X52356945Y-96520172D01*
X52346882Y-96514409D01*
X52332625Y-96510112D01*
X52311383Y-96507064D01*
X52280364Y-96505051D01*
X52236777Y-96503860D01*
X52177831Y-96503275D01*
X52100734Y-96503083D01*
X52046001Y-96503067D01*
X51956794Y-96503146D01*
G36*
X50935703Y-96504351D02*
X50860888Y-96509581D01*
X50791306Y-96517750D01*
X50731002Y-96528550D01*
X50684020Y-96541673D01*
X50654406Y-96556813D01*
X50649860Y-96561269D01*
X50634054Y-96595850D01*
X50638847Y-96631351D01*
X50663364Y-96661725D01*
X50664534Y-96662596D01*
X50678954Y-96671954D01*
X50694008Y-96676876D01*
X50715005Y-96677473D01*
X50747257Y-96673861D01*
X50796073Y-96666154D01*
X50800000Y-96665505D01*
X50872739Y-96656569D01*
X50951217Y-96652161D01*
X51029927Y-96652119D01*
X51103361Y-96656279D01*
X51166011Y-96664479D01*
X51212370Y-96676557D01*
X51215416Y-96677771D01*
X51249048Y-96696615D01*
X51260864Y-96715685D01*
X51251614Y-96734439D01*
X51222047Y-96752337D01*
X51172911Y-96768837D01*
X51104957Y-96783396D01*
X51059645Y-96790406D01*
X50965456Y-96803889D01*
X50890544Y-96816214D01*
X50831717Y-96828449D01*
X50785785Y-96841661D01*
X50749555Y-96856917D01*
X50719838Y-96875285D01*
X50693442Y-96897831D01*
X50672230Y-96919971D01*
X50647065Y-96950819D01*
X50634681Y-96977345D01*
X50630808Y-97010026D01*
X50630667Y-97021995D01*
X50633576Y-97061712D01*
X50645202Y-97091259D01*
X50665323Y-97117486D01*
X50706216Y-97157576D01*
X50751817Y-97188149D01*
X50805513Y-97210203D01*
X50870692Y-97224735D01*
X50950744Y-97232741D01*
X51049057Y-97235218D01*
X51065289Y-97235177D01*
X51130849Y-97233818D01*
X51195866Y-97230730D01*
X51253252Y-97226356D01*
X51295922Y-97221140D01*
X51299372Y-97220541D01*
X51341796Y-97210491D01*
X51377780Y-97197796D01*
X51398150Y-97186190D01*
X51417107Y-97155572D01*
X51418427Y-97119918D01*
X51402085Y-97088144D01*
X51398429Y-97084551D01*
X51383315Y-97073876D01*
X51364415Y-97069276D01*
X51335162Y-97070059D01*
X51299651Y-97074127D01*
X51259970Y-97077762D01*
X51204345Y-97080828D01*
X51139406Y-97083053D01*
X51071785Y-97084164D01*
X51054000Y-97084237D01*
X50986128Y-97083964D01*
X50936454Y-97082646D01*
X50900610Y-97079827D01*
X50874224Y-97075050D01*
X50852926Y-97067857D01*
X50840126Y-97061867D01*
X50812000Y-97045233D01*
X50794068Y-97030168D01*
X50791447Y-97025897D01*
X50796976Y-97008263D01*
X50823260Y-96991192D01*
X50868478Y-96975458D01*
X50930808Y-96961838D01*
X50949171Y-96958804D01*
X51045090Y-96943738D01*
X51121641Y-96931146D01*
X51181780Y-96920111D01*
X51228460Y-96909720D01*
X51264637Y-96899056D01*
X51293265Y-96887205D01*
X51317298Y-96873251D01*
X51339692Y-96856281D01*
X51363402Y-96835378D01*
X51371380Y-96828049D01*
X51399353Y-96800699D01*
X51414160Y-96779029D01*
X51419952Y-96754232D01*
X51420889Y-96722983D01*
X51410575Y-96661705D01*
X51379752Y-96609640D01*
X51328595Y-96566958D01*
X51257283Y-96533825D01*
X51206400Y-96518964D01*
X51151100Y-96509366D01*
X51084853Y-96503936D01*
X51011706Y-96502367D01*
X50935703Y-96504351D01*
X50935703Y-96504351D01*
G37*
X50935703Y-96504351D02*
X50860888Y-96509581D01*
X50791306Y-96517750D01*
X50731002Y-96528550D01*
X50684020Y-96541673D01*
X50654406Y-96556813D01*
X50649860Y-96561269D01*
X50634054Y-96595850D01*
X50638847Y-96631351D01*
X50663364Y-96661725D01*
X50664534Y-96662596D01*
X50678954Y-96671954D01*
X50694008Y-96676876D01*
X50715005Y-96677473D01*
X50747257Y-96673861D01*
X50796073Y-96666154D01*
X50800000Y-96665505D01*
X50872739Y-96656569D01*
X50951217Y-96652161D01*
X51029927Y-96652119D01*
X51103361Y-96656279D01*
X51166011Y-96664479D01*
X51212370Y-96676557D01*
X51215416Y-96677771D01*
X51249048Y-96696615D01*
X51260864Y-96715685D01*
X51251614Y-96734439D01*
X51222047Y-96752337D01*
X51172911Y-96768837D01*
X51104957Y-96783396D01*
X51059645Y-96790406D01*
X50965456Y-96803889D01*
X50890544Y-96816214D01*
X50831717Y-96828449D01*
X50785785Y-96841661D01*
X50749555Y-96856917D01*
X50719838Y-96875285D01*
X50693442Y-96897831D01*
X50672230Y-96919971D01*
X50647065Y-96950819D01*
X50634681Y-96977345D01*
X50630808Y-97010026D01*
X50630667Y-97021995D01*
X50633576Y-97061712D01*
X50645202Y-97091259D01*
X50665323Y-97117486D01*
X50706216Y-97157576D01*
X50751817Y-97188149D01*
X50805513Y-97210203D01*
X50870692Y-97224735D01*
X50950744Y-97232741D01*
X51049057Y-97235218D01*
X51065289Y-97235177D01*
X51130849Y-97233818D01*
X51195866Y-97230730D01*
X51253252Y-97226356D01*
X51295922Y-97221140D01*
X51299372Y-97220541D01*
X51341796Y-97210491D01*
X51377780Y-97197796D01*
X51398150Y-97186190D01*
X51417107Y-97155572D01*
X51418427Y-97119918D01*
X51402085Y-97088144D01*
X51398429Y-97084551D01*
X51383315Y-97073876D01*
X51364415Y-97069276D01*
X51335162Y-97070059D01*
X51299651Y-97074127D01*
X51259970Y-97077762D01*
X51204345Y-97080828D01*
X51139406Y-97083053D01*
X51071785Y-97084164D01*
X51054000Y-97084237D01*
X50986128Y-97083964D01*
X50936454Y-97082646D01*
X50900610Y-97079827D01*
X50874224Y-97075050D01*
X50852926Y-97067857D01*
X50840126Y-97061867D01*
X50812000Y-97045233D01*
X50794068Y-97030168D01*
X50791447Y-97025897D01*
X50796976Y-97008263D01*
X50823260Y-96991192D01*
X50868478Y-96975458D01*
X50930808Y-96961838D01*
X50949171Y-96958804D01*
X51045090Y-96943738D01*
X51121641Y-96931146D01*
X51181780Y-96920111D01*
X51228460Y-96909720D01*
X51264637Y-96899056D01*
X51293265Y-96887205D01*
X51317298Y-96873251D01*
X51339692Y-96856281D01*
X51363402Y-96835378D01*
X51371380Y-96828049D01*
X51399353Y-96800699D01*
X51414160Y-96779029D01*
X51419952Y-96754232D01*
X51420889Y-96722983D01*
X51410575Y-96661705D01*
X51379752Y-96609640D01*
X51328595Y-96566958D01*
X51257283Y-96533825D01*
X51206400Y-96518964D01*
X51151100Y-96509366D01*
X51084853Y-96503936D01*
X51011706Y-96502367D01*
X50935703Y-96504351D01*
G36*
X50167822Y-96525645D02*
X50161242Y-96533218D01*
X50156079Y-96542987D01*
X50152164Y-96557571D01*
X50149324Y-96579585D01*
X50147387Y-96611648D01*
X50146183Y-96656375D01*
X50145539Y-96716385D01*
X50145284Y-96794294D01*
X50145245Y-96869956D01*
X50145314Y-96963802D01*
X50145638Y-97037689D01*
X50146386Y-97094232D01*
X50147732Y-97136049D01*
X50149846Y-97165757D01*
X50152900Y-97185973D01*
X50157066Y-97199314D01*
X50162516Y-97208398D01*
X50167822Y-97214267D01*
X50200826Y-97233947D01*
X50235991Y-97232181D01*
X50267455Y-97210717D01*
X50274684Y-97202337D01*
X50280334Y-97192614D01*
X50284599Y-97178861D01*
X50287673Y-97158389D01*
X50289752Y-97128512D01*
X50291030Y-97086541D01*
X50291701Y-97029789D01*
X50291959Y-96955567D01*
X50292000Y-96871537D01*
X50292000Y-96558485D01*
X50264291Y-96530776D01*
X50230137Y-96507463D01*
X50197006Y-96506623D01*
X50167822Y-96525645D01*
X50167822Y-96525645D01*
G37*
X50167822Y-96525645D02*
X50161242Y-96533218D01*
X50156079Y-96542987D01*
X50152164Y-96557571D01*
X50149324Y-96579585D01*
X50147387Y-96611648D01*
X50146183Y-96656375D01*
X50145539Y-96716385D01*
X50145284Y-96794294D01*
X50145245Y-96869956D01*
X50145314Y-96963802D01*
X50145638Y-97037689D01*
X50146386Y-97094232D01*
X50147732Y-97136049D01*
X50149846Y-97165757D01*
X50152900Y-97185973D01*
X50157066Y-97199314D01*
X50162516Y-97208398D01*
X50167822Y-97214267D01*
X50200826Y-97233947D01*
X50235991Y-97232181D01*
X50267455Y-97210717D01*
X50274684Y-97202337D01*
X50280334Y-97192614D01*
X50284599Y-97178861D01*
X50287673Y-97158389D01*
X50289752Y-97128512D01*
X50291030Y-97086541D01*
X50291701Y-97029789D01*
X50291959Y-96955567D01*
X50292000Y-96871537D01*
X50292000Y-96558485D01*
X50264291Y-96530776D01*
X50230137Y-96507463D01*
X50197006Y-96506623D01*
X50167822Y-96525645D01*
G36*
X49194081Y-96508599D02*
X49125565Y-96520095D01*
X49072943Y-96537967D01*
X49038708Y-96561499D01*
X49029379Y-96574924D01*
X49019893Y-96606148D01*
X49026277Y-96634395D01*
X49046430Y-96661182D01*
X49077745Y-96673713D01*
X49123183Y-96672696D01*
X49158326Y-96665906D01*
X49236419Y-96652971D01*
X49316226Y-96651742D01*
X49405555Y-96662241D01*
X49430229Y-96666690D01*
X49513291Y-96690108D01*
X49578273Y-96724945D01*
X49624461Y-96770604D01*
X49651145Y-96826494D01*
X49656663Y-96855388D01*
X49653051Y-96914012D01*
X49629729Y-96965879D01*
X49588824Y-97009978D01*
X49532459Y-97045299D01*
X49462760Y-97070829D01*
X49381852Y-97085559D01*
X49291860Y-97088478D01*
X49194910Y-97078575D01*
X49189436Y-97077641D01*
X49150875Y-97070459D01*
X49129494Y-97063521D01*
X49120227Y-97053227D01*
X49118006Y-97035976D01*
X49117956Y-97026841D01*
X49117956Y-96988489D01*
X49186431Y-96988489D01*
X49246900Y-96984347D01*
X49288165Y-96971147D01*
X49312175Y-96947730D01*
X49320877Y-96912936D01*
X49320983Y-96908394D01*
X49315892Y-96878654D01*
X49298433Y-96857419D01*
X49265939Y-96843366D01*
X49215743Y-96835173D01*
X49167123Y-96832161D01*
X49096456Y-96830433D01*
X49045198Y-96833070D01*
X49010239Y-96842800D01*
X48988470Y-96862353D01*
X48976780Y-96894456D01*
X48972060Y-96941838D01*
X48971200Y-97004071D01*
X48972609Y-97073535D01*
X48976848Y-97120786D01*
X48983936Y-97146012D01*
X48985311Y-97147988D01*
X49024228Y-97179508D01*
X49081286Y-97204470D01*
X49152869Y-97222340D01*
X49235358Y-97232586D01*
X49325139Y-97234673D01*
X49418592Y-97228068D01*
X49473556Y-97219956D01*
X49559766Y-97195554D01*
X49639892Y-97155662D01*
X49706977Y-97103887D01*
X49717173Y-97093539D01*
X49750302Y-97050035D01*
X49780194Y-96996118D01*
X49803357Y-96939592D01*
X49816298Y-96888259D01*
X49817858Y-96868544D01*
X49811218Y-96827419D01*
X49793568Y-96776252D01*
X49768297Y-96722394D01*
X49738789Y-96673195D01*
X49712719Y-96640334D01*
X49651765Y-96591452D01*
X49572969Y-96552545D01*
X49479157Y-96524494D01*
X49373150Y-96508179D01*
X49276000Y-96504192D01*
X49194081Y-96508599D01*
X49194081Y-96508599D01*
G37*
X49194081Y-96508599D02*
X49125565Y-96520095D01*
X49072943Y-96537967D01*
X49038708Y-96561499D01*
X49029379Y-96574924D01*
X49019893Y-96606148D01*
X49026277Y-96634395D01*
X49046430Y-96661182D01*
X49077745Y-96673713D01*
X49123183Y-96672696D01*
X49158326Y-96665906D01*
X49236419Y-96652971D01*
X49316226Y-96651742D01*
X49405555Y-96662241D01*
X49430229Y-96666690D01*
X49513291Y-96690108D01*
X49578273Y-96724945D01*
X49624461Y-96770604D01*
X49651145Y-96826494D01*
X49656663Y-96855388D01*
X49653051Y-96914012D01*
X49629729Y-96965879D01*
X49588824Y-97009978D01*
X49532459Y-97045299D01*
X49462760Y-97070829D01*
X49381852Y-97085559D01*
X49291860Y-97088478D01*
X49194910Y-97078575D01*
X49189436Y-97077641D01*
X49150875Y-97070459D01*
X49129494Y-97063521D01*
X49120227Y-97053227D01*
X49118006Y-97035976D01*
X49117956Y-97026841D01*
X49117956Y-96988489D01*
X49186431Y-96988489D01*
X49246900Y-96984347D01*
X49288165Y-96971147D01*
X49312175Y-96947730D01*
X49320877Y-96912936D01*
X49320983Y-96908394D01*
X49315892Y-96878654D01*
X49298433Y-96857419D01*
X49265939Y-96843366D01*
X49215743Y-96835173D01*
X49167123Y-96832161D01*
X49096456Y-96830433D01*
X49045198Y-96833070D01*
X49010239Y-96842800D01*
X48988470Y-96862353D01*
X48976780Y-96894456D01*
X48972060Y-96941838D01*
X48971200Y-97004071D01*
X48972609Y-97073535D01*
X48976848Y-97120786D01*
X48983936Y-97146012D01*
X48985311Y-97147988D01*
X49024228Y-97179508D01*
X49081286Y-97204470D01*
X49152869Y-97222340D01*
X49235358Y-97232586D01*
X49325139Y-97234673D01*
X49418592Y-97228068D01*
X49473556Y-97219956D01*
X49559766Y-97195554D01*
X49639892Y-97155662D01*
X49706977Y-97103887D01*
X49717173Y-97093539D01*
X49750302Y-97050035D01*
X49780194Y-96996118D01*
X49803357Y-96939592D01*
X49816298Y-96888259D01*
X49817858Y-96868544D01*
X49811218Y-96827419D01*
X49793568Y-96776252D01*
X49768297Y-96722394D01*
X49738789Y-96673195D01*
X49712719Y-96640334D01*
X49651765Y-96591452D01*
X49572969Y-96552545D01*
X49479157Y-96524494D01*
X49373150Y-96508179D01*
X49276000Y-96504192D01*
X49194081Y-96508599D01*
G36*
X48544114Y-96507448D02*
X48520548Y-96521273D01*
X48489735Y-96543881D01*
X48450078Y-96576338D01*
X48399980Y-96619708D01*
X48337843Y-96675058D01*
X48262072Y-96743451D01*
X48175334Y-96822084D01*
X47994711Y-96985878D01*
X47989067Y-96766029D01*
X47987029Y-96690351D01*
X47985063Y-96633994D01*
X47982734Y-96593706D01*
X47979606Y-96566235D01*
X47975245Y-96548329D01*
X47969216Y-96536737D01*
X47961084Y-96528208D01*
X47956772Y-96524623D01*
X47922241Y-96505670D01*
X47889383Y-96508441D01*
X47863318Y-96524633D01*
X47836667Y-96546199D01*
X47833352Y-96861151D01*
X47832435Y-96953779D01*
X47831968Y-97026544D01*
X47832113Y-97082161D01*
X47833032Y-97123342D01*
X47834887Y-97152803D01*
X47837839Y-97173255D01*
X47842050Y-97187413D01*
X47847682Y-97197991D01*
X47853927Y-97206474D01*
X47867439Y-97222207D01*
X47880883Y-97232636D01*
X47896124Y-97236639D01*
X47915026Y-97233094D01*
X47939455Y-97220879D01*
X47971273Y-97198871D01*
X48012348Y-97165949D01*
X48064542Y-97120991D01*
X48129722Y-97062875D01*
X48203556Y-96996099D01*
X48468845Y-96755458D01*
X48474489Y-96974589D01*
X48476531Y-97050128D01*
X48478502Y-97106354D01*
X48480839Y-97146524D01*
X48483981Y-97173896D01*
X48488364Y-97191728D01*
X48494424Y-97203279D01*
X48502600Y-97211807D01*
X48506784Y-97215282D01*
X48543765Y-97234372D01*
X48578708Y-97231493D01*
X48609136Y-97207100D01*
X48616097Y-97197286D01*
X48621523Y-97185826D01*
X48625603Y-97169968D01*
X48628529Y-97146963D01*
X48630492Y-97114062D01*
X48631683Y-97068516D01*
X48632292Y-97007573D01*
X48632511Y-96928486D01*
X48632534Y-96869956D01*
X48632460Y-96778407D01*
X48632113Y-96706687D01*
X48631301Y-96652045D01*
X48629833Y-96611732D01*
X48627519Y-96582998D01*
X48624167Y-96563093D01*
X48619588Y-96549268D01*
X48613589Y-96538772D01*
X48609136Y-96532811D01*
X48597850Y-96518691D01*
X48587301Y-96508029D01*
X48575893Y-96501892D01*
X48562030Y-96501343D01*
X48544114Y-96507448D01*
X48544114Y-96507448D01*
G37*
X48544114Y-96507448D02*
X48520548Y-96521273D01*
X48489735Y-96543881D01*
X48450078Y-96576338D01*
X48399980Y-96619708D01*
X48337843Y-96675058D01*
X48262072Y-96743451D01*
X48175334Y-96822084D01*
X47994711Y-96985878D01*
X47989067Y-96766029D01*
X47987029Y-96690351D01*
X47985063Y-96633994D01*
X47982734Y-96593706D01*
X47979606Y-96566235D01*
X47975245Y-96548329D01*
X47969216Y-96536737D01*
X47961084Y-96528208D01*
X47956772Y-96524623D01*
X47922241Y-96505670D01*
X47889383Y-96508441D01*
X47863318Y-96524633D01*
X47836667Y-96546199D01*
X47833352Y-96861151D01*
X47832435Y-96953779D01*
X47831968Y-97026544D01*
X47832113Y-97082161D01*
X47833032Y-97123342D01*
X47834887Y-97152803D01*
X47837839Y-97173255D01*
X47842050Y-97187413D01*
X47847682Y-97197991D01*
X47853927Y-97206474D01*
X47867439Y-97222207D01*
X47880883Y-97232636D01*
X47896124Y-97236639D01*
X47915026Y-97233094D01*
X47939455Y-97220879D01*
X47971273Y-97198871D01*
X48012348Y-97165949D01*
X48064542Y-97120991D01*
X48129722Y-97062875D01*
X48203556Y-96996099D01*
X48468845Y-96755458D01*
X48474489Y-96974589D01*
X48476531Y-97050128D01*
X48478502Y-97106354D01*
X48480839Y-97146524D01*
X48483981Y-97173896D01*
X48488364Y-97191728D01*
X48494424Y-97203279D01*
X48502600Y-97211807D01*
X48506784Y-97215282D01*
X48543765Y-97234372D01*
X48578708Y-97231493D01*
X48609136Y-97207100D01*
X48616097Y-97197286D01*
X48621523Y-97185826D01*
X48625603Y-97169968D01*
X48628529Y-97146963D01*
X48630492Y-97114062D01*
X48631683Y-97068516D01*
X48632292Y-97007573D01*
X48632511Y-96928486D01*
X48632534Y-96869956D01*
X48632460Y-96778407D01*
X48632113Y-96706687D01*
X48631301Y-96652045D01*
X48629833Y-96611732D01*
X48627519Y-96582998D01*
X48624167Y-96563093D01*
X48619588Y-96549268D01*
X48613589Y-96538772D01*
X48609136Y-96532811D01*
X48597850Y-96518691D01*
X48587301Y-96508029D01*
X48575893Y-96501892D01*
X48562030Y-96501343D01*
X48544114Y-96507448D01*
G36*
X47013657Y-96503260D02*
X46937299Y-96504174D01*
X46878783Y-96506311D01*
X46835745Y-96510175D01*
X46805817Y-96516267D01*
X46786632Y-96525090D01*
X46775824Y-96537146D01*
X46771027Y-96552939D01*
X46769873Y-96572970D01*
X46769867Y-96575335D01*
X46770869Y-96597992D01*
X46775604Y-96615503D01*
X46786667Y-96628574D01*
X46806652Y-96637913D01*
X46838154Y-96644227D01*
X46883768Y-96648222D01*
X46946087Y-96650606D01*
X47027707Y-96652086D01*
X47052723Y-96652414D01*
X47294800Y-96655467D01*
X47298186Y-96720378D01*
X47301571Y-96785289D01*
X47133424Y-96785289D01*
X47067734Y-96785531D01*
X47020828Y-96786556D01*
X46988917Y-96788811D01*
X46968209Y-96792742D01*
X46954916Y-96798798D01*
X46945245Y-96807424D01*
X46945183Y-96807493D01*
X46927644Y-96841112D01*
X46928278Y-96877448D01*
X46946686Y-96908423D01*
X46950329Y-96911607D01*
X46963259Y-96919812D01*
X46980976Y-96925521D01*
X47007430Y-96929162D01*
X47046568Y-96931167D01*
X47102338Y-96931964D01*
X47138006Y-96932045D01*
X47300445Y-96932045D01*
X47300445Y-97090089D01*
X47053839Y-97090089D01*
X46972420Y-97090231D01*
X46910590Y-97090814D01*
X46865363Y-97092068D01*
X46833752Y-97094227D01*
X46812769Y-97097523D01*
X46799427Y-97102189D01*
X46790739Y-97108457D01*
X46788550Y-97110733D01*
X46772386Y-97142280D01*
X46771203Y-97178168D01*
X46784464Y-97209285D01*
X46794957Y-97219271D01*
X46805871Y-97224769D01*
X46822783Y-97229022D01*
X46848367Y-97232180D01*
X46885299Y-97234392D01*
X46936254Y-97235806D01*
X47003906Y-97236572D01*
X47090931Y-97236838D01*
X47110606Y-97236845D01*
X47199089Y-97236787D01*
X47267773Y-97236467D01*
X47319436Y-97235667D01*
X47356855Y-97234167D01*
X47382810Y-97231749D01*
X47400078Y-97228194D01*
X47411438Y-97223282D01*
X47419668Y-97216795D01*
X47424183Y-97212138D01*
X47430979Y-97203889D01*
X47436288Y-97193669D01*
X47440294Y-97178800D01*
X47443179Y-97156602D01*
X47445126Y-97124393D01*
X47446319Y-97079496D01*
X47446939Y-97019228D01*
X47447171Y-96940911D01*
X47447200Y-96874994D01*
X47447129Y-96782628D01*
X47446792Y-96710117D01*
X47446002Y-96654737D01*
X47444574Y-96613765D01*
X47442321Y-96584478D01*
X47439057Y-96564153D01*
X47434596Y-96550066D01*
X47428752Y-96539495D01*
X47423803Y-96532811D01*
X47400406Y-96503067D01*
X47110226Y-96503067D01*
X47013657Y-96503260D01*
X47013657Y-96503260D01*
G37*
X47013657Y-96503260D02*
X46937299Y-96504174D01*
X46878783Y-96506311D01*
X46835745Y-96510175D01*
X46805817Y-96516267D01*
X46786632Y-96525090D01*
X46775824Y-96537146D01*
X46771027Y-96552939D01*
X46769873Y-96572970D01*
X46769867Y-96575335D01*
X46770869Y-96597992D01*
X46775604Y-96615503D01*
X46786667Y-96628574D01*
X46806652Y-96637913D01*
X46838154Y-96644227D01*
X46883768Y-96648222D01*
X46946087Y-96650606D01*
X47027707Y-96652086D01*
X47052723Y-96652414D01*
X47294800Y-96655467D01*
X47298186Y-96720378D01*
X47301571Y-96785289D01*
X47133424Y-96785289D01*
X47067734Y-96785531D01*
X47020828Y-96786556D01*
X46988917Y-96788811D01*
X46968209Y-96792742D01*
X46954916Y-96798798D01*
X46945245Y-96807424D01*
X46945183Y-96807493D01*
X46927644Y-96841112D01*
X46928278Y-96877448D01*
X46946686Y-96908423D01*
X46950329Y-96911607D01*
X46963259Y-96919812D01*
X46980976Y-96925521D01*
X47007430Y-96929162D01*
X47046568Y-96931167D01*
X47102338Y-96931964D01*
X47138006Y-96932045D01*
X47300445Y-96932045D01*
X47300445Y-97090089D01*
X47053839Y-97090089D01*
X46972420Y-97090231D01*
X46910590Y-97090814D01*
X46865363Y-97092068D01*
X46833752Y-97094227D01*
X46812769Y-97097523D01*
X46799427Y-97102189D01*
X46790739Y-97108457D01*
X46788550Y-97110733D01*
X46772386Y-97142280D01*
X46771203Y-97178168D01*
X46784464Y-97209285D01*
X46794957Y-97219271D01*
X46805871Y-97224769D01*
X46822783Y-97229022D01*
X46848367Y-97232180D01*
X46885299Y-97234392D01*
X46936254Y-97235806D01*
X47003906Y-97236572D01*
X47090931Y-97236838D01*
X47110606Y-97236845D01*
X47199089Y-97236787D01*
X47267773Y-97236467D01*
X47319436Y-97235667D01*
X47356855Y-97234167D01*
X47382810Y-97231749D01*
X47400078Y-97228194D01*
X47411438Y-97223282D01*
X47419668Y-97216795D01*
X47424183Y-97212138D01*
X47430979Y-97203889D01*
X47436288Y-97193669D01*
X47440294Y-97178800D01*
X47443179Y-97156602D01*
X47445126Y-97124393D01*
X47446319Y-97079496D01*
X47446939Y-97019228D01*
X47447171Y-96940911D01*
X47447200Y-96874994D01*
X47447129Y-96782628D01*
X47446792Y-96710117D01*
X47446002Y-96654737D01*
X47444574Y-96613765D01*
X47442321Y-96584478D01*
X47439057Y-96564153D01*
X47434596Y-96550066D01*
X47428752Y-96539495D01*
X47423803Y-96532811D01*
X47400406Y-96503067D01*
X47110226Y-96503067D01*
X47013657Y-96503260D01*
G36*
X46225691Y-96503275D02*
X46096712Y-96507636D01*
X45987009Y-96520861D01*
X45894774Y-96543741D01*
X45818198Y-96577070D01*
X45755473Y-96621638D01*
X45704788Y-96678236D01*
X45664337Y-96747658D01*
X45663541Y-96749351D01*
X45639399Y-96811483D01*
X45630797Y-96866509D01*
X45637769Y-96921887D01*
X45660346Y-96985073D01*
X45664628Y-96994689D01*
X45693828Y-97050966D01*
X45726644Y-97094451D01*
X45768998Y-97131417D01*
X45826810Y-97168135D01*
X45830169Y-97170052D01*
X45880496Y-97194227D01*
X45937379Y-97212282D01*
X46004473Y-97224839D01*
X46085435Y-97232522D01*
X46183918Y-97235953D01*
X46218714Y-97236251D01*
X46384406Y-97236845D01*
X46407803Y-97207100D01*
X46414743Y-97197319D01*
X46420158Y-97185897D01*
X46424235Y-97170095D01*
X46427163Y-97147175D01*
X46429133Y-97114396D01*
X46429775Y-97090089D01*
X46273156Y-97090089D01*
X46179274Y-97090089D01*
X46124336Y-97088483D01*
X46067940Y-97084255D01*
X46021655Y-97078292D01*
X46018861Y-97077790D01*
X45936652Y-97055736D01*
X45872886Y-97022600D01*
X45825548Y-96976847D01*
X45792618Y-96916939D01*
X45786892Y-96901061D01*
X45781279Y-96876333D01*
X45783709Y-96851902D01*
X45795533Y-96819400D01*
X45802660Y-96803434D01*
X45826000Y-96761006D01*
X45854120Y-96731240D01*
X45885060Y-96710511D01*
X45947034Y-96683537D01*
X46026349Y-96663998D01*
X46118747Y-96652746D01*
X46185667Y-96650270D01*
X46273156Y-96649822D01*
X46273156Y-97090089D01*
X46429775Y-97090089D01*
X46430332Y-97069021D01*
X46430950Y-97008311D01*
X46431175Y-96929526D01*
X46431200Y-96867920D01*
X46431200Y-96558485D01*
X46403491Y-96530776D01*
X46391194Y-96519544D01*
X46377897Y-96511853D01*
X46359328Y-96507040D01*
X46331214Y-96504446D01*
X46289283Y-96503410D01*
X46229263Y-96503270D01*
X46225691Y-96503275D01*
X46225691Y-96503275D01*
G37*
X46225691Y-96503275D02*
X46096712Y-96507636D01*
X45987009Y-96520861D01*
X45894774Y-96543741D01*
X45818198Y-96577070D01*
X45755473Y-96621638D01*
X45704788Y-96678236D01*
X45664337Y-96747658D01*
X45663541Y-96749351D01*
X45639399Y-96811483D01*
X45630797Y-96866509D01*
X45637769Y-96921887D01*
X45660346Y-96985073D01*
X45664628Y-96994689D01*
X45693828Y-97050966D01*
X45726644Y-97094451D01*
X45768998Y-97131417D01*
X45826810Y-97168135D01*
X45830169Y-97170052D01*
X45880496Y-97194227D01*
X45937379Y-97212282D01*
X46004473Y-97224839D01*
X46085435Y-97232522D01*
X46183918Y-97235953D01*
X46218714Y-97236251D01*
X46384406Y-97236845D01*
X46407803Y-97207100D01*
X46414743Y-97197319D01*
X46420158Y-97185897D01*
X46424235Y-97170095D01*
X46427163Y-97147175D01*
X46429133Y-97114396D01*
X46429775Y-97090089D01*
X46273156Y-97090089D01*
X46179274Y-97090089D01*
X46124336Y-97088483D01*
X46067940Y-97084255D01*
X46021655Y-97078292D01*
X46018861Y-97077790D01*
X45936652Y-97055736D01*
X45872886Y-97022600D01*
X45825548Y-96976847D01*
X45792618Y-96916939D01*
X45786892Y-96901061D01*
X45781279Y-96876333D01*
X45783709Y-96851902D01*
X45795533Y-96819400D01*
X45802660Y-96803434D01*
X45826000Y-96761006D01*
X45854120Y-96731240D01*
X45885060Y-96710511D01*
X45947034Y-96683537D01*
X46026349Y-96663998D01*
X46118747Y-96652746D01*
X46185667Y-96650270D01*
X46273156Y-96649822D01*
X46273156Y-97090089D01*
X46429775Y-97090089D01*
X46430332Y-97069021D01*
X46430950Y-97008311D01*
X46431175Y-96929526D01*
X46431200Y-96867920D01*
X46431200Y-96558485D01*
X46403491Y-96530776D01*
X46391194Y-96519544D01*
X46377897Y-96511853D01*
X46359328Y-96507040D01*
X46331214Y-96504446D01*
X46289283Y-96503410D01*
X46229263Y-96503270D01*
X46225691Y-96503275D01*
G36*
X43499335Y-96505034D02*
X43479745Y-96512035D01*
X43478990Y-96512377D01*
X43452387Y-96532678D01*
X43437730Y-96553561D01*
X43434862Y-96563352D01*
X43435004Y-96576361D01*
X43439039Y-96594895D01*
X43447854Y-96621257D01*
X43462331Y-96657752D01*
X43483355Y-96706687D01*
X43511812Y-96770365D01*
X43548585Y-96851093D01*
X43568825Y-96895216D01*
X43605375Y-96973985D01*
X43639685Y-97046423D01*
X43670448Y-97109880D01*
X43696352Y-97161708D01*
X43716090Y-97199259D01*
X43728350Y-97219884D01*
X43730776Y-97222733D01*
X43761817Y-97235302D01*
X43796879Y-97233619D01*
X43825000Y-97218332D01*
X43826146Y-97217089D01*
X43837332Y-97200154D01*
X43856096Y-97167170D01*
X43880125Y-97122380D01*
X43907103Y-97070032D01*
X43916799Y-97050742D01*
X43989986Y-96904150D01*
X44069760Y-97063393D01*
X44098233Y-97118415D01*
X44124650Y-97166132D01*
X44146852Y-97202893D01*
X44162681Y-97225044D01*
X44168046Y-97229741D01*
X44209743Y-97236102D01*
X44244151Y-97222733D01*
X44254272Y-97208446D01*
X44271786Y-97176692D01*
X44295265Y-97130597D01*
X44323280Y-97073285D01*
X44354401Y-97007880D01*
X44387201Y-96937507D01*
X44420250Y-96865291D01*
X44452119Y-96794355D01*
X44481381Y-96727825D01*
X44506605Y-96668826D01*
X44526364Y-96620481D01*
X44539228Y-96585915D01*
X44543769Y-96568253D01*
X44543723Y-96567613D01*
X44532674Y-96545388D01*
X44510590Y-96522753D01*
X44509290Y-96521768D01*
X44482147Y-96506425D01*
X44457042Y-96506574D01*
X44447632Y-96509466D01*
X44436166Y-96515718D01*
X44423990Y-96528014D01*
X44409643Y-96548908D01*
X44391664Y-96580949D01*
X44368593Y-96626688D01*
X44338970Y-96688677D01*
X44312255Y-96745898D01*
X44281520Y-96812226D01*
X44253979Y-96871874D01*
X44231062Y-96921725D01*
X44214202Y-96958664D01*
X44204827Y-96979573D01*
X44203460Y-96982845D01*
X44197311Y-96977497D01*
X44183178Y-96955109D01*
X44162943Y-96918946D01*
X44138485Y-96872277D01*
X44128752Y-96853022D01*
X44095783Y-96788004D01*
X44070357Y-96740654D01*
X44050388Y-96708219D01*
X44033790Y-96687946D01*
X44018476Y-96677082D01*
X44002360Y-96672875D01*
X43991857Y-96672400D01*
X43973330Y-96674042D01*
X43957096Y-96680831D01*
X43940965Y-96695566D01*
X43922749Y-96721044D01*
X43900261Y-96760061D01*
X43871311Y-96815414D01*
X43855338Y-96846903D01*
X43829430Y-96897087D01*
X43806833Y-96938704D01*
X43789542Y-96968242D01*
X43779550Y-96982189D01*
X43778191Y-96982770D01*
X43771739Y-96971793D01*
X43757292Y-96943290D01*
X43736297Y-96900244D01*
X43710203Y-96845638D01*
X43680454Y-96782454D01*
X43665820Y-96751071D01*
X43627750Y-96670078D01*
X43597095Y-96607756D01*
X43572263Y-96562071D01*
X43551663Y-96530989D01*
X43533702Y-96512478D01*
X43516790Y-96504504D01*
X43499335Y-96505034D01*
X43499335Y-96505034D01*
G37*
X43499335Y-96505034D02*
X43479745Y-96512035D01*
X43478990Y-96512377D01*
X43452387Y-96532678D01*
X43437730Y-96553561D01*
X43434862Y-96563352D01*
X43435004Y-96576361D01*
X43439039Y-96594895D01*
X43447854Y-96621257D01*
X43462331Y-96657752D01*
X43483355Y-96706687D01*
X43511812Y-96770365D01*
X43548585Y-96851093D01*
X43568825Y-96895216D01*
X43605375Y-96973985D01*
X43639685Y-97046423D01*
X43670448Y-97109880D01*
X43696352Y-97161708D01*
X43716090Y-97199259D01*
X43728350Y-97219884D01*
X43730776Y-97222733D01*
X43761817Y-97235302D01*
X43796879Y-97233619D01*
X43825000Y-97218332D01*
X43826146Y-97217089D01*
X43837332Y-97200154D01*
X43856096Y-97167170D01*
X43880125Y-97122380D01*
X43907103Y-97070032D01*
X43916799Y-97050742D01*
X43989986Y-96904150D01*
X44069760Y-97063393D01*
X44098233Y-97118415D01*
X44124650Y-97166132D01*
X44146852Y-97202893D01*
X44162681Y-97225044D01*
X44168046Y-97229741D01*
X44209743Y-97236102D01*
X44244151Y-97222733D01*
X44254272Y-97208446D01*
X44271786Y-97176692D01*
X44295265Y-97130597D01*
X44323280Y-97073285D01*
X44354401Y-97007880D01*
X44387201Y-96937507D01*
X44420250Y-96865291D01*
X44452119Y-96794355D01*
X44481381Y-96727825D01*
X44506605Y-96668826D01*
X44526364Y-96620481D01*
X44539228Y-96585915D01*
X44543769Y-96568253D01*
X44543723Y-96567613D01*
X44532674Y-96545388D01*
X44510590Y-96522753D01*
X44509290Y-96521768D01*
X44482147Y-96506425D01*
X44457042Y-96506574D01*
X44447632Y-96509466D01*
X44436166Y-96515718D01*
X44423990Y-96528014D01*
X44409643Y-96548908D01*
X44391664Y-96580949D01*
X44368593Y-96626688D01*
X44338970Y-96688677D01*
X44312255Y-96745898D01*
X44281520Y-96812226D01*
X44253979Y-96871874D01*
X44231062Y-96921725D01*
X44214202Y-96958664D01*
X44204827Y-96979573D01*
X44203460Y-96982845D01*
X44197311Y-96977497D01*
X44183178Y-96955109D01*
X44162943Y-96918946D01*
X44138485Y-96872277D01*
X44128752Y-96853022D01*
X44095783Y-96788004D01*
X44070357Y-96740654D01*
X44050388Y-96708219D01*
X44033790Y-96687946D01*
X44018476Y-96677082D01*
X44002360Y-96672875D01*
X43991857Y-96672400D01*
X43973330Y-96674042D01*
X43957096Y-96680831D01*
X43940965Y-96695566D01*
X43922749Y-96721044D01*
X43900261Y-96760061D01*
X43871311Y-96815414D01*
X43855338Y-96846903D01*
X43829430Y-96897087D01*
X43806833Y-96938704D01*
X43789542Y-96968242D01*
X43779550Y-96982189D01*
X43778191Y-96982770D01*
X43771739Y-96971793D01*
X43757292Y-96943290D01*
X43736297Y-96900244D01*
X43710203Y-96845638D01*
X43680454Y-96782454D01*
X43665820Y-96751071D01*
X43627750Y-96670078D01*
X43597095Y-96607756D01*
X43572263Y-96562071D01*
X43551663Y-96530989D01*
X43533702Y-96512478D01*
X43516790Y-96504504D01*
X43499335Y-96505034D01*
G36*
X43055386Y-96509877D02*
X43031673Y-96524647D01*
X43005022Y-96546227D01*
X43005022Y-96867773D01*
X43005107Y-96961830D01*
X43005471Y-97035932D01*
X43006276Y-97092704D01*
X43007687Y-97134768D01*
X43009867Y-97164748D01*
X43012979Y-97185267D01*
X43017186Y-97198949D01*
X43022652Y-97208416D01*
X43026528Y-97213082D01*
X43057966Y-97233575D01*
X43093767Y-97232739D01*
X43125127Y-97215264D01*
X43151778Y-97193684D01*
X43151778Y-96546227D01*
X43125127Y-96524647D01*
X43099406Y-96508949D01*
X43078400Y-96503067D01*
X43055386Y-96509877D01*
X43055386Y-96509877D01*
G37*
X43055386Y-96509877D02*
X43031673Y-96524647D01*
X43005022Y-96546227D01*
X43005022Y-96867773D01*
X43005107Y-96961830D01*
X43005471Y-97035932D01*
X43006276Y-97092704D01*
X43007687Y-97134768D01*
X43009867Y-97164748D01*
X43012979Y-97185267D01*
X43017186Y-97198949D01*
X43022652Y-97208416D01*
X43026528Y-97213082D01*
X43057966Y-97233575D01*
X43093767Y-97232739D01*
X43125127Y-97215264D01*
X43151778Y-97193684D01*
X43151778Y-96546227D01*
X43125127Y-96524647D01*
X43099406Y-96508949D01*
X43078400Y-96503067D01*
X43055386Y-96509877D01*
G36*
X42280935Y-96503163D02*
X42202228Y-96503542D01*
X42141137Y-96504333D01*
X42095183Y-96505670D01*
X42061886Y-96507683D01*
X42038764Y-96510506D01*
X42023338Y-96514269D01*
X42013129Y-96519105D01*
X42008187Y-96522822D01*
X41982543Y-96555358D01*
X41979441Y-96589138D01*
X41995289Y-96619826D01*
X42005652Y-96632089D01*
X42016804Y-96640450D01*
X42032965Y-96645657D01*
X42058358Y-96648457D01*
X42097202Y-96649596D01*
X42153720Y-96649821D01*
X42164820Y-96649822D01*
X42310756Y-96649822D01*
X42310756Y-96920756D01*
X42310852Y-97006154D01*
X42311289Y-97071864D01*
X42312288Y-97120774D01*
X42314072Y-97155773D01*
X42316863Y-97179749D01*
X42320883Y-97195593D01*
X42326355Y-97206191D01*
X42333334Y-97214267D01*
X42366266Y-97234112D01*
X42400646Y-97232548D01*
X42431824Y-97209906D01*
X42434114Y-97207100D01*
X42441571Y-97196492D01*
X42447253Y-97184081D01*
X42451399Y-97166850D01*
X42454250Y-97141784D01*
X42456046Y-97105867D01*
X42457028Y-97056083D01*
X42457436Y-96989417D01*
X42457511Y-96913589D01*
X42457511Y-96649822D01*
X42596873Y-96649822D01*
X42656678Y-96649418D01*
X42698082Y-96647840D01*
X42725252Y-96644547D01*
X42742354Y-96638992D01*
X42753557Y-96630631D01*
X42754917Y-96629178D01*
X42771275Y-96595939D01*
X42769828Y-96558362D01*
X42751022Y-96525645D01*
X42743750Y-96519298D01*
X42734373Y-96514266D01*
X42720391Y-96510396D01*
X42699304Y-96507537D01*
X42668611Y-96505535D01*
X42625811Y-96504239D01*
X42568405Y-96503498D01*
X42493890Y-96503158D01*
X42399767Y-96503068D01*
X42379740Y-96503067D01*
X42280935Y-96503163D01*
X42280935Y-96503163D01*
G37*
X42280935Y-96503163D02*
X42202228Y-96503542D01*
X42141137Y-96504333D01*
X42095183Y-96505670D01*
X42061886Y-96507683D01*
X42038764Y-96510506D01*
X42023338Y-96514269D01*
X42013129Y-96519105D01*
X42008187Y-96522822D01*
X41982543Y-96555358D01*
X41979441Y-96589138D01*
X41995289Y-96619826D01*
X42005652Y-96632089D01*
X42016804Y-96640450D01*
X42032965Y-96645657D01*
X42058358Y-96648457D01*
X42097202Y-96649596D01*
X42153720Y-96649821D01*
X42164820Y-96649822D01*
X42310756Y-96649822D01*
X42310756Y-96920756D01*
X42310852Y-97006154D01*
X42311289Y-97071864D01*
X42312288Y-97120774D01*
X42314072Y-97155773D01*
X42316863Y-97179749D01*
X42320883Y-97195593D01*
X42326355Y-97206191D01*
X42333334Y-97214267D01*
X42366266Y-97234112D01*
X42400646Y-97232548D01*
X42431824Y-97209906D01*
X42434114Y-97207100D01*
X42441571Y-97196492D01*
X42447253Y-97184081D01*
X42451399Y-97166850D01*
X42454250Y-97141784D01*
X42456046Y-97105867D01*
X42457028Y-97056083D01*
X42457436Y-96989417D01*
X42457511Y-96913589D01*
X42457511Y-96649822D01*
X42596873Y-96649822D01*
X42656678Y-96649418D01*
X42698082Y-96647840D01*
X42725252Y-96644547D01*
X42742354Y-96638992D01*
X42753557Y-96630631D01*
X42754917Y-96629178D01*
X42771275Y-96595939D01*
X42769828Y-96558362D01*
X42751022Y-96525645D01*
X42743750Y-96519298D01*
X42734373Y-96514266D01*
X42720391Y-96510396D01*
X42699304Y-96507537D01*
X42668611Y-96505535D01*
X42625811Y-96504239D01*
X42568405Y-96503498D01*
X42493890Y-96503158D01*
X42399767Y-96503068D01*
X42379740Y-96503067D01*
X42280935Y-96503163D01*
G36*
X41015177Y-96508533D02*
X40983798Y-96530776D01*
X40956089Y-96558485D01*
X40956089Y-96867920D01*
X40956162Y-96959799D01*
X40956505Y-97031840D01*
X40957308Y-97086780D01*
X40958759Y-97127360D01*
X40961048Y-97156317D01*
X40964364Y-97176391D01*
X40968895Y-97190321D01*
X40974831Y-97200845D01*
X40979486Y-97207100D01*
X41010217Y-97231673D01*
X41045504Y-97234341D01*
X41077755Y-97219271D01*
X41088412Y-97210374D01*
X41095536Y-97198557D01*
X41099833Y-97179526D01*
X41102009Y-97148992D01*
X41102772Y-97102662D01*
X41102845Y-97066871D01*
X41102845Y-96932045D01*
X41599556Y-96932045D01*
X41599556Y-97054700D01*
X41600069Y-97110787D01*
X41602124Y-97149333D01*
X41606492Y-97175361D01*
X41613944Y-97193897D01*
X41622953Y-97207100D01*
X41653856Y-97231604D01*
X41688804Y-97234506D01*
X41722262Y-97217089D01*
X41731396Y-97207959D01*
X41737848Y-97195855D01*
X41742103Y-97177001D01*
X41744648Y-97147620D01*
X41745971Y-97103937D01*
X41746557Y-97042175D01*
X41746625Y-97028000D01*
X41747109Y-96911631D01*
X41747359Y-96815727D01*
X41747277Y-96738177D01*
X41746769Y-96676869D01*
X41745738Y-96629690D01*
X41744087Y-96594530D01*
X41741721Y-96569276D01*
X41738543Y-96551817D01*
X41734456Y-96540041D01*
X41729366Y-96531835D01*
X41723734Y-96525645D01*
X41691872Y-96505844D01*
X41658643Y-96508533D01*
X41627265Y-96530776D01*
X41614567Y-96545126D01*
X41606474Y-96560978D01*
X41601958Y-96583554D01*
X41599994Y-96618078D01*
X41599556Y-96669776D01*
X41599556Y-96785289D01*
X41102845Y-96785289D01*
X41102845Y-96666756D01*
X41102338Y-96612148D01*
X41100302Y-96575275D01*
X41095965Y-96551307D01*
X41088553Y-96535415D01*
X41080267Y-96525645D01*
X41048406Y-96505844D01*
X41015177Y-96508533D01*
X41015177Y-96508533D01*
G37*
X41015177Y-96508533D02*
X40983798Y-96530776D01*
X40956089Y-96558485D01*
X40956089Y-96867920D01*
X40956162Y-96959799D01*
X40956505Y-97031840D01*
X40957308Y-97086780D01*
X40958759Y-97127360D01*
X40961048Y-97156317D01*
X40964364Y-97176391D01*
X40968895Y-97190321D01*
X40974831Y-97200845D01*
X40979486Y-97207100D01*
X41010217Y-97231673D01*
X41045504Y-97234341D01*
X41077755Y-97219271D01*
X41088412Y-97210374D01*
X41095536Y-97198557D01*
X41099833Y-97179526D01*
X41102009Y-97148992D01*
X41102772Y-97102662D01*
X41102845Y-97066871D01*
X41102845Y-96932045D01*
X41599556Y-96932045D01*
X41599556Y-97054700D01*
X41600069Y-97110787D01*
X41602124Y-97149333D01*
X41606492Y-97175361D01*
X41613944Y-97193897D01*
X41622953Y-97207100D01*
X41653856Y-97231604D01*
X41688804Y-97234506D01*
X41722262Y-97217089D01*
X41731396Y-97207959D01*
X41737848Y-97195855D01*
X41742103Y-97177001D01*
X41744648Y-97147620D01*
X41745971Y-97103937D01*
X41746557Y-97042175D01*
X41746625Y-97028000D01*
X41747109Y-96911631D01*
X41747359Y-96815727D01*
X41747277Y-96738177D01*
X41746769Y-96676869D01*
X41745738Y-96629690D01*
X41744087Y-96594530D01*
X41741721Y-96569276D01*
X41738543Y-96551817D01*
X41734456Y-96540041D01*
X41729366Y-96531835D01*
X41723734Y-96525645D01*
X41691872Y-96505844D01*
X41658643Y-96508533D01*
X41627265Y-96530776D01*
X41614567Y-96545126D01*
X41606474Y-96560978D01*
X41601958Y-96583554D01*
X41599994Y-96618078D01*
X41599556Y-96669776D01*
X41599556Y-96785289D01*
X41102845Y-96785289D01*
X41102845Y-96666756D01*
X41102338Y-96612148D01*
X41100302Y-96575275D01*
X41095965Y-96551307D01*
X41088553Y-96535415D01*
X41080267Y-96525645D01*
X41048406Y-96505844D01*
X41015177Y-96508533D01*
G36*
X50190400Y-91723054D02*
X50179535Y-91836993D01*
X50147918Y-91944616D01*
X50097015Y-92043615D01*
X50028293Y-92131684D01*
X49943219Y-92206516D01*
X49846232Y-92264384D01*
X49739964Y-92304005D01*
X49632950Y-92322573D01*
X49527300Y-92321434D01*
X49425125Y-92301930D01*
X49328534Y-92265406D01*
X49239638Y-92213205D01*
X49160546Y-92146673D01*
X49093369Y-92067152D01*
X49040217Y-91975987D01*
X49003199Y-91874523D01*
X48984427Y-91764102D01*
X48982489Y-91714206D01*
X48982489Y-91626267D01*
X48930560Y-91626267D01*
X48894253Y-91629111D01*
X48867355Y-91640911D01*
X48840249Y-91664649D01*
X48801867Y-91703031D01*
X48801867Y-93894602D01*
X48801876Y-94156739D01*
X48801908Y-94397241D01*
X48801972Y-94617048D01*
X48802076Y-94817101D01*
X48802227Y-94998344D01*
X48802434Y-95161716D01*
X48802706Y-95308160D01*
X48803050Y-95438617D01*
X48803474Y-95554029D01*
X48803987Y-95655338D01*
X48804597Y-95743484D01*
X48805312Y-95819410D01*
X48806140Y-95884057D01*
X48807089Y-95938367D01*
X48808167Y-95983280D01*
X48809383Y-96019740D01*
X48810745Y-96048687D01*
X48812261Y-96071063D01*
X48813938Y-96087809D01*
X48815786Y-96099868D01*
X48817813Y-96108180D01*
X48820025Y-96113687D01*
X48821108Y-96115537D01*
X48825271Y-96122549D01*
X48828805Y-96128996D01*
X48832635Y-96134900D01*
X48837682Y-96140286D01*
X48844871Y-96145178D01*
X48855123Y-96149598D01*
X48869364Y-96153572D01*
X48888514Y-96157121D01*
X48913499Y-96160270D01*
X48945240Y-96163042D01*
X48984662Y-96165461D01*
X49032686Y-96167551D01*
X49090237Y-96169335D01*
X49158237Y-96170837D01*
X49237610Y-96172080D01*
X49329279Y-96173089D01*
X49434166Y-96173885D01*
X49553196Y-96174494D01*
X49687290Y-96174939D01*
X49837373Y-96175243D01*
X50004367Y-96175430D01*
X50189196Y-96175524D01*
X50392783Y-96175548D01*
X50616050Y-96175525D01*
X50859922Y-96175480D01*
X51125321Y-96175437D01*
X51163704Y-96175432D01*
X51430682Y-96175389D01*
X51676002Y-96175318D01*
X51900583Y-96175213D01*
X52105345Y-96175066D01*
X52291206Y-96174869D01*
X52459088Y-96174616D01*
X52609908Y-96174300D01*
X52744587Y-96173913D01*
X52864044Y-96173447D01*
X52969199Y-96172897D01*
X53060971Y-96172253D01*
X53140279Y-96171511D01*
X53208043Y-96170661D01*
X53265182Y-96169697D01*
X53312617Y-96168611D01*
X53351266Y-96167397D01*
X53382049Y-96166047D01*
X53405885Y-96164555D01*
X53423694Y-96162911D01*
X53436395Y-96161111D01*
X53444908Y-96159145D01*
X53449266Y-96157477D01*
X53457728Y-96153906D01*
X53465497Y-96151270D01*
X53472602Y-96148634D01*
X53479073Y-96145062D01*
X53484939Y-96139621D01*
X53490229Y-96131375D01*
X53494974Y-96119390D01*
X53499202Y-96102731D01*
X53502943Y-96080463D01*
X53506227Y-96051652D01*
X53509083Y-96015363D01*
X53511540Y-95970661D01*
X53513629Y-95916611D01*
X53515378Y-95852279D01*
X53516817Y-95776730D01*
X53517976Y-95689030D01*
X53518883Y-95588243D01*
X53519569Y-95473434D01*
X53520063Y-95343670D01*
X53520395Y-95198015D01*
X53520593Y-95035535D01*
X53520687Y-94855295D01*
X53520708Y-94656360D01*
X53520685Y-94437796D01*
X53520646Y-94198668D01*
X53520622Y-93938040D01*
X53520622Y-93895889D01*
X53520636Y-93632992D01*
X53520661Y-93391732D01*
X53520671Y-93171165D01*
X53520642Y-92970352D01*
X53520548Y-92788349D01*
X53520362Y-92624216D01*
X53520059Y-92477011D01*
X53519614Y-92345792D01*
X53519034Y-92235867D01*
X53216197Y-92235867D01*
X53176407Y-92293711D01*
X53165236Y-92309479D01*
X53155166Y-92323441D01*
X53146138Y-92336784D01*
X53138097Y-92350693D01*
X53130986Y-92366356D01*
X53124747Y-92384958D01*
X53119325Y-92407686D01*
X53114662Y-92435727D01*
X53110701Y-92470267D01*
X53107385Y-92512492D01*
X53104659Y-92563589D01*
X53102464Y-92624744D01*
X53100745Y-92697144D01*
X53099444Y-92781975D01*
X53098505Y-92880422D01*
X53097870Y-92993674D01*
X53097484Y-93122916D01*
X53097288Y-93269334D01*
X53097227Y-93434116D01*
X53097243Y-93618447D01*
X53097280Y-93823513D01*
X53097289Y-93946133D01*
X53097265Y-94163082D01*
X53097231Y-94358642D01*
X53097243Y-94533999D01*
X53097358Y-94690341D01*
X53097630Y-94828857D01*
X53098118Y-94950734D01*
X53098876Y-95057160D01*
X53099962Y-95149322D01*
X53101431Y-95228409D01*
X53103340Y-95295608D01*
X53105744Y-95352107D01*
X53108701Y-95399093D01*
X53112266Y-95437755D01*
X53116495Y-95469280D01*
X53121446Y-95494855D01*
X53127173Y-95515670D01*
X53133733Y-95532911D01*
X53141183Y-95547765D01*
X53149579Y-95561422D01*
X53158976Y-95575069D01*
X53169432Y-95589893D01*
X53175523Y-95598783D01*
X53214296Y-95656400D01*
X52682732Y-95656400D01*
X52559483Y-95656365D01*
X52456987Y-95656215D01*
X52373420Y-95655878D01*
X52306956Y-95655286D01*
X52255771Y-95654367D01*
X52218041Y-95653051D01*
X52191940Y-95651269D01*
X52175644Y-95648951D01*
X52167328Y-95646026D01*
X52165168Y-95642424D01*
X52167339Y-95638075D01*
X52168535Y-95636645D01*
X52193685Y-95599573D01*
X52219583Y-95546772D01*
X52243192Y-95484770D01*
X52251461Y-95458357D01*
X52256078Y-95440416D01*
X52259979Y-95419355D01*
X52263248Y-95393089D01*
X52265966Y-95359532D01*
X52268215Y-95316599D01*
X52270077Y-95262204D01*
X52271636Y-95194262D01*
X52272972Y-95110688D01*
X52274169Y-95009395D01*
X52275308Y-94888300D01*
X52275685Y-94843600D01*
X52276702Y-94718449D01*
X52277460Y-94614082D01*
X52277903Y-94528707D01*
X52277970Y-94460533D01*
X52277605Y-94407765D01*
X52276748Y-94368614D01*
X52275341Y-94341285D01*
X52273325Y-94323986D01*
X52270643Y-94314926D01*
X52267236Y-94312312D01*
X52263044Y-94314351D01*
X52258571Y-94318667D01*
X52248216Y-94331602D01*
X52226158Y-94360676D01*
X52193957Y-94403759D01*
X52153174Y-94458718D01*
X52105370Y-94523423D01*
X52052105Y-94595742D01*
X51994940Y-94673544D01*
X51935437Y-94754698D01*
X51875155Y-94837072D01*
X51815655Y-94918536D01*
X51758498Y-94996957D01*
X51705245Y-95070204D01*
X51657457Y-95136147D01*
X51616693Y-95192654D01*
X51584516Y-95237593D01*
X51562485Y-95268834D01*
X51557917Y-95275466D01*
X51534996Y-95312369D01*
X51508188Y-95360359D01*
X51482789Y-95409897D01*
X51479568Y-95416577D01*
X51457890Y-95464772D01*
X51445304Y-95502334D01*
X51439574Y-95538160D01*
X51438456Y-95580200D01*
X51439090Y-95656400D01*
X50284651Y-95656400D01*
X50375815Y-95562669D01*
X50422612Y-95512775D01*
X50472899Y-95456295D01*
X50518944Y-95402026D01*
X50539369Y-95376673D01*
X50569807Y-95337128D01*
X50609862Y-95283916D01*
X50658361Y-95218667D01*
X50714135Y-95143011D01*
X50776011Y-95058577D01*
X50842819Y-94966994D01*
X50913387Y-94869892D01*
X50986545Y-94768901D01*
X51061121Y-94665650D01*
X51135944Y-94561768D01*
X51209843Y-94458885D01*
X51281646Y-94358631D01*
X51350184Y-94262636D01*
X51414284Y-94172527D01*
X51472775Y-94089936D01*
X51524486Y-94016492D01*
X51568247Y-93953824D01*
X51602885Y-93903561D01*
X51627230Y-93867334D01*
X51640111Y-93846771D01*
X51641869Y-93842668D01*
X51633910Y-93831342D01*
X51613115Y-93804162D01*
X51580847Y-93762829D01*
X51538470Y-93709044D01*
X51487347Y-93644506D01*
X51428841Y-93570918D01*
X51364314Y-93489978D01*
X51295131Y-93403388D01*
X51222653Y-93312848D01*
X51148246Y-93220060D01*
X51088517Y-93145702D01*
X50077511Y-93145702D01*
X50071602Y-93158659D01*
X50057272Y-93180908D01*
X50056225Y-93182391D01*
X50037438Y-93212544D01*
X50017791Y-93249375D01*
X50013892Y-93257511D01*
X50010356Y-93265940D01*
X50007230Y-93276059D01*
X50004486Y-93289260D01*
X50002092Y-93306938D01*
X50000019Y-93330484D01*
X49998235Y-93361293D01*
X49996712Y-93400757D01*
X49995419Y-93450269D01*
X49994326Y-93511223D01*
X49993403Y-93585011D01*
X49992619Y-93673028D01*
X49991945Y-93776665D01*
X49991350Y-93897316D01*
X49990805Y-94036374D01*
X49990279Y-94195232D01*
X49989745Y-94374089D01*
X49989206Y-94559207D01*
X49988772Y-94723145D01*
X49988509Y-94867303D01*
X49988484Y-94993079D01*
X49988765Y-95101871D01*
X49989419Y-95195077D01*
X49990514Y-95274097D01*
X49992118Y-95340328D01*
X49994297Y-95395170D01*
X49997119Y-95440021D01*
X50000651Y-95476278D01*
X50004961Y-95505341D01*
X50010117Y-95528609D01*
X50016185Y-95547479D01*
X50023233Y-95563351D01*
X50031329Y-95577622D01*
X50040540Y-95591691D01*
X50049040Y-95604158D01*
X50066176Y-95630452D01*
X50076322Y-95648037D01*
X50077511Y-95651257D01*
X50066604Y-95652334D01*
X50035411Y-95653335D01*
X49986223Y-95654235D01*
X49921333Y-95655010D01*
X49843030Y-95655637D01*
X49753607Y-95656091D01*
X49655356Y-95656349D01*
X49586445Y-95656400D01*
X49481452Y-95656180D01*
X49384610Y-95655548D01*
X49298107Y-95654549D01*
X49224132Y-95653227D01*
X49164874Y-95651626D01*
X49122520Y-95649791D01*
X49099260Y-95647765D01*
X49095378Y-95646493D01*
X49103076Y-95631591D01*
X49111074Y-95623560D01*
X49124246Y-95606434D01*
X49141485Y-95576183D01*
X49153407Y-95551622D01*
X49180045Y-95492711D01*
X49183120Y-94315845D01*
X49186195Y-93138978D01*
X49631853Y-93138978D01*
X49729670Y-93139142D01*
X49820064Y-93139611D01*
X49900630Y-93140347D01*
X49968962Y-93141316D01*
X50022656Y-93142480D01*
X50059305Y-93143803D01*
X50076504Y-93145249D01*
X50077511Y-93145702D01*
X51088517Y-93145702D01*
X51073270Y-93126722D01*
X50999090Y-93034537D01*
X50927069Y-92945204D01*
X50858569Y-92860424D01*
X50794955Y-92781898D01*
X50737588Y-92711326D01*
X50687833Y-92650409D01*
X50647052Y-92600847D01*
X50629888Y-92580178D01*
X50543596Y-92479516D01*
X50466997Y-92396259D01*
X50398183Y-92328438D01*
X50335248Y-92274089D01*
X50325867Y-92266722D01*
X50286356Y-92236117D01*
X51418116Y-92235867D01*
X51412827Y-92283844D01*
X51416130Y-92341188D01*
X51437661Y-92409463D01*
X51477635Y-92489212D01*
X51522943Y-92561495D01*
X51539161Y-92584140D01*
X51567214Y-92621696D01*
X51605430Y-92672021D01*
X51652137Y-92732973D01*
X51705661Y-92802411D01*
X51764331Y-92878194D01*
X51826475Y-92958180D01*
X51890421Y-93040228D01*
X51954495Y-93122196D01*
X52017027Y-93201943D01*
X52076343Y-93277327D01*
X52130771Y-93346207D01*
X52178639Y-93406442D01*
X52218275Y-93455889D01*
X52248006Y-93492408D01*
X52266161Y-93513858D01*
X52269220Y-93517156D01*
X52272079Y-93509149D01*
X52274293Y-93478855D01*
X52275857Y-93426556D01*
X52276767Y-93352531D01*
X52277020Y-93257063D01*
X52276613Y-93140434D01*
X52275704Y-93020445D01*
X52274382Y-92888333D01*
X52272857Y-92776594D01*
X52270881Y-92683025D01*
X52268206Y-92605419D01*
X52264582Y-92541574D01*
X52259761Y-92489283D01*
X52253494Y-92446344D01*
X52245532Y-92410551D01*
X52235627Y-92379700D01*
X52223531Y-92351586D01*
X52208993Y-92324005D01*
X52194311Y-92298966D01*
X52156314Y-92235867D01*
X53216197Y-92235867D01*
X53519034Y-92235867D01*
X53519001Y-92229617D01*
X53518195Y-92127544D01*
X53517170Y-92038633D01*
X53515900Y-91961941D01*
X53514360Y-91896527D01*
X53512524Y-91841449D01*
X53510367Y-91795765D01*
X53507863Y-91758534D01*
X53504987Y-91728813D01*
X53501713Y-91705662D01*
X53498015Y-91688139D01*
X53493869Y-91675301D01*
X53489247Y-91666208D01*
X53484126Y-91659918D01*
X53478478Y-91655488D01*
X53472279Y-91651978D01*
X53465504Y-91648445D01*
X53459508Y-91644876D01*
X53454275Y-91642300D01*
X53446099Y-91639972D01*
X53433886Y-91637878D01*
X53416541Y-91636007D01*
X53392969Y-91634347D01*
X53362077Y-91632884D01*
X53322768Y-91631608D01*
X53273950Y-91630504D01*
X53214527Y-91629561D01*
X53143404Y-91628767D01*
X53059488Y-91628109D01*
X52961683Y-91627575D01*
X52848894Y-91627153D01*
X52720029Y-91626829D01*
X52573991Y-91626592D01*
X52409686Y-91626430D01*
X52226020Y-91626330D01*
X52021897Y-91626280D01*
X51810753Y-91626267D01*
X50190400Y-91626267D01*
X50190400Y-91723054D01*
X50190400Y-91723054D01*
G37*
X50190400Y-91723054D02*
X50179535Y-91836993D01*
X50147918Y-91944616D01*
X50097015Y-92043615D01*
X50028293Y-92131684D01*
X49943219Y-92206516D01*
X49846232Y-92264384D01*
X49739964Y-92304005D01*
X49632950Y-92322573D01*
X49527300Y-92321434D01*
X49425125Y-92301930D01*
X49328534Y-92265406D01*
X49239638Y-92213205D01*
X49160546Y-92146673D01*
X49093369Y-92067152D01*
X49040217Y-91975987D01*
X49003199Y-91874523D01*
X48984427Y-91764102D01*
X48982489Y-91714206D01*
X48982489Y-91626267D01*
X48930560Y-91626267D01*
X48894253Y-91629111D01*
X48867355Y-91640911D01*
X48840249Y-91664649D01*
X48801867Y-91703031D01*
X48801867Y-93894602D01*
X48801876Y-94156739D01*
X48801908Y-94397241D01*
X48801972Y-94617048D01*
X48802076Y-94817101D01*
X48802227Y-94998344D01*
X48802434Y-95161716D01*
X48802706Y-95308160D01*
X48803050Y-95438617D01*
X48803474Y-95554029D01*
X48803987Y-95655338D01*
X48804597Y-95743484D01*
X48805312Y-95819410D01*
X48806140Y-95884057D01*
X48807089Y-95938367D01*
X48808167Y-95983280D01*
X48809383Y-96019740D01*
X48810745Y-96048687D01*
X48812261Y-96071063D01*
X48813938Y-96087809D01*
X48815786Y-96099868D01*
X48817813Y-96108180D01*
X48820025Y-96113687D01*
X48821108Y-96115537D01*
X48825271Y-96122549D01*
X48828805Y-96128996D01*
X48832635Y-96134900D01*
X48837682Y-96140286D01*
X48844871Y-96145178D01*
X48855123Y-96149598D01*
X48869364Y-96153572D01*
X48888514Y-96157121D01*
X48913499Y-96160270D01*
X48945240Y-96163042D01*
X48984662Y-96165461D01*
X49032686Y-96167551D01*
X49090237Y-96169335D01*
X49158237Y-96170837D01*
X49237610Y-96172080D01*
X49329279Y-96173089D01*
X49434166Y-96173885D01*
X49553196Y-96174494D01*
X49687290Y-96174939D01*
X49837373Y-96175243D01*
X50004367Y-96175430D01*
X50189196Y-96175524D01*
X50392783Y-96175548D01*
X50616050Y-96175525D01*
X50859922Y-96175480D01*
X51125321Y-96175437D01*
X51163704Y-96175432D01*
X51430682Y-96175389D01*
X51676002Y-96175318D01*
X51900583Y-96175213D01*
X52105345Y-96175066D01*
X52291206Y-96174869D01*
X52459088Y-96174616D01*
X52609908Y-96174300D01*
X52744587Y-96173913D01*
X52864044Y-96173447D01*
X52969199Y-96172897D01*
X53060971Y-96172253D01*
X53140279Y-96171511D01*
X53208043Y-96170661D01*
X53265182Y-96169697D01*
X53312617Y-96168611D01*
X53351266Y-96167397D01*
X53382049Y-96166047D01*
X53405885Y-96164555D01*
X53423694Y-96162911D01*
X53436395Y-96161111D01*
X53444908Y-96159145D01*
X53449266Y-96157477D01*
X53457728Y-96153906D01*
X53465497Y-96151270D01*
X53472602Y-96148634D01*
X53479073Y-96145062D01*
X53484939Y-96139621D01*
X53490229Y-96131375D01*
X53494974Y-96119390D01*
X53499202Y-96102731D01*
X53502943Y-96080463D01*
X53506227Y-96051652D01*
X53509083Y-96015363D01*
X53511540Y-95970661D01*
X53513629Y-95916611D01*
X53515378Y-95852279D01*
X53516817Y-95776730D01*
X53517976Y-95689030D01*
X53518883Y-95588243D01*
X53519569Y-95473434D01*
X53520063Y-95343670D01*
X53520395Y-95198015D01*
X53520593Y-95035535D01*
X53520687Y-94855295D01*
X53520708Y-94656360D01*
X53520685Y-94437796D01*
X53520646Y-94198668D01*
X53520622Y-93938040D01*
X53520622Y-93895889D01*
X53520636Y-93632992D01*
X53520661Y-93391732D01*
X53520671Y-93171165D01*
X53520642Y-92970352D01*
X53520548Y-92788349D01*
X53520362Y-92624216D01*
X53520059Y-92477011D01*
X53519614Y-92345792D01*
X53519034Y-92235867D01*
X53216197Y-92235867D01*
X53176407Y-92293711D01*
X53165236Y-92309479D01*
X53155166Y-92323441D01*
X53146138Y-92336784D01*
X53138097Y-92350693D01*
X53130986Y-92366356D01*
X53124747Y-92384958D01*
X53119325Y-92407686D01*
X53114662Y-92435727D01*
X53110701Y-92470267D01*
X53107385Y-92512492D01*
X53104659Y-92563589D01*
X53102464Y-92624744D01*
X53100745Y-92697144D01*
X53099444Y-92781975D01*
X53098505Y-92880422D01*
X53097870Y-92993674D01*
X53097484Y-93122916D01*
X53097288Y-93269334D01*
X53097227Y-93434116D01*
X53097243Y-93618447D01*
X53097280Y-93823513D01*
X53097289Y-93946133D01*
X53097265Y-94163082D01*
X53097231Y-94358642D01*
X53097243Y-94533999D01*
X53097358Y-94690341D01*
X53097630Y-94828857D01*
X53098118Y-94950734D01*
X53098876Y-95057160D01*
X53099962Y-95149322D01*
X53101431Y-95228409D01*
X53103340Y-95295608D01*
X53105744Y-95352107D01*
X53108701Y-95399093D01*
X53112266Y-95437755D01*
X53116495Y-95469280D01*
X53121446Y-95494855D01*
X53127173Y-95515670D01*
X53133733Y-95532911D01*
X53141183Y-95547765D01*
X53149579Y-95561422D01*
X53158976Y-95575069D01*
X53169432Y-95589893D01*
X53175523Y-95598783D01*
X53214296Y-95656400D01*
X52682732Y-95656400D01*
X52559483Y-95656365D01*
X52456987Y-95656215D01*
X52373420Y-95655878D01*
X52306956Y-95655286D01*
X52255771Y-95654367D01*
X52218041Y-95653051D01*
X52191940Y-95651269D01*
X52175644Y-95648951D01*
X52167328Y-95646026D01*
X52165168Y-95642424D01*
X52167339Y-95638075D01*
X52168535Y-95636645D01*
X52193685Y-95599573D01*
X52219583Y-95546772D01*
X52243192Y-95484770D01*
X52251461Y-95458357D01*
X52256078Y-95440416D01*
X52259979Y-95419355D01*
X52263248Y-95393089D01*
X52265966Y-95359532D01*
X52268215Y-95316599D01*
X52270077Y-95262204D01*
X52271636Y-95194262D01*
X52272972Y-95110688D01*
X52274169Y-95009395D01*
X52275308Y-94888300D01*
X52275685Y-94843600D01*
X52276702Y-94718449D01*
X52277460Y-94614082D01*
X52277903Y-94528707D01*
X52277970Y-94460533D01*
X52277605Y-94407765D01*
X52276748Y-94368614D01*
X52275341Y-94341285D01*
X52273325Y-94323986D01*
X52270643Y-94314926D01*
X52267236Y-94312312D01*
X52263044Y-94314351D01*
X52258571Y-94318667D01*
X52248216Y-94331602D01*
X52226158Y-94360676D01*
X52193957Y-94403759D01*
X52153174Y-94458718D01*
X52105370Y-94523423D01*
X52052105Y-94595742D01*
X51994940Y-94673544D01*
X51935437Y-94754698D01*
X51875155Y-94837072D01*
X51815655Y-94918536D01*
X51758498Y-94996957D01*
X51705245Y-95070204D01*
X51657457Y-95136147D01*
X51616693Y-95192654D01*
X51584516Y-95237593D01*
X51562485Y-95268834D01*
X51557917Y-95275466D01*
X51534996Y-95312369D01*
X51508188Y-95360359D01*
X51482789Y-95409897D01*
X51479568Y-95416577D01*
X51457890Y-95464772D01*
X51445304Y-95502334D01*
X51439574Y-95538160D01*
X51438456Y-95580200D01*
X51439090Y-95656400D01*
X50284651Y-95656400D01*
X50375815Y-95562669D01*
X50422612Y-95512775D01*
X50472899Y-95456295D01*
X50518944Y-95402026D01*
X50539369Y-95376673D01*
X50569807Y-95337128D01*
X50609862Y-95283916D01*
X50658361Y-95218667D01*
X50714135Y-95143011D01*
X50776011Y-95058577D01*
X50842819Y-94966994D01*
X50913387Y-94869892D01*
X50986545Y-94768901D01*
X51061121Y-94665650D01*
X51135944Y-94561768D01*
X51209843Y-94458885D01*
X51281646Y-94358631D01*
X51350184Y-94262636D01*
X51414284Y-94172527D01*
X51472775Y-94089936D01*
X51524486Y-94016492D01*
X51568247Y-93953824D01*
X51602885Y-93903561D01*
X51627230Y-93867334D01*
X51640111Y-93846771D01*
X51641869Y-93842668D01*
X51633910Y-93831342D01*
X51613115Y-93804162D01*
X51580847Y-93762829D01*
X51538470Y-93709044D01*
X51487347Y-93644506D01*
X51428841Y-93570918D01*
X51364314Y-93489978D01*
X51295131Y-93403388D01*
X51222653Y-93312848D01*
X51148246Y-93220060D01*
X51088517Y-93145702D01*
X50077511Y-93145702D01*
X50071602Y-93158659D01*
X50057272Y-93180908D01*
X50056225Y-93182391D01*
X50037438Y-93212544D01*
X50017791Y-93249375D01*
X50013892Y-93257511D01*
X50010356Y-93265940D01*
X50007230Y-93276059D01*
X50004486Y-93289260D01*
X50002092Y-93306938D01*
X50000019Y-93330484D01*
X49998235Y-93361293D01*
X49996712Y-93400757D01*
X49995419Y-93450269D01*
X49994326Y-93511223D01*
X49993403Y-93585011D01*
X49992619Y-93673028D01*
X49991945Y-93776665D01*
X49991350Y-93897316D01*
X49990805Y-94036374D01*
X49990279Y-94195232D01*
X49989745Y-94374089D01*
X49989206Y-94559207D01*
X49988772Y-94723145D01*
X49988509Y-94867303D01*
X49988484Y-94993079D01*
X49988765Y-95101871D01*
X49989419Y-95195077D01*
X49990514Y-95274097D01*
X49992118Y-95340328D01*
X49994297Y-95395170D01*
X49997119Y-95440021D01*
X50000651Y-95476278D01*
X50004961Y-95505341D01*
X50010117Y-95528609D01*
X50016185Y-95547479D01*
X50023233Y-95563351D01*
X50031329Y-95577622D01*
X50040540Y-95591691D01*
X50049040Y-95604158D01*
X50066176Y-95630452D01*
X50076322Y-95648037D01*
X50077511Y-95651257D01*
X50066604Y-95652334D01*
X50035411Y-95653335D01*
X49986223Y-95654235D01*
X49921333Y-95655010D01*
X49843030Y-95655637D01*
X49753607Y-95656091D01*
X49655356Y-95656349D01*
X49586445Y-95656400D01*
X49481452Y-95656180D01*
X49384610Y-95655548D01*
X49298107Y-95654549D01*
X49224132Y-95653227D01*
X49164874Y-95651626D01*
X49122520Y-95649791D01*
X49099260Y-95647765D01*
X49095378Y-95646493D01*
X49103076Y-95631591D01*
X49111074Y-95623560D01*
X49124246Y-95606434D01*
X49141485Y-95576183D01*
X49153407Y-95551622D01*
X49180045Y-95492711D01*
X49183120Y-94315845D01*
X49186195Y-93138978D01*
X49631853Y-93138978D01*
X49729670Y-93139142D01*
X49820064Y-93139611D01*
X49900630Y-93140347D01*
X49968962Y-93141316D01*
X50022656Y-93142480D01*
X50059305Y-93143803D01*
X50076504Y-93145249D01*
X50077511Y-93145702D01*
X51088517Y-93145702D01*
X51073270Y-93126722D01*
X50999090Y-93034537D01*
X50927069Y-92945204D01*
X50858569Y-92860424D01*
X50794955Y-92781898D01*
X50737588Y-92711326D01*
X50687833Y-92650409D01*
X50647052Y-92600847D01*
X50629888Y-92580178D01*
X50543596Y-92479516D01*
X50466997Y-92396259D01*
X50398183Y-92328438D01*
X50335248Y-92274089D01*
X50325867Y-92266722D01*
X50286356Y-92236117D01*
X51418116Y-92235867D01*
X51412827Y-92283844D01*
X51416130Y-92341188D01*
X51437661Y-92409463D01*
X51477635Y-92489212D01*
X51522943Y-92561495D01*
X51539161Y-92584140D01*
X51567214Y-92621696D01*
X51605430Y-92672021D01*
X51652137Y-92732973D01*
X51705661Y-92802411D01*
X51764331Y-92878194D01*
X51826475Y-92958180D01*
X51890421Y-93040228D01*
X51954495Y-93122196D01*
X52017027Y-93201943D01*
X52076343Y-93277327D01*
X52130771Y-93346207D01*
X52178639Y-93406442D01*
X52218275Y-93455889D01*
X52248006Y-93492408D01*
X52266161Y-93513858D01*
X52269220Y-93517156D01*
X52272079Y-93509149D01*
X52274293Y-93478855D01*
X52275857Y-93426556D01*
X52276767Y-93352531D01*
X52277020Y-93257063D01*
X52276613Y-93140434D01*
X52275704Y-93020445D01*
X52274382Y-92888333D01*
X52272857Y-92776594D01*
X52270881Y-92683025D01*
X52268206Y-92605419D01*
X52264582Y-92541574D01*
X52259761Y-92489283D01*
X52253494Y-92446344D01*
X52245532Y-92410551D01*
X52235627Y-92379700D01*
X52223531Y-92351586D01*
X52208993Y-92324005D01*
X52194311Y-92298966D01*
X52156314Y-92235867D01*
X53216197Y-92235867D01*
X53519034Y-92235867D01*
X53519001Y-92229617D01*
X53518195Y-92127544D01*
X53517170Y-92038633D01*
X53515900Y-91961941D01*
X53514360Y-91896527D01*
X53512524Y-91841449D01*
X53510367Y-91795765D01*
X53507863Y-91758534D01*
X53504987Y-91728813D01*
X53501713Y-91705662D01*
X53498015Y-91688139D01*
X53493869Y-91675301D01*
X53489247Y-91666208D01*
X53484126Y-91659918D01*
X53478478Y-91655488D01*
X53472279Y-91651978D01*
X53465504Y-91648445D01*
X53459508Y-91644876D01*
X53454275Y-91642300D01*
X53446099Y-91639972D01*
X53433886Y-91637878D01*
X53416541Y-91636007D01*
X53392969Y-91634347D01*
X53362077Y-91632884D01*
X53322768Y-91631608D01*
X53273950Y-91630504D01*
X53214527Y-91629561D01*
X53143404Y-91628767D01*
X53059488Y-91628109D01*
X52961683Y-91627575D01*
X52848894Y-91627153D01*
X52720029Y-91626829D01*
X52573991Y-91626592D01*
X52409686Y-91626430D01*
X52226020Y-91626330D01*
X52021897Y-91626280D01*
X51810753Y-91626267D01*
X50190400Y-91626267D01*
X50190400Y-91723054D01*
G36*
X46915571Y-92183071D02*
X46755430Y-92204245D01*
X46591490Y-92244385D01*
X46421687Y-92303889D01*
X46243957Y-92383154D01*
X46232690Y-92388699D01*
X46174995Y-92416725D01*
X46123448Y-92440802D01*
X46081809Y-92459249D01*
X46053838Y-92470386D01*
X46044267Y-92472933D01*
X46025050Y-92477941D01*
X46020439Y-92482147D01*
X46025542Y-92492580D01*
X46041582Y-92518868D01*
X46066712Y-92558257D01*
X46099086Y-92607991D01*
X46136857Y-92665315D01*
X46178178Y-92727476D01*
X46221202Y-92791718D01*
X46264083Y-92855285D01*
X46304974Y-92915425D01*
X46342029Y-92969380D01*
X46373400Y-93014397D01*
X46397241Y-93047721D01*
X46411706Y-93066597D01*
X46413691Y-93068787D01*
X46423809Y-93064138D01*
X46446150Y-93046962D01*
X46476720Y-93020440D01*
X46492464Y-93005964D01*
X46588953Y-92930682D01*
X46695664Y-92875241D01*
X46811168Y-92840141D01*
X46934038Y-92825880D01*
X47003439Y-92827051D01*
X47124577Y-92844212D01*
X47233795Y-92880094D01*
X47331418Y-92934959D01*
X47417772Y-93009070D01*
X47493185Y-93102688D01*
X47557982Y-93216076D01*
X47595399Y-93302667D01*
X47639252Y-93438366D01*
X47671572Y-93585850D01*
X47692443Y-93741314D01*
X47701949Y-93900956D01*
X47700173Y-94060973D01*
X47687197Y-94217561D01*
X47663106Y-94366918D01*
X47627982Y-94505240D01*
X47581908Y-94628724D01*
X47565627Y-94662978D01*
X47497380Y-94777064D01*
X47416921Y-94873557D01*
X47325430Y-94951670D01*
X47224089Y-95010617D01*
X47114080Y-95049612D01*
X46996585Y-95067868D01*
X46955117Y-95069211D01*
X46833559Y-95058290D01*
X46713122Y-95025474D01*
X46595334Y-94971439D01*
X46481723Y-94896865D01*
X46390315Y-94818539D01*
X46343785Y-94774008D01*
X46162517Y-95071271D01*
X46117420Y-95145433D01*
X46076181Y-95213646D01*
X46040265Y-95273459D01*
X46011134Y-95322420D01*
X45990250Y-95358079D01*
X45979076Y-95377984D01*
X45977625Y-95381079D01*
X45985854Y-95390718D01*
X46011433Y-95407999D01*
X46051127Y-95431283D01*
X46101703Y-95458934D01*
X46159926Y-95489315D01*
X46222563Y-95520790D01*
X46286379Y-95551722D01*
X46348140Y-95580473D01*
X46404612Y-95605408D01*
X46452562Y-95624889D01*
X46476014Y-95633318D01*
X46609779Y-95671133D01*
X46747673Y-95696136D01*
X46895378Y-95709140D01*
X47022167Y-95711468D01*
X47090122Y-95710373D01*
X47155723Y-95708275D01*
X47213153Y-95705434D01*
X47256597Y-95702106D01*
X47270702Y-95700422D01*
X47409716Y-95671587D01*
X47551243Y-95626468D01*
X47688725Y-95567750D01*
X47815606Y-95498120D01*
X47893111Y-95445441D01*
X48020519Y-95337239D01*
X48138822Y-95210671D01*
X48245828Y-95068866D01*
X48339348Y-94914951D01*
X48417190Y-94752053D01*
X48461044Y-94634756D01*
X48511292Y-94451128D01*
X48544791Y-94256581D01*
X48561551Y-94055325D01*
X48561584Y-93851568D01*
X48544899Y-93649521D01*
X48511507Y-93453392D01*
X48461420Y-93267391D01*
X48457603Y-93255803D01*
X48394719Y-93093750D01*
X48317972Y-92945832D01*
X48224758Y-92807865D01*
X48112473Y-92675661D01*
X48068608Y-92630399D01*
X47932466Y-92506457D01*
X47792509Y-92403915D01*
X47646589Y-92321656D01*
X47492558Y-92258564D01*
X47328268Y-92213523D01*
X47232711Y-92196033D01*
X47073977Y-92180466D01*
X46915571Y-92183071D01*
X46915571Y-92183071D01*
G37*
X46915571Y-92183071D02*
X46755430Y-92204245D01*
X46591490Y-92244385D01*
X46421687Y-92303889D01*
X46243957Y-92383154D01*
X46232690Y-92388699D01*
X46174995Y-92416725D01*
X46123448Y-92440802D01*
X46081809Y-92459249D01*
X46053838Y-92470386D01*
X46044267Y-92472933D01*
X46025050Y-92477941D01*
X46020439Y-92482147D01*
X46025542Y-92492580D01*
X46041582Y-92518868D01*
X46066712Y-92558257D01*
X46099086Y-92607991D01*
X46136857Y-92665315D01*
X46178178Y-92727476D01*
X46221202Y-92791718D01*
X46264083Y-92855285D01*
X46304974Y-92915425D01*
X46342029Y-92969380D01*
X46373400Y-93014397D01*
X46397241Y-93047721D01*
X46411706Y-93066597D01*
X46413691Y-93068787D01*
X46423809Y-93064138D01*
X46446150Y-93046962D01*
X46476720Y-93020440D01*
X46492464Y-93005964D01*
X46588953Y-92930682D01*
X46695664Y-92875241D01*
X46811168Y-92840141D01*
X46934038Y-92825880D01*
X47003439Y-92827051D01*
X47124577Y-92844212D01*
X47233795Y-92880094D01*
X47331418Y-92934959D01*
X47417772Y-93009070D01*
X47493185Y-93102688D01*
X47557982Y-93216076D01*
X47595399Y-93302667D01*
X47639252Y-93438366D01*
X47671572Y-93585850D01*
X47692443Y-93741314D01*
X47701949Y-93900956D01*
X47700173Y-94060973D01*
X47687197Y-94217561D01*
X47663106Y-94366918D01*
X47627982Y-94505240D01*
X47581908Y-94628724D01*
X47565627Y-94662978D01*
X47497380Y-94777064D01*
X47416921Y-94873557D01*
X47325430Y-94951670D01*
X47224089Y-95010617D01*
X47114080Y-95049612D01*
X46996585Y-95067868D01*
X46955117Y-95069211D01*
X46833559Y-95058290D01*
X46713122Y-95025474D01*
X46595334Y-94971439D01*
X46481723Y-94896865D01*
X46390315Y-94818539D01*
X46343785Y-94774008D01*
X46162517Y-95071271D01*
X46117420Y-95145433D01*
X46076181Y-95213646D01*
X46040265Y-95273459D01*
X46011134Y-95322420D01*
X45990250Y-95358079D01*
X45979076Y-95377984D01*
X45977625Y-95381079D01*
X45985854Y-95390718D01*
X46011433Y-95407999D01*
X46051127Y-95431283D01*
X46101703Y-95458934D01*
X46159926Y-95489315D01*
X46222563Y-95520790D01*
X46286379Y-95551722D01*
X46348140Y-95580473D01*
X46404612Y-95605408D01*
X46452562Y-95624889D01*
X46476014Y-95633318D01*
X46609779Y-95671133D01*
X46747673Y-95696136D01*
X46895378Y-95709140D01*
X47022167Y-95711468D01*
X47090122Y-95710373D01*
X47155723Y-95708275D01*
X47213153Y-95705434D01*
X47256597Y-95702106D01*
X47270702Y-95700422D01*
X47409716Y-95671587D01*
X47551243Y-95626468D01*
X47688725Y-95567750D01*
X47815606Y-95498120D01*
X47893111Y-95445441D01*
X48020519Y-95337239D01*
X48138822Y-95210671D01*
X48245828Y-95068866D01*
X48339348Y-94914951D01*
X48417190Y-94752053D01*
X48461044Y-94634756D01*
X48511292Y-94451128D01*
X48544791Y-94256581D01*
X48561551Y-94055325D01*
X48561584Y-93851568D01*
X48544899Y-93649521D01*
X48511507Y-93453392D01*
X48461420Y-93267391D01*
X48457603Y-93255803D01*
X48394719Y-93093750D01*
X48317972Y-92945832D01*
X48224758Y-92807865D01*
X48112473Y-92675661D01*
X48068608Y-92630399D01*
X47932466Y-92506457D01*
X47792509Y-92403915D01*
X47646589Y-92321656D01*
X47492558Y-92258564D01*
X47328268Y-92213523D01*
X47232711Y-92196033D01*
X47073977Y-92180466D01*
X46915571Y-92183071D01*
G36*
X44570426Y-93100552D02*
X44418508Y-93120567D01*
X44283244Y-93154202D01*
X44163761Y-93201725D01*
X44059185Y-93263405D01*
X43981576Y-93326965D01*
X43912735Y-93401099D01*
X43858994Y-93480871D01*
X43816090Y-93573091D01*
X43800616Y-93616161D01*
X43787756Y-93655142D01*
X43776554Y-93691289D01*
X43766880Y-93726434D01*
X43758604Y-93762410D01*
X43751597Y-93801050D01*
X43745728Y-93844185D01*
X43740869Y-93893649D01*
X43736890Y-93951273D01*
X43733660Y-94018891D01*
X43731051Y-94098334D01*
X43728933Y-94191436D01*
X43727176Y-94300027D01*
X43725651Y-94425942D01*
X43724228Y-94571012D01*
X43722975Y-94713778D01*
X43721649Y-94869968D01*
X43720444Y-95005239D01*
X43719234Y-95121246D01*
X43717894Y-95219645D01*
X43716300Y-95302093D01*
X43714325Y-95370246D01*
X43711844Y-95425760D01*
X43708731Y-95470292D01*
X43704862Y-95505498D01*
X43700111Y-95533034D01*
X43694352Y-95554556D01*
X43687461Y-95571722D01*
X43679311Y-95586186D01*
X43669777Y-95599606D01*
X43658734Y-95613638D01*
X43654434Y-95619071D01*
X43638614Y-95641910D01*
X43631578Y-95657463D01*
X43631556Y-95657922D01*
X43642433Y-95660121D01*
X43673418Y-95662147D01*
X43722043Y-95663942D01*
X43785837Y-95665451D01*
X43862331Y-95666616D01*
X43949056Y-95667380D01*
X44043543Y-95667686D01*
X44054450Y-95667689D01*
X44477343Y-95667689D01*
X44480605Y-95571622D01*
X44483867Y-95475556D01*
X44545956Y-95526543D01*
X44643286Y-95594057D01*
X44753187Y-95648749D01*
X44839651Y-95678978D01*
X44908722Y-95693666D01*
X44992075Y-95703659D01*
X45081841Y-95708646D01*
X45170155Y-95708313D01*
X45249149Y-95702351D01*
X45285378Y-95696638D01*
X45425397Y-95658776D01*
X45551822Y-95603932D01*
X45663740Y-95532924D01*
X45760238Y-95446568D01*
X45840400Y-95345679D01*
X45903313Y-95231076D01*
X45947688Y-95104984D01*
X45960022Y-95048401D01*
X45967632Y-94986202D01*
X45971261Y-94911363D01*
X45971755Y-94877467D01*
X45971690Y-94874282D01*
X45211752Y-94874282D01*
X45202459Y-94949333D01*
X45174272Y-95013160D01*
X45125803Y-95068798D01*
X45120746Y-95073211D01*
X45072452Y-95108037D01*
X45020743Y-95130620D01*
X44960011Y-95142540D01*
X44884648Y-95145383D01*
X44866541Y-95144978D01*
X44812722Y-95142325D01*
X44772692Y-95136909D01*
X44737676Y-95126745D01*
X44698897Y-95109850D01*
X44688255Y-95104672D01*
X44627604Y-95068844D01*
X44580785Y-95026212D01*
X44568048Y-95010973D01*
X44523378Y-94954462D01*
X44523378Y-94758586D01*
X44523914Y-94679939D01*
X44525604Y-94621988D01*
X44528572Y-94582875D01*
X44532943Y-94560741D01*
X44537028Y-94554274D01*
X44552953Y-94551111D01*
X44586736Y-94548488D01*
X44633660Y-94546655D01*
X44689007Y-94545857D01*
X44697894Y-94545842D01*
X44818670Y-94551096D01*
X44921340Y-94567263D01*
X45007894Y-94594961D01*
X45080319Y-94634808D01*
X45135249Y-94681758D01*
X45179796Y-94739645D01*
X45204520Y-94802693D01*
X45211752Y-94874282D01*
X45971690Y-94874282D01*
X45969822Y-94783712D01*
X45961478Y-94704812D01*
X45945232Y-94633590D01*
X45919595Y-94562864D01*
X45895599Y-94510493D01*
X45836980Y-94415196D01*
X45758883Y-94327170D01*
X45663685Y-94248017D01*
X45553762Y-94179340D01*
X45431490Y-94122741D01*
X45299245Y-94079821D01*
X45234578Y-94064882D01*
X45098396Y-94042777D01*
X44949951Y-94028194D01*
X44798495Y-94021813D01*
X44671936Y-94023445D01*
X44510050Y-94030224D01*
X44517470Y-93971245D01*
X44536762Y-93872092D01*
X44567896Y-93791372D01*
X44611731Y-93728466D01*
X44669129Y-93682756D01*
X44740952Y-93653622D01*
X44828059Y-93640447D01*
X44931314Y-93642611D01*
X44969289Y-93646612D01*
X45110480Y-93671780D01*
X45247293Y-93712814D01*
X45341822Y-93750815D01*
X45386982Y-93770190D01*
X45425415Y-93785760D01*
X45451766Y-93795405D01*
X45459454Y-93797452D01*
X45469198Y-93788374D01*
X45485917Y-93759405D01*
X45509768Y-93710217D01*
X45540907Y-93640484D01*
X45579493Y-93549879D01*
X45586090Y-93534089D01*
X45616147Y-93461772D01*
X45643126Y-93396425D01*
X45665864Y-93340906D01*
X45683194Y-93298072D01*
X45693952Y-93270781D01*
X45697059Y-93261942D01*
X45687060Y-93257187D01*
X45660783Y-93251910D01*
X45632511Y-93248231D01*
X45602354Y-93243474D01*
X45554567Y-93234028D01*
X45493388Y-93220820D01*
X45423054Y-93204776D01*
X45347806Y-93186820D01*
X45319245Y-93179797D01*
X45214184Y-93154209D01*
X45126520Y-93134147D01*
X45051932Y-93118969D01*
X44986097Y-93108035D01*
X44924693Y-93100704D01*
X44863398Y-93096335D01*
X44797890Y-93094287D01*
X44739872Y-93093889D01*
X44570426Y-93100552D01*
X44570426Y-93100552D01*
G37*
X44570426Y-93100552D02*
X44418508Y-93120567D01*
X44283244Y-93154202D01*
X44163761Y-93201725D01*
X44059185Y-93263405D01*
X43981576Y-93326965D01*
X43912735Y-93401099D01*
X43858994Y-93480871D01*
X43816090Y-93573091D01*
X43800616Y-93616161D01*
X43787756Y-93655142D01*
X43776554Y-93691289D01*
X43766880Y-93726434D01*
X43758604Y-93762410D01*
X43751597Y-93801050D01*
X43745728Y-93844185D01*
X43740869Y-93893649D01*
X43736890Y-93951273D01*
X43733660Y-94018891D01*
X43731051Y-94098334D01*
X43728933Y-94191436D01*
X43727176Y-94300027D01*
X43725651Y-94425942D01*
X43724228Y-94571012D01*
X43722975Y-94713778D01*
X43721649Y-94869968D01*
X43720444Y-95005239D01*
X43719234Y-95121246D01*
X43717894Y-95219645D01*
X43716300Y-95302093D01*
X43714325Y-95370246D01*
X43711844Y-95425760D01*
X43708731Y-95470292D01*
X43704862Y-95505498D01*
X43700111Y-95533034D01*
X43694352Y-95554556D01*
X43687461Y-95571722D01*
X43679311Y-95586186D01*
X43669777Y-95599606D01*
X43658734Y-95613638D01*
X43654434Y-95619071D01*
X43638614Y-95641910D01*
X43631578Y-95657463D01*
X43631556Y-95657922D01*
X43642433Y-95660121D01*
X43673418Y-95662147D01*
X43722043Y-95663942D01*
X43785837Y-95665451D01*
X43862331Y-95666616D01*
X43949056Y-95667380D01*
X44043543Y-95667686D01*
X44054450Y-95667689D01*
X44477343Y-95667689D01*
X44480605Y-95571622D01*
X44483867Y-95475556D01*
X44545956Y-95526543D01*
X44643286Y-95594057D01*
X44753187Y-95648749D01*
X44839651Y-95678978D01*
X44908722Y-95693666D01*
X44992075Y-95703659D01*
X45081841Y-95708646D01*
X45170155Y-95708313D01*
X45249149Y-95702351D01*
X45285378Y-95696638D01*
X45425397Y-95658776D01*
X45551822Y-95603932D01*
X45663740Y-95532924D01*
X45760238Y-95446568D01*
X45840400Y-95345679D01*
X45903313Y-95231076D01*
X45947688Y-95104984D01*
X45960022Y-95048401D01*
X45967632Y-94986202D01*
X45971261Y-94911363D01*
X45971755Y-94877467D01*
X45971690Y-94874282D01*
X45211752Y-94874282D01*
X45202459Y-94949333D01*
X45174272Y-95013160D01*
X45125803Y-95068798D01*
X45120746Y-95073211D01*
X45072452Y-95108037D01*
X45020743Y-95130620D01*
X44960011Y-95142540D01*
X44884648Y-95145383D01*
X44866541Y-95144978D01*
X44812722Y-95142325D01*
X44772692Y-95136909D01*
X44737676Y-95126745D01*
X44698897Y-95109850D01*
X44688255Y-95104672D01*
X44627604Y-95068844D01*
X44580785Y-95026212D01*
X44568048Y-95010973D01*
X44523378Y-94954462D01*
X44523378Y-94758586D01*
X44523914Y-94679939D01*
X44525604Y-94621988D01*
X44528572Y-94582875D01*
X44532943Y-94560741D01*
X44537028Y-94554274D01*
X44552953Y-94551111D01*
X44586736Y-94548488D01*
X44633660Y-94546655D01*
X44689007Y-94545857D01*
X44697894Y-94545842D01*
X44818670Y-94551096D01*
X44921340Y-94567263D01*
X45007894Y-94594961D01*
X45080319Y-94634808D01*
X45135249Y-94681758D01*
X45179796Y-94739645D01*
X45204520Y-94802693D01*
X45211752Y-94874282D01*
X45971690Y-94874282D01*
X45969822Y-94783712D01*
X45961478Y-94704812D01*
X45945232Y-94633590D01*
X45919595Y-94562864D01*
X45895599Y-94510493D01*
X45836980Y-94415196D01*
X45758883Y-94327170D01*
X45663685Y-94248017D01*
X45553762Y-94179340D01*
X45431490Y-94122741D01*
X45299245Y-94079821D01*
X45234578Y-94064882D01*
X45098396Y-94042777D01*
X44949951Y-94028194D01*
X44798495Y-94021813D01*
X44671936Y-94023445D01*
X44510050Y-94030224D01*
X44517470Y-93971245D01*
X44536762Y-93872092D01*
X44567896Y-93791372D01*
X44611731Y-93728466D01*
X44669129Y-93682756D01*
X44740952Y-93653622D01*
X44828059Y-93640447D01*
X44931314Y-93642611D01*
X44969289Y-93646612D01*
X45110480Y-93671780D01*
X45247293Y-93712814D01*
X45341822Y-93750815D01*
X45386982Y-93770190D01*
X45425415Y-93785760D01*
X45451766Y-93795405D01*
X45459454Y-93797452D01*
X45469198Y-93788374D01*
X45485917Y-93759405D01*
X45509768Y-93710217D01*
X45540907Y-93640484D01*
X45579493Y-93549879D01*
X45586090Y-93534089D01*
X45616147Y-93461772D01*
X45643126Y-93396425D01*
X45665864Y-93340906D01*
X45683194Y-93298072D01*
X45693952Y-93270781D01*
X45697059Y-93261942D01*
X45687060Y-93257187D01*
X45660783Y-93251910D01*
X45632511Y-93248231D01*
X45602354Y-93243474D01*
X45554567Y-93234028D01*
X45493388Y-93220820D01*
X45423054Y-93204776D01*
X45347806Y-93186820D01*
X45319245Y-93179797D01*
X45214184Y-93154209D01*
X45126520Y-93134147D01*
X45051932Y-93118969D01*
X44986097Y-93108035D01*
X44924693Y-93100704D01*
X44863398Y-93096335D01*
X44797890Y-93094287D01*
X44739872Y-93093889D01*
X44570426Y-93100552D01*
G36*
X41057493Y-93706245D02*
X41057474Y-93940662D01*
X41057448Y-94153603D01*
X41057375Y-94346168D01*
X41057218Y-94519459D01*
X41056936Y-94674576D01*
X41056491Y-94812620D01*
X41055844Y-94934692D01*
X41054955Y-95041894D01*
X41053787Y-95135326D01*
X41052299Y-95216090D01*
X41050454Y-95285286D01*
X41048211Y-95344015D01*
X41045531Y-95393379D01*
X41042377Y-95434478D01*
X41038708Y-95468413D01*
X41034487Y-95496286D01*
X41029673Y-95519198D01*
X41024227Y-95538249D01*
X41018112Y-95554540D01*
X41011288Y-95569173D01*
X41003715Y-95583249D01*
X40995355Y-95597868D01*
X40990161Y-95606974D01*
X40955896Y-95667689D01*
X41814045Y-95667689D01*
X41814045Y-95571733D01*
X41814776Y-95528370D01*
X41816728Y-95495205D01*
X41819537Y-95477424D01*
X41820779Y-95475778D01*
X41832201Y-95482662D01*
X41854916Y-95500505D01*
X41877615Y-95519879D01*
X41932200Y-95560614D01*
X42001679Y-95601617D01*
X42078730Y-95639123D01*
X42156035Y-95669364D01*
X42186887Y-95679012D01*
X42255384Y-95693578D01*
X42338236Y-95703539D01*
X42427629Y-95708583D01*
X42515752Y-95708396D01*
X42594793Y-95702666D01*
X42632489Y-95696858D01*
X42770586Y-95658797D01*
X42897887Y-95601073D01*
X43013708Y-95524211D01*
X43117363Y-95428739D01*
X43208167Y-95315179D01*
X43274969Y-95204381D01*
X43329836Y-95087625D01*
X43371837Y-94968276D01*
X43401833Y-94842283D01*
X43420689Y-94705594D01*
X43429268Y-94554158D01*
X43429994Y-94476711D01*
X43427900Y-94419934D01*
X42598783Y-94419934D01*
X42598576Y-94513002D01*
X42595663Y-94600692D01*
X42590000Y-94677772D01*
X42581545Y-94739009D01*
X42578962Y-94751350D01*
X42547160Y-94858633D01*
X42505502Y-94945658D01*
X42453637Y-95012642D01*
X42391219Y-95059805D01*
X42317900Y-95087365D01*
X42233331Y-95095541D01*
X42137165Y-95084551D01*
X42073689Y-95068829D01*
X42024546Y-95050639D01*
X41970417Y-95024791D01*
X41929756Y-95001089D01*
X41859200Y-94954721D01*
X41859200Y-93804530D01*
X41926608Y-93760962D01*
X42005133Y-93720040D01*
X42089319Y-93693389D01*
X42174443Y-93681465D01*
X42255784Y-93684722D01*
X42328620Y-93703615D01*
X42360574Y-93719184D01*
X42418499Y-93762181D01*
X42467456Y-93818953D01*
X42508610Y-93891575D01*
X42543126Y-93982121D01*
X42572167Y-94092666D01*
X42573448Y-94098533D01*
X42583619Y-94160788D01*
X42591261Y-94238594D01*
X42596330Y-94326720D01*
X42598783Y-94419934D01*
X43427900Y-94419934D01*
X43422143Y-94263895D01*
X43400198Y-94068059D01*
X43364214Y-93889332D01*
X43314241Y-93727845D01*
X43250332Y-93583726D01*
X43172538Y-93457106D01*
X43080911Y-93348115D01*
X42975503Y-93256883D01*
X42930338Y-93225932D01*
X42829389Y-93169785D01*
X42726099Y-93130174D01*
X42616011Y-93106014D01*
X42494670Y-93096219D01*
X42402164Y-93097265D01*
X42272510Y-93108231D01*
X42159916Y-93130046D01*
X42061125Y-93163714D01*
X41972879Y-93210236D01*
X41924014Y-93244448D01*
X41894647Y-93266362D01*
X41872957Y-93281333D01*
X41864747Y-93285733D01*
X41863132Y-93274904D01*
X41861841Y-93244251D01*
X41860862Y-93196526D01*
X41860183Y-93134479D01*
X41859790Y-93060862D01*
X41859670Y-92978427D01*
X41859812Y-92889925D01*
X41860203Y-92798107D01*
X41860829Y-92705724D01*
X41861680Y-92615528D01*
X41862740Y-92530271D01*
X41863999Y-92452703D01*
X41865444Y-92385576D01*
X41867062Y-92331641D01*
X41868839Y-92293650D01*
X41869331Y-92286667D01*
X41876908Y-92216251D01*
X41888469Y-92161102D01*
X41906208Y-92113981D01*
X41932318Y-92067647D01*
X41938585Y-92058067D01*
X41963017Y-92021378D01*
X41057689Y-92021378D01*
X41057493Y-93706245D01*
X41057493Y-93706245D01*
G37*
X41057493Y-93706245D02*
X41057474Y-93940662D01*
X41057448Y-94153603D01*
X41057375Y-94346168D01*
X41057218Y-94519459D01*
X41056936Y-94674576D01*
X41056491Y-94812620D01*
X41055844Y-94934692D01*
X41054955Y-95041894D01*
X41053787Y-95135326D01*
X41052299Y-95216090D01*
X41050454Y-95285286D01*
X41048211Y-95344015D01*
X41045531Y-95393379D01*
X41042377Y-95434478D01*
X41038708Y-95468413D01*
X41034487Y-95496286D01*
X41029673Y-95519198D01*
X41024227Y-95538249D01*
X41018112Y-95554540D01*
X41011288Y-95569173D01*
X41003715Y-95583249D01*
X40995355Y-95597868D01*
X40990161Y-95606974D01*
X40955896Y-95667689D01*
X41814045Y-95667689D01*
X41814045Y-95571733D01*
X41814776Y-95528370D01*
X41816728Y-95495205D01*
X41819537Y-95477424D01*
X41820779Y-95475778D01*
X41832201Y-95482662D01*
X41854916Y-95500505D01*
X41877615Y-95519879D01*
X41932200Y-95560614D01*
X42001679Y-95601617D01*
X42078730Y-95639123D01*
X42156035Y-95669364D01*
X42186887Y-95679012D01*
X42255384Y-95693578D01*
X42338236Y-95703539D01*
X42427629Y-95708583D01*
X42515752Y-95708396D01*
X42594793Y-95702666D01*
X42632489Y-95696858D01*
X42770586Y-95658797D01*
X42897887Y-95601073D01*
X43013708Y-95524211D01*
X43117363Y-95428739D01*
X43208167Y-95315179D01*
X43274969Y-95204381D01*
X43329836Y-95087625D01*
X43371837Y-94968276D01*
X43401833Y-94842283D01*
X43420689Y-94705594D01*
X43429268Y-94554158D01*
X43429994Y-94476711D01*
X43427900Y-94419934D01*
X42598783Y-94419934D01*
X42598576Y-94513002D01*
X42595663Y-94600692D01*
X42590000Y-94677772D01*
X42581545Y-94739009D01*
X42578962Y-94751350D01*
X42547160Y-94858633D01*
X42505502Y-94945658D01*
X42453637Y-95012642D01*
X42391219Y-95059805D01*
X42317900Y-95087365D01*
X42233331Y-95095541D01*
X42137165Y-95084551D01*
X42073689Y-95068829D01*
X42024546Y-95050639D01*
X41970417Y-95024791D01*
X41929756Y-95001089D01*
X41859200Y-94954721D01*
X41859200Y-93804530D01*
X41926608Y-93760962D01*
X42005133Y-93720040D01*
X42089319Y-93693389D01*
X42174443Y-93681465D01*
X42255784Y-93684722D01*
X42328620Y-93703615D01*
X42360574Y-93719184D01*
X42418499Y-93762181D01*
X42467456Y-93818953D01*
X42508610Y-93891575D01*
X42543126Y-93982121D01*
X42572167Y-94092666D01*
X42573448Y-94098533D01*
X42583619Y-94160788D01*
X42591261Y-94238594D01*
X42596330Y-94326720D01*
X42598783Y-94419934D01*
X43427900Y-94419934D01*
X43422143Y-94263895D01*
X43400198Y-94068059D01*
X43364214Y-93889332D01*
X43314241Y-93727845D01*
X43250332Y-93583726D01*
X43172538Y-93457106D01*
X43080911Y-93348115D01*
X42975503Y-93256883D01*
X42930338Y-93225932D01*
X42829389Y-93169785D01*
X42726099Y-93130174D01*
X42616011Y-93106014D01*
X42494670Y-93096219D01*
X42402164Y-93097265D01*
X42272510Y-93108231D01*
X42159916Y-93130046D01*
X42061125Y-93163714D01*
X41972879Y-93210236D01*
X41924014Y-93244448D01*
X41894647Y-93266362D01*
X41872957Y-93281333D01*
X41864747Y-93285733D01*
X41863132Y-93274904D01*
X41861841Y-93244251D01*
X41860862Y-93196526D01*
X41860183Y-93134479D01*
X41859790Y-93060862D01*
X41859670Y-92978427D01*
X41859812Y-92889925D01*
X41860203Y-92798107D01*
X41860829Y-92705724D01*
X41861680Y-92615528D01*
X41862740Y-92530271D01*
X41863999Y-92452703D01*
X41865444Y-92385576D01*
X41867062Y-92331641D01*
X41868839Y-92293650D01*
X41869331Y-92286667D01*
X41876908Y-92216251D01*
X41888469Y-92161102D01*
X41906208Y-92113981D01*
X41932318Y-92067647D01*
X41938585Y-92058067D01*
X41963017Y-92021378D01*
X41057689Y-92021378D01*
X41057493Y-93706245D01*
G36*
X49517043Y-91260571D02*
X49420768Y-91284809D01*
X49334184Y-91327641D01*
X49259373Y-91387419D01*
X49198418Y-91462494D01*
X49153399Y-91551220D01*
X49127136Y-91647530D01*
X49121286Y-91744795D01*
X49136140Y-91838654D01*
X49169840Y-91926511D01*
X49220528Y-92005770D01*
X49286345Y-92073836D01*
X49365434Y-92128112D01*
X49455934Y-92166002D01*
X49507200Y-92178426D01*
X49551698Y-92185947D01*
X49585999Y-92188919D01*
X49618960Y-92187094D01*
X49659434Y-92180225D01*
X49692531Y-92173250D01*
X49785947Y-92141741D01*
X49869619Y-92090617D01*
X49941665Y-92021429D01*
X50000200Y-91935728D01*
X50014148Y-91908489D01*
X50030586Y-91872122D01*
X50040894Y-91841582D01*
X50046460Y-91809450D01*
X50048669Y-91768307D01*
X50048948Y-91722222D01*
X50044861Y-91637865D01*
X50031446Y-91568586D01*
X50006256Y-91507961D01*
X49966846Y-91449567D01*
X49928298Y-91405302D01*
X49856406Y-91339484D01*
X49781313Y-91294053D01*
X49698562Y-91266850D01*
X49620928Y-91256576D01*
X49517043Y-91260571D01*
X49517043Y-91260571D01*
G37*
X49517043Y-91260571D02*
X49420768Y-91284809D01*
X49334184Y-91327641D01*
X49259373Y-91387419D01*
X49198418Y-91462494D01*
X49153399Y-91551220D01*
X49127136Y-91647530D01*
X49121286Y-91744795D01*
X49136140Y-91838654D01*
X49169840Y-91926511D01*
X49220528Y-92005770D01*
X49286345Y-92073836D01*
X49365434Y-92128112D01*
X49455934Y-92166002D01*
X49507200Y-92178426D01*
X49551698Y-92185947D01*
X49585999Y-92188919D01*
X49618960Y-92187094D01*
X49659434Y-92180225D01*
X49692531Y-92173250D01*
X49785947Y-92141741D01*
X49869619Y-92090617D01*
X49941665Y-92021429D01*
X50000200Y-91935728D01*
X50014148Y-91908489D01*
X50030586Y-91872122D01*
X50040894Y-91841582D01*
X50046460Y-91809450D01*
X50048669Y-91768307D01*
X50048948Y-91722222D01*
X50044861Y-91637865D01*
X50031446Y-91568586D01*
X50006256Y-91507961D01*
X49966846Y-91449567D01*
X49928298Y-91405302D01*
X49856406Y-91339484D01*
X49781313Y-91294053D01*
X49698562Y-91266850D01*
X49620928Y-91256576D01*
X49517043Y-91260571D01*
D11*
X39286500Y-83070000D02*
X36786500Y-83070000D01*
X36786500Y-83070000D02*
X36786500Y-84570000D01*
X36786500Y-84570000D02*
X39286500Y-84570000D01*
X39286500Y-84570000D02*
X39286500Y-83070000D01*
X65150857Y-90804762D02*
X65008000Y-90852381D01*
X64769904Y-90852381D01*
X64674666Y-90804762D01*
X64627047Y-90757143D01*
X64579428Y-90661905D01*
X64579428Y-90566667D01*
X64627047Y-90471429D01*
X64674666Y-90423810D01*
X64769904Y-90376190D01*
X64960381Y-90328571D01*
X65055619Y-90280952D01*
X65103238Y-90233333D01*
X65150857Y-90138095D01*
X65150857Y-90042857D01*
X65103238Y-89947619D01*
X65055619Y-89900000D01*
X64960381Y-89852381D01*
X64722285Y-89852381D01*
X64579428Y-89900000D01*
X63865142Y-89852381D02*
X63865142Y-90566667D01*
X63912762Y-90709524D01*
X64008000Y-90804762D01*
X64150857Y-90852381D01*
X64246095Y-90852381D01*
X62865142Y-90852381D02*
X63436571Y-90852381D01*
X63150857Y-90852381D02*
X63150857Y-89852381D01*
X63246095Y-89995238D01*
X63341333Y-90090476D01*
X63436571Y-90138095D01*
X53212857Y-89534762D02*
X53070000Y-89582381D01*
X52831904Y-89582381D01*
X52736666Y-89534762D01*
X52689047Y-89487143D01*
X52641428Y-89391905D01*
X52641428Y-89296667D01*
X52689047Y-89201429D01*
X52736666Y-89153810D01*
X52831904Y-89106190D01*
X53022381Y-89058571D01*
X53117619Y-89010952D01*
X53165238Y-88963333D01*
X53212857Y-88868095D01*
X53212857Y-88772857D01*
X53165238Y-88677619D01*
X53117619Y-88630000D01*
X53022381Y-88582381D01*
X52784285Y-88582381D01*
X52641428Y-88630000D01*
X51927142Y-88582381D02*
X51927142Y-89296667D01*
X51974762Y-89439524D01*
X52070000Y-89534762D01*
X52212857Y-89582381D01*
X52308095Y-89582381D01*
X51498571Y-88677619D02*
X51450952Y-88630000D01*
X51355714Y-88582381D01*
X51117618Y-88582381D01*
X51022380Y-88630000D01*
X50974761Y-88677619D01*
X50927142Y-88772857D01*
X50927142Y-88868095D01*
X50974761Y-89010952D01*
X51546190Y-89582381D01*
X50927142Y-89582381D01*
X39242857Y-82827762D02*
X39100000Y-82875381D01*
X38861904Y-82875381D01*
X38766666Y-82827762D01*
X38719047Y-82780143D01*
X38671428Y-82684905D01*
X38671428Y-82589667D01*
X38719047Y-82494429D01*
X38766666Y-82446810D01*
X38861904Y-82399190D01*
X39052381Y-82351571D01*
X39147619Y-82303952D01*
X39195238Y-82256333D01*
X39242857Y-82161095D01*
X39242857Y-82065857D01*
X39195238Y-81970619D01*
X39147619Y-81923000D01*
X39052381Y-81875381D01*
X38814285Y-81875381D01*
X38671428Y-81923000D01*
X37957142Y-81875381D02*
X37957142Y-82589667D01*
X38004762Y-82732524D01*
X38100000Y-82827762D01*
X38242857Y-82875381D01*
X38338095Y-82875381D01*
X37576190Y-81875381D02*
X36957142Y-81875381D01*
X37290476Y-82256333D01*
X37147618Y-82256333D01*
X37052380Y-82303952D01*
X37004761Y-82351571D01*
X36957142Y-82446810D01*
X36957142Y-82684905D01*
X37004761Y-82780143D01*
X37052380Y-82827762D01*
X37147618Y-82875381D01*
X37433333Y-82875381D01*
X37528571Y-82827762D01*
X37576190Y-82780143D01*
M02*
