G04 #@! TF.FileFunction,Copper,L2,Bot,Signal*
%FSLAX46Y46*%
G04 Gerber Fmt 4.6, Leading zero omitted, Abs format (unit mm)*
G04 Created by KiCad (PCBNEW 4.0.7) date 06/19/18 09:28:48*
%MOMM*%
%LPD*%
G01*
G04 APERTURE LIST*
%ADD10C,0.100000*%
%ADD11C,0.300000*%
%ADD12C,0.010000*%
%ADD13R,1.400000X2.000000*%
%ADD14O,1.400000X2.000000*%
%ADD15C,1.500000*%
%ADD16R,1.500000X1.500000*%
%ADD17C,1.800000*%
%ADD18R,1.800000X1.800000*%
%ADD19R,1.500000X2.000000*%
%ADD20O,1.500000X2.000000*%
%ADD21R,2.000000X1.500000*%
%ADD22O,2.000000X1.500000*%
%ADD23R,1.750000X1.750000*%
%ADD24C,1.750000*%
%ADD25R,0.700000X0.900000*%
%ADD26C,2.000000*%
%ADD27R,2.000000X1.400000*%
%ADD28O,2.000000X1.400000*%
%ADD29O,1.000000X1.400000*%
%ADD30R,1.000000X1.400000*%
%ADD31C,1.200000*%
%ADD32C,0.700000*%
%ADD33C,0.762000*%
%ADD34C,0.254000*%
%ADD35C,0.177800*%
%ADD36C,1.016000*%
%ADD37C,0.508000*%
G04 APERTURE END LIST*
D10*
D11*
X127766000Y-73476856D02*
X127766000Y-72762570D01*
X127337429Y-73619713D02*
X128837429Y-73119713D01*
X127337429Y-72619713D01*
X128837429Y-71833999D02*
X128837429Y-71691142D01*
X128766000Y-71548285D01*
X128694571Y-71476856D01*
X128551714Y-71405427D01*
X128266000Y-71333999D01*
X127908857Y-71333999D01*
X127623143Y-71405427D01*
X127480286Y-71476856D01*
X127408857Y-71548285D01*
X127337429Y-71691142D01*
X127337429Y-71833999D01*
X127408857Y-71976856D01*
X127480286Y-72048285D01*
X127623143Y-72119713D01*
X127908857Y-72191142D01*
X128266000Y-72191142D01*
X128551714Y-72119713D01*
X128694571Y-72048285D01*
X128766000Y-71976856D01*
X128837429Y-71833999D01*
X128337429Y-70048285D02*
X127337429Y-70048285D01*
X128908857Y-70405428D02*
X127837429Y-70762571D01*
X127837429Y-69833999D01*
X128837429Y-68976857D02*
X128837429Y-68834000D01*
X128766000Y-68691143D01*
X128694571Y-68619714D01*
X128551714Y-68548285D01*
X128266000Y-68476857D01*
X127908857Y-68476857D01*
X127623143Y-68548285D01*
X127480286Y-68619714D01*
X127408857Y-68691143D01*
X127337429Y-68834000D01*
X127337429Y-68976857D01*
X127408857Y-69119714D01*
X127480286Y-69191143D01*
X127623143Y-69262571D01*
X127908857Y-69334000D01*
X128266000Y-69334000D01*
X128551714Y-69262571D01*
X128694571Y-69191143D01*
X128766000Y-69119714D01*
X128837429Y-68976857D01*
X128837429Y-67191143D02*
X128837429Y-67476857D01*
X128766000Y-67619714D01*
X128694571Y-67691143D01*
X128480286Y-67834000D01*
X128194571Y-67905429D01*
X127623143Y-67905429D01*
X127480286Y-67834000D01*
X127408857Y-67762572D01*
X127337429Y-67619714D01*
X127337429Y-67334000D01*
X127408857Y-67191143D01*
X127480286Y-67119714D01*
X127623143Y-67048286D01*
X127980286Y-67048286D01*
X128123143Y-67119714D01*
X128194571Y-67191143D01*
X128266000Y-67334000D01*
X128266000Y-67619714D01*
X128194571Y-67762572D01*
X128123143Y-67834000D01*
X127980286Y-67905429D01*
X127337429Y-65619715D02*
X127337429Y-66476858D01*
X127337429Y-66048286D02*
X128837429Y-66048286D01*
X128623143Y-66191143D01*
X128480286Y-66334001D01*
X128408857Y-66476858D01*
X128194571Y-64762572D02*
X128266000Y-64905430D01*
X128337429Y-64976858D01*
X128480286Y-65048287D01*
X128551714Y-65048287D01*
X128694571Y-64976858D01*
X128766000Y-64905430D01*
X128837429Y-64762572D01*
X128837429Y-64476858D01*
X128766000Y-64334001D01*
X128694571Y-64262572D01*
X128551714Y-64191144D01*
X128480286Y-64191144D01*
X128337429Y-64262572D01*
X128266000Y-64334001D01*
X128194571Y-64476858D01*
X128194571Y-64762572D01*
X128123143Y-64905430D01*
X128051714Y-64976858D01*
X127908857Y-65048287D01*
X127623143Y-65048287D01*
X127480286Y-64976858D01*
X127408857Y-64905430D01*
X127337429Y-64762572D01*
X127337429Y-64476858D01*
X127408857Y-64334001D01*
X127480286Y-64262572D01*
X127623143Y-64191144D01*
X127908857Y-64191144D01*
X128051714Y-64262572D01*
X128123143Y-64334001D01*
X128194571Y-64476858D01*
D12*
G36*
X128811234Y-74411273D02*
X128779628Y-74379667D01*
X128397289Y-74379667D01*
X128290105Y-74379798D01*
X128202100Y-74380332D01*
X128131284Y-74381477D01*
X128075670Y-74383443D01*
X128033271Y-74386439D01*
X128002097Y-74390675D01*
X127980161Y-74396360D01*
X127965475Y-74403703D01*
X127956051Y-74412915D01*
X127949901Y-74424203D01*
X127948823Y-74426901D01*
X127944777Y-74431590D01*
X127935180Y-74435300D01*
X127917842Y-74438141D01*
X127890573Y-74440223D01*
X127851182Y-74441656D01*
X127797479Y-74442551D01*
X127727274Y-74443017D01*
X127638376Y-74443166D01*
X127625438Y-74443167D01*
X127543828Y-74443496D01*
X127468337Y-74444428D01*
X127401814Y-74445879D01*
X127347110Y-74447765D01*
X127307075Y-74450003D01*
X127284559Y-74452509D01*
X127281784Y-74453247D01*
X127257677Y-74472542D01*
X127244112Y-74503517D01*
X127241312Y-74524263D01*
X127238929Y-74562337D01*
X127236988Y-74613901D01*
X127235515Y-74675121D01*
X127234536Y-74742161D01*
X127234076Y-74811184D01*
X127234162Y-74878356D01*
X127234818Y-74939839D01*
X127236071Y-74991798D01*
X127237946Y-75030398D01*
X127240445Y-75051709D01*
X127257278Y-75085369D01*
X127285304Y-75105903D01*
X127306343Y-75109917D01*
X127327198Y-75104271D01*
X127360882Y-75088837D01*
X127402818Y-75065871D01*
X127433543Y-75047210D01*
X127505730Y-75005130D01*
X127564720Y-74978550D01*
X127611385Y-74967158D01*
X127646598Y-74970639D01*
X127646922Y-74970758D01*
X127656804Y-74975392D01*
X127663603Y-74983102D01*
X127667968Y-74997518D01*
X127670547Y-75022269D01*
X127671991Y-75060986D01*
X127672932Y-75116231D01*
X127678656Y-75232374D01*
X127692636Y-75330487D01*
X127715374Y-75412239D01*
X127747373Y-75479295D01*
X127789137Y-75533324D01*
X127802762Y-75546447D01*
X127844393Y-75576211D01*
X127891329Y-75597750D01*
X127934791Y-75607149D01*
X127939130Y-75607275D01*
X127942878Y-75602525D01*
X127945994Y-75587140D01*
X127948550Y-75559474D01*
X127950620Y-75517883D01*
X127952276Y-75460719D01*
X127953594Y-75386337D01*
X127954644Y-75293091D01*
X127955005Y-75250288D01*
X127955826Y-75153653D01*
X127956702Y-75076080D01*
X127957758Y-75015465D01*
X127959118Y-74969704D01*
X127960907Y-74936691D01*
X127963249Y-74914322D01*
X127966268Y-74900494D01*
X127970089Y-74893101D01*
X127974836Y-74890040D01*
X127976313Y-74889679D01*
X127980965Y-74889842D01*
X127984769Y-74893571D01*
X127987808Y-74902774D01*
X127990168Y-74919363D01*
X127991934Y-74945246D01*
X127993192Y-74982333D01*
X127994025Y-75032535D01*
X127994519Y-75097761D01*
X127994760Y-75179921D01*
X127994832Y-75280925D01*
X127994833Y-75305414D01*
X127994833Y-75724713D01*
X128020811Y-75750690D01*
X128054565Y-75772632D01*
X128089732Y-75775520D01*
X128121660Y-75759434D01*
X128131649Y-75748782D01*
X128137452Y-75740707D01*
X128142130Y-75731295D01*
X128145804Y-75718330D01*
X128148596Y-75699598D01*
X128150626Y-75672882D01*
X128152015Y-75635968D01*
X128152884Y-75586642D01*
X128153354Y-75522687D01*
X128153547Y-75441889D01*
X128153583Y-75347304D01*
X128153859Y-75258325D01*
X128154644Y-75175675D01*
X128155875Y-75101907D01*
X128157488Y-75039576D01*
X128159420Y-74991237D01*
X128161606Y-74959443D01*
X128163518Y-74947581D01*
X128178931Y-74920631D01*
X128197264Y-74899267D01*
X128205284Y-74892566D01*
X128214939Y-74887369D01*
X128228825Y-74883487D01*
X128249539Y-74880727D01*
X128279677Y-74878899D01*
X128321836Y-74877812D01*
X128378612Y-74877275D01*
X128452603Y-74877098D01*
X128498947Y-74877084D01*
X128776820Y-74877084D01*
X128836208Y-74826046D01*
X128842840Y-74442878D01*
X128811234Y-74411273D01*
X128811234Y-74411273D01*
G37*
X128811234Y-74411273D02*
X128779628Y-74379667D01*
X128397289Y-74379667D01*
X128290105Y-74379798D01*
X128202100Y-74380332D01*
X128131284Y-74381477D01*
X128075670Y-74383443D01*
X128033271Y-74386439D01*
X128002097Y-74390675D01*
X127980161Y-74396360D01*
X127965475Y-74403703D01*
X127956051Y-74412915D01*
X127949901Y-74424203D01*
X127948823Y-74426901D01*
X127944777Y-74431590D01*
X127935180Y-74435300D01*
X127917842Y-74438141D01*
X127890573Y-74440223D01*
X127851182Y-74441656D01*
X127797479Y-74442551D01*
X127727274Y-74443017D01*
X127638376Y-74443166D01*
X127625438Y-74443167D01*
X127543828Y-74443496D01*
X127468337Y-74444428D01*
X127401814Y-74445879D01*
X127347110Y-74447765D01*
X127307075Y-74450003D01*
X127284559Y-74452509D01*
X127281784Y-74453247D01*
X127257677Y-74472542D01*
X127244112Y-74503517D01*
X127241312Y-74524263D01*
X127238929Y-74562337D01*
X127236988Y-74613901D01*
X127235515Y-74675121D01*
X127234536Y-74742161D01*
X127234076Y-74811184D01*
X127234162Y-74878356D01*
X127234818Y-74939839D01*
X127236071Y-74991798D01*
X127237946Y-75030398D01*
X127240445Y-75051709D01*
X127257278Y-75085369D01*
X127285304Y-75105903D01*
X127306343Y-75109917D01*
X127327198Y-75104271D01*
X127360882Y-75088837D01*
X127402818Y-75065871D01*
X127433543Y-75047210D01*
X127505730Y-75005130D01*
X127564720Y-74978550D01*
X127611385Y-74967158D01*
X127646598Y-74970639D01*
X127646922Y-74970758D01*
X127656804Y-74975392D01*
X127663603Y-74983102D01*
X127667968Y-74997518D01*
X127670547Y-75022269D01*
X127671991Y-75060986D01*
X127672932Y-75116231D01*
X127678656Y-75232374D01*
X127692636Y-75330487D01*
X127715374Y-75412239D01*
X127747373Y-75479295D01*
X127789137Y-75533324D01*
X127802762Y-75546447D01*
X127844393Y-75576211D01*
X127891329Y-75597750D01*
X127934791Y-75607149D01*
X127939130Y-75607275D01*
X127942878Y-75602525D01*
X127945994Y-75587140D01*
X127948550Y-75559474D01*
X127950620Y-75517883D01*
X127952276Y-75460719D01*
X127953594Y-75386337D01*
X127954644Y-75293091D01*
X127955005Y-75250288D01*
X127955826Y-75153653D01*
X127956702Y-75076080D01*
X127957758Y-75015465D01*
X127959118Y-74969704D01*
X127960907Y-74936691D01*
X127963249Y-74914322D01*
X127966268Y-74900494D01*
X127970089Y-74893101D01*
X127974836Y-74890040D01*
X127976313Y-74889679D01*
X127980965Y-74889842D01*
X127984769Y-74893571D01*
X127987808Y-74902774D01*
X127990168Y-74919363D01*
X127991934Y-74945246D01*
X127993192Y-74982333D01*
X127994025Y-75032535D01*
X127994519Y-75097761D01*
X127994760Y-75179921D01*
X127994832Y-75280925D01*
X127994833Y-75305414D01*
X127994833Y-75724713D01*
X128020811Y-75750690D01*
X128054565Y-75772632D01*
X128089732Y-75775520D01*
X128121660Y-75759434D01*
X128131649Y-75748782D01*
X128137452Y-75740707D01*
X128142130Y-75731295D01*
X128145804Y-75718330D01*
X128148596Y-75699598D01*
X128150626Y-75672882D01*
X128152015Y-75635968D01*
X128152884Y-75586642D01*
X128153354Y-75522687D01*
X128153547Y-75441889D01*
X128153583Y-75347304D01*
X128153859Y-75258325D01*
X128154644Y-75175675D01*
X128155875Y-75101907D01*
X128157488Y-75039576D01*
X128159420Y-74991237D01*
X128161606Y-74959443D01*
X128163518Y-74947581D01*
X128178931Y-74920631D01*
X128197264Y-74899267D01*
X128205284Y-74892566D01*
X128214939Y-74887369D01*
X128228825Y-74883487D01*
X128249539Y-74880727D01*
X128279677Y-74878899D01*
X128321836Y-74877812D01*
X128378612Y-74877275D01*
X128452603Y-74877098D01*
X128498947Y-74877084D01*
X128776820Y-74877084D01*
X128836208Y-74826046D01*
X128842840Y-74442878D01*
X128811234Y-74411273D01*
G36*
X129248276Y-76173542D02*
X129041582Y-76046542D01*
X129044729Y-75945713D01*
X129047146Y-75894651D01*
X129051743Y-75857150D01*
X129060194Y-75825610D01*
X129074171Y-75792432D01*
X129081991Y-75776380D01*
X129116614Y-75710876D01*
X129149153Y-75657001D01*
X129178115Y-75616862D01*
X129202012Y-75592564D01*
X129216850Y-75585935D01*
X129262565Y-75575930D01*
X129309303Y-75549606D01*
X129352587Y-75511084D01*
X129387943Y-75464487D01*
X129410895Y-75413935D01*
X129413293Y-75405031D01*
X129420823Y-75340036D01*
X129410507Y-75279591D01*
X129381653Y-75222634D01*
X129333569Y-75168101D01*
X129265563Y-75114928D01*
X129197421Y-75073254D01*
X129088161Y-75020109D01*
X128977142Y-74982906D01*
X128859516Y-74960458D01*
X128730437Y-74951576D01*
X128700340Y-74951324D01*
X128607462Y-74954223D01*
X128528881Y-74963456D01*
X128458363Y-74980195D01*
X128389676Y-75005615D01*
X128373267Y-75012911D01*
X128321216Y-75039552D01*
X128281140Y-75068059D01*
X128251376Y-75101667D01*
X128230261Y-75143613D01*
X128216131Y-75197134D01*
X128207323Y-75265465D01*
X128202444Y-75345277D01*
X128197204Y-75445285D01*
X128190324Y-75539419D01*
X128182159Y-75624124D01*
X128173067Y-75695846D01*
X128163404Y-75751031D01*
X128160423Y-75763924D01*
X128152149Y-75791847D01*
X128140994Y-75809117D01*
X128121034Y-75821626D01*
X128090083Y-75833891D01*
X128066772Y-75841604D01*
X128042318Y-75847261D01*
X128012977Y-75851177D01*
X127975002Y-75853666D01*
X127924649Y-75855044D01*
X127858172Y-75855626D01*
X127830792Y-75855699D01*
X127756537Y-75855285D01*
X127679171Y-75853920D01*
X127605245Y-75851782D01*
X127541310Y-75849050D01*
X127505782Y-75846862D01*
X127381856Y-75837683D01*
X127349678Y-75869861D01*
X127323703Y-75908231D01*
X127316229Y-75949822D01*
X127327435Y-75989849D01*
X127344380Y-76012327D01*
X127373897Y-76030852D01*
X127422166Y-76047518D01*
X127486830Y-76062025D01*
X127565532Y-76074075D01*
X127655914Y-76083370D01*
X127755620Y-76089610D01*
X127862291Y-76092496D01*
X127971463Y-76091781D01*
X128045599Y-76089824D01*
X128102258Y-76087594D01*
X128145130Y-76084702D01*
X128177905Y-76080758D01*
X128204271Y-76075371D01*
X128227918Y-76068151D01*
X128241061Y-76063274D01*
X128286453Y-76043264D01*
X128322630Y-76020507D01*
X128351246Y-75992093D01*
X128373956Y-75955109D01*
X128392414Y-75906646D01*
X128408273Y-75843790D01*
X128423188Y-75763633D01*
X128427955Y-75734334D01*
X128438314Y-75676135D01*
X128449976Y-75621904D01*
X128461631Y-75577160D01*
X128471969Y-75547422D01*
X128472735Y-75545781D01*
X128507606Y-75497322D01*
X128558426Y-75460742D01*
X128619250Y-75438779D01*
X128660237Y-75432335D01*
X128709386Y-75428716D01*
X128758594Y-75428122D01*
X128799757Y-75430756D01*
X128816808Y-75433858D01*
X128828087Y-75437951D01*
X128831531Y-75445062D01*
X128826049Y-75459374D01*
X128810553Y-75485070D01*
X128798635Y-75503607D01*
X128743943Y-75606401D01*
X128709771Y-75714033D01*
X128695997Y-75827048D01*
X128701573Y-75938928D01*
X128714779Y-76021585D01*
X128731495Y-76084906D01*
X128752701Y-76130572D01*
X128779377Y-76160263D01*
X128812502Y-76175657D01*
X128841484Y-76178834D01*
X128880265Y-76171600D01*
X128908849Y-76150932D01*
X128926830Y-76127116D01*
X128935346Y-76098407D01*
X128934677Y-76060492D01*
X128925106Y-76009058D01*
X128919571Y-75986543D01*
X128906595Y-75905469D01*
X128907187Y-75822056D01*
X128920363Y-75740980D01*
X128945141Y-75666920D01*
X128980538Y-75604552D01*
X129006017Y-75575123D01*
X129029232Y-75554597D01*
X129044311Y-75547989D01*
X129056791Y-75553063D01*
X129058060Y-75554086D01*
X129066067Y-75563996D01*
X129063577Y-75576219D01*
X129048679Y-75595912D01*
X129038200Y-75607722D01*
X128990402Y-75674016D01*
X128960651Y-75747804D01*
X128948721Y-75830385D01*
X128954381Y-75923060D01*
X128969526Y-75997981D01*
X128980106Y-76041387D01*
X128985398Y-76070746D01*
X128985603Y-76092456D01*
X128980922Y-76112911D01*
X128973775Y-76132727D01*
X128946399Y-76178224D01*
X128907320Y-76209166D01*
X128860978Y-76224690D01*
X128811809Y-76223934D01*
X128764251Y-76206036D01*
X128731323Y-76179824D01*
X128705809Y-76141512D01*
X128684242Y-76085492D01*
X128667520Y-76015002D01*
X128656542Y-75933280D01*
X128654165Y-75901669D01*
X128647994Y-75799129D01*
X128595877Y-75766731D01*
X128560466Y-75745738D01*
X128538951Y-75736742D01*
X128527897Y-75739587D01*
X128523870Y-75754115D01*
X128523453Y-75763438D01*
X128522237Y-75782196D01*
X128519135Y-75818540D01*
X128514471Y-75869005D01*
X128508570Y-75930126D01*
X128501755Y-75998439D01*
X128498470Y-76030667D01*
X128490191Y-76114774D01*
X128484652Y-76179634D01*
X128481764Y-76226979D01*
X128481439Y-76258541D01*
X128483589Y-76276049D01*
X128485788Y-76280309D01*
X128496348Y-76287664D01*
X128522235Y-76304647D01*
X128560858Y-76329613D01*
X128609630Y-76360918D01*
X128665959Y-76396916D01*
X128727259Y-76435965D01*
X128790938Y-76476419D01*
X128854408Y-76516633D01*
X128915081Y-76554963D01*
X128970365Y-76589765D01*
X129017673Y-76619394D01*
X129054415Y-76642206D01*
X129078002Y-76656555D01*
X129080319Y-76657920D01*
X129090607Y-76652576D01*
X129113519Y-76634060D01*
X129146888Y-76604339D01*
X129188550Y-76565383D01*
X129236337Y-76519160D01*
X129273283Y-76482523D01*
X129454969Y-76300542D01*
X129248276Y-76173542D01*
X129248276Y-76173542D01*
G37*
X129248276Y-76173542D02*
X129041582Y-76046542D01*
X129044729Y-75945713D01*
X129047146Y-75894651D01*
X129051743Y-75857150D01*
X129060194Y-75825610D01*
X129074171Y-75792432D01*
X129081991Y-75776380D01*
X129116614Y-75710876D01*
X129149153Y-75657001D01*
X129178115Y-75616862D01*
X129202012Y-75592564D01*
X129216850Y-75585935D01*
X129262565Y-75575930D01*
X129309303Y-75549606D01*
X129352587Y-75511084D01*
X129387943Y-75464487D01*
X129410895Y-75413935D01*
X129413293Y-75405031D01*
X129420823Y-75340036D01*
X129410507Y-75279591D01*
X129381653Y-75222634D01*
X129333569Y-75168101D01*
X129265563Y-75114928D01*
X129197421Y-75073254D01*
X129088161Y-75020109D01*
X128977142Y-74982906D01*
X128859516Y-74960458D01*
X128730437Y-74951576D01*
X128700340Y-74951324D01*
X128607462Y-74954223D01*
X128528881Y-74963456D01*
X128458363Y-74980195D01*
X128389676Y-75005615D01*
X128373267Y-75012911D01*
X128321216Y-75039552D01*
X128281140Y-75068059D01*
X128251376Y-75101667D01*
X128230261Y-75143613D01*
X128216131Y-75197134D01*
X128207323Y-75265465D01*
X128202444Y-75345277D01*
X128197204Y-75445285D01*
X128190324Y-75539419D01*
X128182159Y-75624124D01*
X128173067Y-75695846D01*
X128163404Y-75751031D01*
X128160423Y-75763924D01*
X128152149Y-75791847D01*
X128140994Y-75809117D01*
X128121034Y-75821626D01*
X128090083Y-75833891D01*
X128066772Y-75841604D01*
X128042318Y-75847261D01*
X128012977Y-75851177D01*
X127975002Y-75853666D01*
X127924649Y-75855044D01*
X127858172Y-75855626D01*
X127830792Y-75855699D01*
X127756537Y-75855285D01*
X127679171Y-75853920D01*
X127605245Y-75851782D01*
X127541310Y-75849050D01*
X127505782Y-75846862D01*
X127381856Y-75837683D01*
X127349678Y-75869861D01*
X127323703Y-75908231D01*
X127316229Y-75949822D01*
X127327435Y-75989849D01*
X127344380Y-76012327D01*
X127373897Y-76030852D01*
X127422166Y-76047518D01*
X127486830Y-76062025D01*
X127565532Y-76074075D01*
X127655914Y-76083370D01*
X127755620Y-76089610D01*
X127862291Y-76092496D01*
X127971463Y-76091781D01*
X128045599Y-76089824D01*
X128102258Y-76087594D01*
X128145130Y-76084702D01*
X128177905Y-76080758D01*
X128204271Y-76075371D01*
X128227918Y-76068151D01*
X128241061Y-76063274D01*
X128286453Y-76043264D01*
X128322630Y-76020507D01*
X128351246Y-75992093D01*
X128373956Y-75955109D01*
X128392414Y-75906646D01*
X128408273Y-75843790D01*
X128423188Y-75763633D01*
X128427955Y-75734334D01*
X128438314Y-75676135D01*
X128449976Y-75621904D01*
X128461631Y-75577160D01*
X128471969Y-75547422D01*
X128472735Y-75545781D01*
X128507606Y-75497322D01*
X128558426Y-75460742D01*
X128619250Y-75438779D01*
X128660237Y-75432335D01*
X128709386Y-75428716D01*
X128758594Y-75428122D01*
X128799757Y-75430756D01*
X128816808Y-75433858D01*
X128828087Y-75437951D01*
X128831531Y-75445062D01*
X128826049Y-75459374D01*
X128810553Y-75485070D01*
X128798635Y-75503607D01*
X128743943Y-75606401D01*
X128709771Y-75714033D01*
X128695997Y-75827048D01*
X128701573Y-75938928D01*
X128714779Y-76021585D01*
X128731495Y-76084906D01*
X128752701Y-76130572D01*
X128779377Y-76160263D01*
X128812502Y-76175657D01*
X128841484Y-76178834D01*
X128880265Y-76171600D01*
X128908849Y-76150932D01*
X128926830Y-76127116D01*
X128935346Y-76098407D01*
X128934677Y-76060492D01*
X128925106Y-76009058D01*
X128919571Y-75986543D01*
X128906595Y-75905469D01*
X128907187Y-75822056D01*
X128920363Y-75740980D01*
X128945141Y-75666920D01*
X128980538Y-75604552D01*
X129006017Y-75575123D01*
X129029232Y-75554597D01*
X129044311Y-75547989D01*
X129056791Y-75553063D01*
X129058060Y-75554086D01*
X129066067Y-75563996D01*
X129063577Y-75576219D01*
X129048679Y-75595912D01*
X129038200Y-75607722D01*
X128990402Y-75674016D01*
X128960651Y-75747804D01*
X128948721Y-75830385D01*
X128954381Y-75923060D01*
X128969526Y-75997981D01*
X128980106Y-76041387D01*
X128985398Y-76070746D01*
X128985603Y-76092456D01*
X128980922Y-76112911D01*
X128973775Y-76132727D01*
X128946399Y-76178224D01*
X128907320Y-76209166D01*
X128860978Y-76224690D01*
X128811809Y-76223934D01*
X128764251Y-76206036D01*
X128731323Y-76179824D01*
X128705809Y-76141512D01*
X128684242Y-76085492D01*
X128667520Y-76015002D01*
X128656542Y-75933280D01*
X128654165Y-75901669D01*
X128647994Y-75799129D01*
X128595877Y-75766731D01*
X128560466Y-75745738D01*
X128538951Y-75736742D01*
X128527897Y-75739587D01*
X128523870Y-75754115D01*
X128523453Y-75763438D01*
X128522237Y-75782196D01*
X128519135Y-75818540D01*
X128514471Y-75869005D01*
X128508570Y-75930126D01*
X128501755Y-75998439D01*
X128498470Y-76030667D01*
X128490191Y-76114774D01*
X128484652Y-76179634D01*
X128481764Y-76226979D01*
X128481439Y-76258541D01*
X128483589Y-76276049D01*
X128485788Y-76280309D01*
X128496348Y-76287664D01*
X128522235Y-76304647D01*
X128560858Y-76329613D01*
X128609630Y-76360918D01*
X128665959Y-76396916D01*
X128727259Y-76435965D01*
X128790938Y-76476419D01*
X128854408Y-76516633D01*
X128915081Y-76554963D01*
X128970365Y-76589765D01*
X129017673Y-76619394D01*
X129054415Y-76642206D01*
X129078002Y-76656555D01*
X129080319Y-76657920D01*
X129090607Y-76652576D01*
X129113519Y-76634060D01*
X129146888Y-76604339D01*
X129188550Y-76565383D01*
X129236337Y-76519160D01*
X129273283Y-76482523D01*
X129454969Y-76300542D01*
X129248276Y-76173542D01*
G36*
X129449634Y-76687082D02*
X129439411Y-76665370D01*
X129422572Y-76634714D01*
X129401982Y-76599741D01*
X129380501Y-76565080D01*
X129360994Y-76535360D01*
X129346324Y-76515210D01*
X129339552Y-76509106D01*
X129327088Y-76517819D01*
X129303816Y-76536797D01*
X129273719Y-76562512D01*
X129240779Y-76591435D01*
X129208977Y-76620037D01*
X129182296Y-76644790D01*
X129164718Y-76662163D01*
X129159890Y-76668313D01*
X129166633Y-76676926D01*
X129166938Y-76676959D01*
X129179891Y-76678132D01*
X129209762Y-76680844D01*
X129252388Y-76684717D01*
X129303607Y-76689372D01*
X129315317Y-76690437D01*
X129372208Y-76695385D01*
X129411116Y-76698012D01*
X129435104Y-76698242D01*
X129447235Y-76695998D01*
X129450573Y-76691203D01*
X129449634Y-76687082D01*
X129449634Y-76687082D01*
G37*
X129449634Y-76687082D02*
X129439411Y-76665370D01*
X129422572Y-76634714D01*
X129401982Y-76599741D01*
X129380501Y-76565080D01*
X129360994Y-76535360D01*
X129346324Y-76515210D01*
X129339552Y-76509106D01*
X129327088Y-76517819D01*
X129303816Y-76536797D01*
X129273719Y-76562512D01*
X129240779Y-76591435D01*
X129208977Y-76620037D01*
X129182296Y-76644790D01*
X129164718Y-76662163D01*
X129159890Y-76668313D01*
X129166633Y-76676926D01*
X129166938Y-76676959D01*
X129179891Y-76678132D01*
X129209762Y-76680844D01*
X129252388Y-76684717D01*
X129303607Y-76689372D01*
X129315317Y-76690437D01*
X129372208Y-76695385D01*
X129411116Y-76698012D01*
X129435104Y-76698242D01*
X129447235Y-76695998D01*
X129450573Y-76691203D01*
X129449634Y-76687082D01*
G36*
X129849606Y-75690496D02*
X129833569Y-75636344D01*
X129802506Y-75581906D01*
X129761215Y-75534317D01*
X129726472Y-75507440D01*
X129671689Y-75483330D01*
X129609291Y-75471162D01*
X129547165Y-75471709D01*
X129495415Y-75484779D01*
X129435265Y-75520556D01*
X129386701Y-75569848D01*
X129351699Y-75628716D01*
X129332236Y-75693223D01*
X129330290Y-75759430D01*
X129338222Y-75797902D01*
X129369251Y-75866240D01*
X129415260Y-75921014D01*
X129473639Y-75960432D01*
X129541778Y-75982705D01*
X129612899Y-75986370D01*
X129681585Y-75971508D01*
X129741877Y-75939371D01*
X129791349Y-75892992D01*
X129827574Y-75835403D01*
X129848126Y-75769638D01*
X129850579Y-75698729D01*
X129849606Y-75690496D01*
X129849606Y-75690496D01*
G37*
X129849606Y-75690496D02*
X129833569Y-75636344D01*
X129802506Y-75581906D01*
X129761215Y-75534317D01*
X129726472Y-75507440D01*
X129671689Y-75483330D01*
X129609291Y-75471162D01*
X129547165Y-75471709D01*
X129495415Y-75484779D01*
X129435265Y-75520556D01*
X129386701Y-75569848D01*
X129351699Y-75628716D01*
X129332236Y-75693223D01*
X129330290Y-75759430D01*
X129338222Y-75797902D01*
X129369251Y-75866240D01*
X129415260Y-75921014D01*
X129473639Y-75960432D01*
X129541778Y-75982705D01*
X129612899Y-75986370D01*
X129681585Y-75971508D01*
X129741877Y-75939371D01*
X129791349Y-75892992D01*
X129827574Y-75835403D01*
X129848126Y-75769638D01*
X129850579Y-75698729D01*
X129849606Y-75690496D01*
D13*
X109220000Y-106680000D03*
D14*
X124460000Y-99060000D03*
X111760000Y-106680000D03*
X121920000Y-99060000D03*
X114300000Y-106680000D03*
X119380000Y-99060000D03*
X116840000Y-106680000D03*
X116840000Y-99060000D03*
X119380000Y-106680000D03*
X114300000Y-99060000D03*
X121920000Y-106680000D03*
X111760000Y-99060000D03*
X124460000Y-106680000D03*
X109220000Y-99060000D03*
D15*
X53340000Y-27940000D03*
X53340000Y-38100000D03*
D16*
X82550000Y-76200000D03*
D15*
X82550000Y-73700000D03*
D16*
X57150000Y-70485000D03*
D15*
X54650000Y-70485000D03*
D16*
X52070000Y-76200000D03*
D15*
X52070000Y-73700000D03*
D16*
X52070000Y-80010000D03*
D15*
X52070000Y-82510000D03*
D16*
X48260000Y-102870000D03*
D15*
X45760000Y-102870000D03*
D16*
X40449500Y-85725000D03*
D15*
X40449500Y-88225000D03*
X35092000Y-71374000D03*
D16*
X37592000Y-71374000D03*
X105410000Y-100965000D03*
D15*
X105410000Y-98465000D03*
D16*
X127635000Y-50800000D03*
D15*
X127635000Y-53300000D03*
D16*
X41910000Y-29210000D03*
D15*
X41910000Y-26710000D03*
X58420000Y-31790000D03*
D16*
X58420000Y-34290000D03*
X111760000Y-46355000D03*
D15*
X114260000Y-46355000D03*
D16*
X95250000Y-118745000D03*
D15*
X97790000Y-118745000D03*
D16*
X104140000Y-118745000D03*
D15*
X106680000Y-118745000D03*
D16*
X113030000Y-118745000D03*
D15*
X115570000Y-118745000D03*
D16*
X86360000Y-118745000D03*
D15*
X88900000Y-118745000D03*
D16*
X77470000Y-118745000D03*
D15*
X80010000Y-118745000D03*
D17*
X60960000Y-108585000D03*
D18*
X71120000Y-108585000D03*
D17*
X52070000Y-106045000D03*
D18*
X41910000Y-106045000D03*
D17*
X115570000Y-95885000D03*
D18*
X105410000Y-95885000D03*
D17*
X115570000Y-92710000D03*
D18*
X105410000Y-92710000D03*
D17*
X53340000Y-40640000D03*
D18*
X53340000Y-50800000D03*
D16*
X40640000Y-33020000D03*
D15*
X40640000Y-35560000D03*
D13*
X91440000Y-43180000D03*
D14*
X124460000Y-35560000D03*
X93980000Y-43180000D03*
X121920000Y-35560000D03*
X96520000Y-43180000D03*
X119380000Y-35560000D03*
X99060000Y-43180000D03*
X116840000Y-35560000D03*
X101600000Y-43180000D03*
X114300000Y-35560000D03*
X104140000Y-43180000D03*
X111760000Y-35560000D03*
X106680000Y-43180000D03*
X109220000Y-35560000D03*
X109220000Y-43180000D03*
X106680000Y-35560000D03*
X111760000Y-43180000D03*
X104140000Y-35560000D03*
X114300000Y-43180000D03*
X101600000Y-35560000D03*
X116840000Y-43180000D03*
X99060000Y-35560000D03*
X119380000Y-43180000D03*
X96520000Y-35560000D03*
X121920000Y-43180000D03*
X93980000Y-35560000D03*
X124460000Y-43180000D03*
X91440000Y-35560000D03*
D19*
X83820000Y-27940000D03*
D20*
X86360000Y-27940000D03*
X88900000Y-27940000D03*
X91440000Y-27940000D03*
D21*
X34290000Y-96520000D03*
D22*
X34290000Y-93980000D03*
X34290000Y-91440000D03*
X34290000Y-88900000D03*
X34290000Y-86360000D03*
X34290000Y-83820000D03*
X34290000Y-81280000D03*
X34290000Y-78740000D03*
D23*
X35560000Y-62230000D03*
D24*
X35560000Y-59730000D03*
D19*
X97790000Y-30480000D03*
D20*
X97790000Y-27940000D03*
X100330000Y-30480000D03*
X100330000Y-27940000D03*
X102870000Y-30480000D03*
X102870000Y-27940000D03*
X105410000Y-30480000D03*
X105410000Y-27940000D03*
X107950000Y-30480000D03*
X107950000Y-27940000D03*
X110490000Y-30480000D03*
X110490000Y-27940000D03*
X113030000Y-30480000D03*
X113030000Y-27940000D03*
X115570000Y-30480000D03*
X115570000Y-27940000D03*
X118110000Y-30480000D03*
X118110000Y-27940000D03*
X120650000Y-30480000D03*
X120650000Y-27940000D03*
D15*
X99060000Y-114300000D03*
X88900000Y-114300000D03*
X111760000Y-114300000D03*
X101600000Y-114300000D03*
X88900000Y-109220000D03*
X99060000Y-109220000D03*
X88900000Y-111760000D03*
X99060000Y-111760000D03*
X88900000Y-106680000D03*
X99060000Y-106680000D03*
X114300000Y-114300000D03*
X124460000Y-114300000D03*
X86360000Y-114300000D03*
X76200000Y-114300000D03*
X45720000Y-43815000D03*
X45720000Y-53975000D03*
X50165000Y-38100000D03*
X50165000Y-27940000D03*
X56515000Y-109855000D03*
X56515000Y-120015000D03*
X60960000Y-111760000D03*
X71120000Y-111760000D03*
X80010000Y-96520000D03*
X80010000Y-106680000D03*
X52070000Y-109220000D03*
X41910000Y-109220000D03*
X80010000Y-90170000D03*
X80010000Y-80010000D03*
X41910000Y-111760000D03*
X52070000Y-111760000D03*
X74930000Y-44450000D03*
X74930000Y-34290000D03*
X77470000Y-44450000D03*
X77470000Y-34290000D03*
X128270000Y-93980000D03*
X118110000Y-93980000D03*
X50165000Y-50800000D03*
X50165000Y-40640000D03*
X80010000Y-44450000D03*
X80010000Y-34290000D03*
D16*
X105410000Y-81280000D03*
D15*
X105410000Y-78740000D03*
X105410000Y-76200000D03*
X105410000Y-73660000D03*
X105410000Y-71120000D03*
X105410000Y-68580000D03*
X105410000Y-66040000D03*
X105410000Y-63500000D03*
X105410000Y-60960000D03*
D16*
X82550000Y-50800000D03*
D15*
X82550000Y-53340000D03*
X82550000Y-55880000D03*
X82550000Y-58420000D03*
X82550000Y-60960000D03*
X82550000Y-63500000D03*
X82550000Y-66040000D03*
X82550000Y-68580000D03*
X82550000Y-71120000D03*
D25*
X64508000Y-88900000D03*
X63508000Y-88900000D03*
X52570000Y-87630000D03*
X51570000Y-87630000D03*
D26*
X69850000Y-114935000D03*
X69850000Y-120015000D03*
X62230000Y-114935000D03*
X62230000Y-120015000D03*
X43180000Y-120015000D03*
X43180000Y-114935000D03*
X50800000Y-120015000D03*
X50800000Y-114935000D03*
D27*
X86360000Y-50800000D03*
D28*
X101600000Y-99060000D03*
X86360000Y-53340000D03*
X101600000Y-96520000D03*
X86360000Y-55880000D03*
X101600000Y-93980000D03*
X86360000Y-58420000D03*
X101600000Y-91440000D03*
X86360000Y-60960000D03*
X101600000Y-88900000D03*
X86360000Y-63500000D03*
X101600000Y-86360000D03*
X86360000Y-66040000D03*
X101600000Y-83820000D03*
X86360000Y-68580000D03*
X101600000Y-81280000D03*
X86360000Y-71120000D03*
X101600000Y-78740000D03*
X86360000Y-73660000D03*
X101600000Y-76200000D03*
X86360000Y-76200000D03*
X101600000Y-73660000D03*
X86360000Y-78740000D03*
X101600000Y-71120000D03*
X86360000Y-81280000D03*
X101600000Y-68580000D03*
X86360000Y-83820000D03*
X101600000Y-66040000D03*
X86360000Y-86360000D03*
X101600000Y-63500000D03*
X86360000Y-88900000D03*
X101600000Y-60960000D03*
X86360000Y-91440000D03*
X101600000Y-58420000D03*
X86360000Y-93980000D03*
X101600000Y-55880000D03*
X86360000Y-96520000D03*
X101600000Y-53340000D03*
X86360000Y-99060000D03*
X101600000Y-50800000D03*
D27*
X60960000Y-50800000D03*
D28*
X76200000Y-99060000D03*
X60960000Y-53340000D03*
X76200000Y-96520000D03*
X60960000Y-55880000D03*
X76200000Y-93980000D03*
X60960000Y-58420000D03*
X76200000Y-91440000D03*
X60960000Y-60960000D03*
X76200000Y-88900000D03*
X60960000Y-63500000D03*
X76200000Y-86360000D03*
X60960000Y-66040000D03*
X76200000Y-83820000D03*
X60960000Y-68580000D03*
X76200000Y-81280000D03*
X60960000Y-71120000D03*
X76200000Y-78740000D03*
X60960000Y-73660000D03*
X76200000Y-76200000D03*
X60960000Y-76200000D03*
X76200000Y-73660000D03*
X60960000Y-78740000D03*
X76200000Y-71120000D03*
X60960000Y-81280000D03*
X76200000Y-68580000D03*
X60960000Y-83820000D03*
X76200000Y-66040000D03*
X60960000Y-86360000D03*
X76200000Y-63500000D03*
X60960000Y-88900000D03*
X76200000Y-60960000D03*
X60960000Y-91440000D03*
X76200000Y-58420000D03*
X60960000Y-93980000D03*
X76200000Y-55880000D03*
X60960000Y-96520000D03*
X76200000Y-53340000D03*
X60960000Y-99060000D03*
X76200000Y-50800000D03*
D27*
X109220000Y-50800000D03*
D28*
X124460000Y-88900000D03*
X109220000Y-53340000D03*
X124460000Y-86360000D03*
X109220000Y-55880000D03*
X124460000Y-83820000D03*
X109220000Y-58420000D03*
X124460000Y-81280000D03*
X109220000Y-60960000D03*
X124460000Y-78740000D03*
X109220000Y-63500000D03*
X124460000Y-76200000D03*
X109220000Y-66040000D03*
X124460000Y-73660000D03*
X109220000Y-68580000D03*
X124460000Y-71120000D03*
X109220000Y-71120000D03*
X124460000Y-68580000D03*
X109220000Y-73660000D03*
X124460000Y-66040000D03*
X109220000Y-76200000D03*
X124460000Y-63500000D03*
X109220000Y-78740000D03*
X124460000Y-60960000D03*
X109220000Y-81280000D03*
X124460000Y-58420000D03*
X109220000Y-83820000D03*
X124460000Y-55880000D03*
X109220000Y-86360000D03*
X124460000Y-53340000D03*
X109220000Y-88900000D03*
X124460000Y-50800000D03*
D15*
X56515000Y-75565000D03*
X56515000Y-80645000D03*
D21*
X64770000Y-27940000D03*
D22*
X64770000Y-30480000D03*
X64770000Y-33020000D03*
X64770000Y-35560000D03*
X64770000Y-38100000D03*
X64770000Y-40640000D03*
D21*
X45720000Y-27940000D03*
D22*
X45720000Y-30480000D03*
X45720000Y-33020000D03*
X45720000Y-35560000D03*
X45720000Y-38100000D03*
X45720000Y-40640000D03*
D21*
X34725000Y-44450000D03*
D22*
X37665000Y-44450000D03*
X34725000Y-46990000D03*
X37665000Y-46990000D03*
X34725000Y-49530000D03*
X37665000Y-49530000D03*
D25*
X38536500Y-83820000D03*
X37536500Y-83820000D03*
D29*
X104140000Y-109982000D03*
X105610000Y-109982000D03*
D30*
X102670000Y-109982000D03*
D29*
X83820000Y-109982000D03*
X85290000Y-109982000D03*
D30*
X82350000Y-109982000D03*
D31*
X83185000Y-102806500D03*
D32*
X53848000Y-73700000D03*
X50038000Y-73723500D03*
X50038000Y-77978000D03*
X57594500Y-73723500D03*
X50038000Y-81280000D03*
X53848000Y-77978000D03*
X57658000Y-77978000D03*
D31*
X96901000Y-77533500D03*
X96901000Y-102743000D03*
X65468500Y-48069500D03*
X79565500Y-48069500D03*
X65151000Y-77533500D03*
D32*
X48260000Y-74930000D03*
X48260000Y-98425000D03*
X48260000Y-52197000D03*
X110998000Y-92710000D03*
X110998000Y-53340000D03*
X48006000Y-48260000D03*
X70421500Y-33020000D03*
X72390000Y-96520000D03*
X86233000Y-39433500D03*
X75057000Y-29781500D03*
X71120000Y-35560000D03*
X72390000Y-93980000D03*
X56134000Y-88455500D03*
X41719500Y-81280000D03*
X37719000Y-94170500D03*
X71818500Y-78740000D03*
X72517000Y-89217500D03*
X56134000Y-93980000D03*
X49085500Y-47053500D03*
X42989500Y-43688000D03*
X47879000Y-46990000D03*
X43751500Y-46990000D03*
X47371000Y-60960000D03*
X84836000Y-106680000D03*
X88900000Y-94107000D03*
X123190000Y-108140500D03*
X92519500Y-91440000D03*
X92773500Y-79438500D03*
X121348500Y-51498500D03*
X99187000Y-58166000D03*
X122047000Y-52514500D03*
X99885500Y-58991500D03*
X122745500Y-56769000D03*
X88709500Y-64770000D03*
X87947500Y-55118000D03*
X107759500Y-62230000D03*
X116840000Y-113030000D03*
X91757500Y-113030000D03*
X91567000Y-71310500D03*
X89408000Y-60960000D03*
X89471500Y-71310500D03*
X65278000Y-84963000D03*
X111760000Y-112204500D03*
X63563500Y-94043500D03*
X63563500Y-106553000D03*
X116903500Y-53340000D03*
X119443500Y-92583000D03*
X98996500Y-91440000D03*
X99187000Y-60579000D03*
X74422000Y-97726500D03*
X99758500Y-85090000D03*
X99758500Y-67310000D03*
X88836500Y-89281000D03*
X88900000Y-96520000D03*
X103632000Y-55943500D03*
X62420500Y-92710000D03*
X120650000Y-65976500D03*
X87884000Y-62230000D03*
X77851000Y-66738500D03*
X119951500Y-71882000D03*
X88709500Y-65976500D03*
X121348500Y-73660000D03*
X84645500Y-66421000D03*
X122618500Y-75311000D03*
X73660000Y-77470000D03*
X99060000Y-79121000D03*
X99060000Y-87630000D03*
X69913500Y-68580000D03*
X69913500Y-82550000D03*
X90995500Y-81343500D03*
X89027000Y-50673000D03*
X73787000Y-86233000D03*
X73025000Y-53340000D03*
X73787000Y-87630000D03*
X87820500Y-82486500D03*
X87820500Y-74930000D03*
X81470500Y-77470000D03*
X95186500Y-100520500D03*
X95186500Y-114300000D03*
X62611000Y-72326500D03*
X66167000Y-72326500D03*
X66167000Y-113220500D03*
X88963500Y-93091000D03*
X90106500Y-63500000D03*
X78168500Y-87630000D03*
X80962500Y-37211000D03*
X97091500Y-111760000D03*
D33*
X37465000Y-51244500D02*
X37401500Y-51244500D01*
X37465000Y-49530000D02*
X37465000Y-51244500D01*
X36703000Y-51943000D02*
X32448500Y-51943000D01*
X37401500Y-51244500D02*
X36703000Y-51943000D01*
X80010000Y-90170000D02*
X83185000Y-90170000D01*
X83185000Y-90170000D02*
X83185000Y-89916000D01*
X83185000Y-102806500D02*
X83185000Y-89916000D01*
X83185000Y-89916000D02*
X83185000Y-76835000D01*
D34*
X38536500Y-83820000D02*
X39878000Y-83820000D01*
X40449500Y-84391500D02*
X40449500Y-85725000D01*
X39878000Y-83820000D02*
X40449500Y-84391500D01*
D35*
X53848000Y-73700000D02*
X53848000Y-73723500D01*
D36*
X35560000Y-62230000D02*
X32702500Y-62230000D01*
X32448500Y-61976000D02*
X32448500Y-51943000D01*
X32702500Y-62230000D02*
X32448500Y-61976000D01*
X32448500Y-51943000D02*
X32448500Y-37401500D01*
X32448500Y-37401500D02*
X39814500Y-30035500D01*
X39814500Y-30035500D02*
X39814500Y-27495500D01*
X39814500Y-27495500D02*
X40600000Y-26710000D01*
X40600000Y-26710000D02*
X41910000Y-26710000D01*
X60960000Y-76200000D02*
X58229500Y-76200000D01*
D37*
X58229500Y-76200000D02*
X55943500Y-78486000D01*
X55943500Y-78486000D02*
X55372000Y-78486000D01*
X55372000Y-78486000D02*
X53848000Y-80010000D01*
X53848000Y-80010000D02*
X53848000Y-81788000D01*
X53848000Y-81788000D02*
X53126000Y-82510000D01*
X53126000Y-82510000D02*
X52070000Y-82510000D01*
D33*
X83185000Y-76835000D02*
X82550000Y-76200000D01*
X96901000Y-77533500D02*
X96901000Y-102743000D01*
D37*
X114260000Y-46355000D02*
X114260000Y-43220000D01*
X114260000Y-43220000D02*
X114300000Y-43180000D01*
X119380000Y-35560000D02*
X119380000Y-33972500D01*
X120650000Y-32702500D02*
X120650000Y-30480000D01*
X119380000Y-33972500D02*
X120650000Y-32702500D01*
X121920000Y-35560000D02*
X124460000Y-35560000D01*
X119380000Y-35560000D02*
X121920000Y-35560000D01*
X114300000Y-43180000D02*
X114300000Y-41148000D01*
X119380000Y-38290500D02*
X119380000Y-35560000D01*
X118300500Y-39370000D02*
X119380000Y-38290500D01*
X116078000Y-39370000D02*
X118300500Y-39370000D01*
X114300000Y-41148000D02*
X116078000Y-39370000D01*
X114260000Y-43220000D02*
X114300000Y-43180000D01*
D36*
X91440000Y-27940000D02*
X91440000Y-25463500D01*
X120650000Y-27940000D02*
X120650000Y-30480000D01*
X58991500Y-25463500D02*
X91440000Y-25463500D01*
X91440000Y-25463500D02*
X120078500Y-25463500D01*
X120650000Y-26035000D02*
X120650000Y-27940000D01*
X120078500Y-25463500D02*
X120650000Y-26035000D01*
X64770000Y-40640000D02*
X63436500Y-40640000D01*
X43156500Y-25463500D02*
X41910000Y-26710000D01*
X58991500Y-25463500D02*
X43156500Y-25463500D01*
X61277500Y-27749500D02*
X58991500Y-25463500D01*
X61277500Y-38481000D02*
X61277500Y-27749500D01*
X63436500Y-40640000D02*
X61277500Y-38481000D01*
D37*
X82350000Y-109982000D02*
X82350000Y-121167500D01*
X82350000Y-121167500D02*
X82277000Y-121094500D01*
X82277000Y-121094500D02*
X82169000Y-121094500D01*
X82169000Y-121094500D02*
X82169000Y-121348500D01*
X99060000Y-106680000D02*
X102679500Y-106680000D01*
X102679500Y-106680000D02*
X102552500Y-106680000D01*
D33*
X65468500Y-71628000D02*
X63436500Y-73660000D01*
X65468500Y-48069500D02*
X65468500Y-71628000D01*
X79565500Y-71945500D02*
X79565500Y-48069500D01*
D37*
X126047500Y-77787500D02*
X126047500Y-51308000D01*
X128270000Y-80010000D02*
X126047500Y-77787500D01*
X128270000Y-93980000D02*
X128270000Y-80010000D01*
X125539500Y-50800000D02*
X124460000Y-50800000D01*
X126047500Y-51308000D02*
X125539500Y-50800000D01*
D36*
X34290000Y-88900000D02*
X39774500Y-88900000D01*
X39774500Y-88900000D02*
X40449500Y-88225000D01*
D35*
X32131000Y-89852500D02*
X32131000Y-76835000D01*
X37592000Y-73152000D02*
X37592000Y-71374000D01*
X36576000Y-74168000D02*
X37592000Y-73152000D01*
X34798000Y-74168000D02*
X36576000Y-74168000D01*
X32131000Y-76835000D02*
X34798000Y-74168000D01*
D37*
X105410000Y-98465000D02*
X104925500Y-98465000D01*
X104925500Y-98465000D02*
X102679500Y-100711000D01*
D33*
X86360000Y-76200000D02*
X86042500Y-76200000D01*
X86042500Y-76200000D02*
X83542500Y-73700000D01*
X83542500Y-73700000D02*
X82550000Y-73700000D01*
D35*
X37592000Y-71374000D02*
X37592000Y-60452000D01*
X36870000Y-59730000D02*
X35560000Y-59730000D01*
X37592000Y-60452000D02*
X36870000Y-59730000D01*
D33*
X60960000Y-108585000D02*
X60134500Y-108585000D01*
X60134500Y-108585000D02*
X58928000Y-109791500D01*
X58928000Y-109791500D02*
X58928000Y-122809000D01*
D37*
X45720000Y-53975000D02*
X45720000Y-52451000D01*
X44132500Y-50863500D02*
X39941500Y-50863500D01*
X45720000Y-52451000D02*
X44132500Y-50863500D01*
D33*
X37465000Y-44450000D02*
X39370000Y-44450000D01*
D35*
X35560000Y-56832500D02*
X35560000Y-59730000D01*
D33*
X39941500Y-50863500D02*
X39941500Y-52451000D01*
X39941500Y-52451000D02*
X35560000Y-56832500D01*
X39941500Y-45021500D02*
X39941500Y-50863500D01*
X39370000Y-44450000D02*
X39941500Y-45021500D01*
X81320000Y-73700000D02*
X82550000Y-73700000D01*
X79565500Y-71945500D02*
X81320000Y-73700000D01*
X63436500Y-73660000D02*
X65151000Y-75374500D01*
X65151000Y-75374500D02*
X65151000Y-77533500D01*
X60960000Y-73660000D02*
X63436500Y-73660000D01*
X82907500Y-73700000D02*
X82550000Y-73700000D01*
D37*
X105410000Y-81280000D02*
X106045000Y-81280000D01*
X106045000Y-81280000D02*
X107188000Y-80137000D01*
X107188000Y-80137000D02*
X107188000Y-63246000D01*
X107188000Y-63246000D02*
X106807000Y-62865000D01*
X106807000Y-62865000D02*
X106807000Y-48450500D01*
X106807000Y-48450500D02*
X108902500Y-46355000D01*
X108902500Y-46355000D02*
X111760000Y-46355000D01*
D35*
X41910000Y-109220000D02*
X41910000Y-106045000D01*
D33*
X41910000Y-106045000D02*
X32131000Y-106045000D01*
D37*
X111760000Y-46355000D02*
X111760000Y-43180000D01*
D36*
X80010000Y-34290000D02*
X80010000Y-36068000D01*
X77470000Y-38608000D02*
X77470000Y-44450000D01*
X80010000Y-36068000D02*
X77470000Y-38608000D01*
X83820000Y-27940000D02*
X83820000Y-30480000D01*
X83820000Y-30480000D02*
X80010000Y-34290000D01*
X45720000Y-30480000D02*
X44513500Y-30480000D01*
X43243500Y-29210000D02*
X41910000Y-29210000D01*
X44513500Y-30480000D02*
X43243500Y-29210000D01*
X58420000Y-34290000D02*
X52133500Y-34290000D01*
X48323500Y-30480000D02*
X45720000Y-30480000D01*
X52133500Y-34290000D02*
X48323500Y-30480000D01*
X34290000Y-88900000D02*
X33083500Y-88900000D01*
X42227500Y-122809000D02*
X58928000Y-122809000D01*
X58928000Y-122809000D02*
X80708500Y-122809000D01*
X40005000Y-120586500D02*
X42227500Y-122809000D01*
X40005000Y-117284500D02*
X40005000Y-120586500D01*
X36766500Y-114046000D02*
X40005000Y-117284500D01*
X34353500Y-114046000D02*
X36766500Y-114046000D01*
X32131000Y-111823500D02*
X34353500Y-114046000D01*
X32131000Y-89852500D02*
X32131000Y-106045000D01*
X32131000Y-106045000D02*
X32131000Y-111823500D01*
X33083500Y-88900000D02*
X32131000Y-89852500D01*
X80708500Y-122809000D02*
X82169000Y-121348500D01*
X82169000Y-121348500D02*
X82550000Y-120967500D01*
D37*
X102679500Y-100711000D02*
X102679500Y-106680000D01*
X102679500Y-106680000D02*
X102679500Y-109982000D01*
D35*
X52070000Y-106045000D02*
X52070000Y-105410000D01*
X52070000Y-105410000D02*
X49530000Y-102870000D01*
X49530000Y-102870000D02*
X48260000Y-102870000D01*
X60960000Y-71120000D02*
X60007500Y-71120000D01*
X60007500Y-71120000D02*
X57340500Y-68453000D01*
X57340500Y-68453000D02*
X48260000Y-68453000D01*
X48260000Y-102870000D02*
X48260000Y-98425000D01*
X48260000Y-74930000D02*
X48260000Y-68453000D01*
X48260000Y-68453000D02*
X48260000Y-52197000D01*
X52070000Y-109220000D02*
X52070000Y-111760000D01*
X52070000Y-106045000D02*
X52070000Y-109220000D01*
X97790000Y-118745000D02*
X97790000Y-114998500D01*
X97790000Y-114998500D02*
X98488500Y-114300000D01*
X98488500Y-114300000D02*
X99060000Y-114300000D01*
X106680000Y-118745000D02*
X107632500Y-118745000D01*
X109791500Y-114300000D02*
X111760000Y-114300000D01*
X109283500Y-114808000D02*
X109791500Y-114300000D01*
X109283500Y-117094000D02*
X109283500Y-114808000D01*
X107632500Y-118745000D02*
X109283500Y-117094000D01*
X114300000Y-114300000D02*
X114300000Y-115951000D01*
X113030000Y-117221000D02*
X113030000Y-118745000D01*
X114300000Y-115951000D02*
X113030000Y-117221000D01*
X114300000Y-99060000D02*
X114300000Y-100584000D01*
X115570000Y-113347500D02*
X115570000Y-118745000D01*
X114998500Y-112776000D02*
X115570000Y-113347500D01*
X114046000Y-112776000D02*
X114998500Y-112776000D01*
X113284000Y-112014000D02*
X114046000Y-112776000D01*
X113284000Y-101600000D02*
X113284000Y-112014000D01*
X114300000Y-100584000D02*
X113284000Y-101600000D01*
X77470000Y-118745000D02*
X74041000Y-118745000D01*
X72199500Y-111760000D02*
X71120000Y-111760000D01*
X72707500Y-112268000D02*
X72199500Y-111760000D01*
X72707500Y-117411500D02*
X72707500Y-112268000D01*
X74041000Y-118745000D02*
X72707500Y-117411500D01*
X71120000Y-108585000D02*
X71882000Y-108585000D01*
X71882000Y-108585000D02*
X73342500Y-110045500D01*
X80010000Y-118745000D02*
X80010000Y-117856000D01*
X73342500Y-116459000D02*
X73342500Y-110045500D01*
X74168000Y-117284500D02*
X73342500Y-116459000D01*
X79438500Y-117284500D02*
X74168000Y-117284500D01*
X80010000Y-117856000D02*
X79438500Y-117284500D01*
X115570000Y-95885000D02*
X115570000Y-92710000D01*
X110998000Y-53340000D02*
X110998000Y-92710000D01*
X109220000Y-106680000D02*
X108267500Y-106680000D01*
X106807000Y-92710000D02*
X105410000Y-92710000D01*
X107505500Y-93408500D02*
X106807000Y-92710000D01*
X107505500Y-105918000D02*
X107505500Y-93408500D01*
X108267500Y-106680000D02*
X107505500Y-105918000D01*
X58039000Y-49085500D02*
X58039000Y-67183000D01*
X58039000Y-67183000D02*
X59436000Y-68580000D01*
X60960000Y-68580000D02*
X59436000Y-68580000D01*
X48006000Y-48260000D02*
X57213500Y-48260000D01*
X57213500Y-48260000D02*
X58039000Y-49085500D01*
X34925000Y-46990000D02*
X35179000Y-46990000D01*
X35179000Y-46990000D02*
X36195000Y-45974000D01*
X37655500Y-35560000D02*
X40640000Y-35560000D01*
X36195000Y-37020500D02*
X37655500Y-35560000D01*
X36195000Y-45974000D02*
X36195000Y-37020500D01*
X70421500Y-33020000D02*
X70421500Y-41211500D01*
X70421500Y-41211500D02*
X68580000Y-43053000D01*
X68580000Y-92710000D02*
X68580000Y-43053000D01*
X72390000Y-96520000D02*
X68580000Y-92710000D01*
X86233000Y-39433500D02*
X86169500Y-39370000D01*
X86169500Y-39370000D02*
X86169500Y-33147000D01*
X86169500Y-33147000D02*
X88900000Y-30416500D01*
X88900000Y-30416500D02*
X88900000Y-27940000D01*
X74930000Y-29908500D02*
X74930000Y-34290000D01*
X75057000Y-29781500D02*
X74930000Y-29908500D01*
X71120000Y-92710000D02*
X71120000Y-35560000D01*
X72390000Y-93980000D02*
X71120000Y-92710000D01*
X34290000Y-93980000D02*
X35814000Y-93980000D01*
X59690000Y-86360000D02*
X60960000Y-86360000D01*
X53086000Y-92964000D02*
X59690000Y-86360000D01*
X36830000Y-92964000D02*
X53086000Y-92964000D01*
X35814000Y-93980000D02*
X36830000Y-92964000D01*
X34290000Y-91440000D02*
X53149500Y-91440000D01*
X53149500Y-91440000D02*
X56134000Y-88455500D01*
D34*
X34290000Y-83820000D02*
X37536500Y-83820000D01*
D35*
X51570000Y-87630000D02*
X45466000Y-87630000D01*
X42862500Y-82423000D02*
X41719500Y-81280000D01*
X42862500Y-85026500D02*
X42862500Y-82423000D01*
X45466000Y-87630000D02*
X42862500Y-85026500D01*
X71818500Y-78740000D02*
X71818500Y-88519000D01*
X71818500Y-88519000D02*
X72517000Y-89217500D01*
X37909500Y-93980000D02*
X56134000Y-93980000D01*
X37719000Y-94170500D02*
X37909500Y-93980000D01*
X58737500Y-65214500D02*
X58737500Y-48387000D01*
X60960000Y-66040000D02*
X59563000Y-66040000D01*
X58737500Y-65214500D02*
X59563000Y-66040000D01*
X57404000Y-47053500D02*
X49085500Y-47053500D01*
X58737500Y-48387000D02*
X57404000Y-47053500D01*
X45720000Y-33020000D02*
X43942000Y-33020000D01*
X42989500Y-33972500D02*
X42989500Y-43688000D01*
X43942000Y-33020000D02*
X42989500Y-33972500D01*
X59436000Y-47752000D02*
X59436000Y-62928500D01*
X59436000Y-62928500D02*
X60007500Y-63500000D01*
X57785000Y-46101000D02*
X59436000Y-47752000D01*
X48768000Y-46101000D02*
X57785000Y-46101000D01*
X47879000Y-46990000D02*
X48768000Y-46101000D01*
X43751500Y-46990000D02*
X43751500Y-36449000D01*
X44640500Y-35560000D02*
X43751500Y-36449000D01*
X44640500Y-35560000D02*
X45720000Y-35560000D01*
X60007500Y-63500000D02*
X60960000Y-63500000D01*
X45720000Y-40640000D02*
X45720000Y-43815000D01*
X46990000Y-45085000D02*
X45720000Y-43815000D01*
X46990000Y-60579000D02*
X46990000Y-45085000D01*
X47371000Y-60960000D02*
X46990000Y-60579000D01*
X86360000Y-93980000D02*
X85344000Y-93980000D01*
X84836000Y-94488000D02*
X84836000Y-106680000D01*
X85344000Y-93980000D02*
X84836000Y-94488000D01*
X90170000Y-95377000D02*
X90170000Y-110490000D01*
X88900000Y-94107000D02*
X90170000Y-95377000D01*
X90170000Y-110490000D02*
X88900000Y-111760000D01*
X121920000Y-99060000D02*
X121920000Y-104394000D01*
X123190000Y-105664000D02*
X123190000Y-108140500D01*
X121920000Y-104394000D02*
X123190000Y-105664000D01*
X86360000Y-99060000D02*
X88138000Y-99060000D01*
X88900000Y-99822000D02*
X88900000Y-106680000D01*
X88138000Y-99060000D02*
X88900000Y-99822000D01*
X92519500Y-91122500D02*
X92519500Y-91440000D01*
X92773500Y-90868500D02*
X92519500Y-91122500D01*
X92773500Y-79438500D02*
X92773500Y-90868500D01*
X124460000Y-73660000D02*
X122745500Y-73660000D01*
X121348500Y-72263000D02*
X121348500Y-51498500D01*
X122745500Y-73660000D02*
X121348500Y-72263000D01*
X100266500Y-53340000D02*
X101600000Y-53340000D01*
X99187000Y-54419500D02*
X100266500Y-53340000D01*
X99187000Y-58166000D02*
X99187000Y-54419500D01*
X124460000Y-66040000D02*
X122999500Y-66040000D01*
X122999500Y-66040000D02*
X122047000Y-65087500D01*
X122047000Y-65087500D02*
X122047000Y-52514500D01*
X100203000Y-55943500D02*
X101536500Y-55943500D01*
X99885500Y-56261000D02*
X100203000Y-55943500D01*
X99885500Y-58991500D02*
X99885500Y-56261000D01*
X101536500Y-55943500D02*
X101600000Y-55880000D01*
X124460000Y-63500000D02*
X123507500Y-63500000D01*
X123507500Y-63500000D02*
X122745500Y-62738000D01*
X122745500Y-62738000D02*
X122745500Y-56769000D01*
X88709500Y-51435000D02*
X88074500Y-50800000D01*
X88709500Y-64770000D02*
X88709500Y-51435000D01*
X82550000Y-60960000D02*
X82867500Y-60960000D01*
X82867500Y-60960000D02*
X83693000Y-60134500D01*
X83693000Y-60134500D02*
X83693000Y-51435000D01*
X83693000Y-51435000D02*
X84328000Y-50800000D01*
X84328000Y-50800000D02*
X86360000Y-50800000D01*
X88074500Y-50800000D02*
X86360000Y-50800000D01*
X82550000Y-63500000D02*
X82804000Y-63500000D01*
X82804000Y-63500000D02*
X84074000Y-62230000D01*
X84074000Y-62230000D02*
X84074000Y-54292500D01*
X84074000Y-54292500D02*
X85026500Y-53340000D01*
X85026500Y-53340000D02*
X86360000Y-53340000D01*
X87503000Y-53340000D02*
X86360000Y-53340000D01*
X87947500Y-53784500D02*
X87503000Y-53340000D01*
X87947500Y-55118000D02*
X87947500Y-53784500D01*
X84493102Y-56286398D02*
X84493102Y-63080898D01*
X86360000Y-55880000D02*
X84899500Y-55880000D01*
X84493102Y-56286398D02*
X84899500Y-55880000D01*
X82550000Y-65024000D02*
X82550000Y-66040000D01*
X84493102Y-63080898D02*
X82550000Y-65024000D01*
X107759500Y-56197500D02*
X107759500Y-62230000D01*
X82550000Y-68580000D02*
X82550000Y-67754500D01*
X85280500Y-58420000D02*
X86360000Y-58420000D01*
X84899500Y-58801000D02*
X85280500Y-58420000D01*
X84899500Y-63246000D02*
X84899500Y-58801000D01*
X83629500Y-64516000D02*
X84899500Y-63246000D01*
X83629500Y-66675000D02*
X83629500Y-64516000D01*
X82550000Y-67754500D02*
X83629500Y-66675000D01*
X109220000Y-55880000D02*
X108077000Y-55880000D01*
X108077000Y-55880000D02*
X107759500Y-56197500D01*
X116840000Y-113030000D02*
X116840000Y-106680000D01*
X91757500Y-71501000D02*
X91757500Y-113030000D01*
X91567000Y-71310500D02*
X91757500Y-71501000D01*
X89408000Y-71247000D02*
X89408000Y-60960000D01*
X89471500Y-71310500D02*
X89408000Y-71247000D01*
X65278000Y-84963000D02*
X64833500Y-85407500D01*
X64833500Y-85407500D02*
X64833500Y-88574500D01*
X64833500Y-88574500D02*
X64508000Y-88900000D01*
X52570000Y-87630000D02*
X57277000Y-87630000D01*
X63508000Y-85542500D02*
X63508000Y-88900000D01*
X63055500Y-85090000D02*
X63508000Y-85542500D01*
X59817000Y-85090000D02*
X63055500Y-85090000D01*
X57277000Y-87630000D02*
X59817000Y-85090000D01*
X63508000Y-88900000D02*
X60960000Y-88900000D01*
X63563500Y-106553000D02*
X63563500Y-94043500D01*
X111760000Y-112204500D02*
X111760000Y-106680000D01*
X116903500Y-53340000D02*
X116903500Y-97028000D01*
X114300000Y-102235000D02*
X114300000Y-106680000D01*
X114300000Y-102235000D02*
X115316000Y-101219000D01*
X115316000Y-98234500D02*
X115316000Y-101219000D01*
X116078000Y-97472500D02*
X115316000Y-98234500D01*
X116459000Y-97472500D02*
X116078000Y-97472500D01*
X116903500Y-97028000D02*
X116459000Y-97472500D01*
X119443500Y-98996500D02*
X119443500Y-92583000D01*
X119443500Y-98996500D02*
X119380000Y-99060000D01*
X98996500Y-91440000D02*
X98361500Y-90805000D01*
X98361500Y-90805000D02*
X98361500Y-61404500D01*
X98361500Y-61404500D02*
X99187000Y-60579000D01*
X76200000Y-86360000D02*
X76073000Y-86360000D01*
X76073000Y-86360000D02*
X74422000Y-88011000D01*
X74422000Y-88011000D02*
X74422000Y-97726500D01*
X100330000Y-99060000D02*
X101600000Y-99060000D01*
X99758500Y-98488500D02*
X100330000Y-99060000D01*
X99758500Y-67310000D02*
X99758500Y-85090000D01*
X99758500Y-85090000D02*
X99758500Y-98488500D01*
X88265000Y-89852500D02*
X88836500Y-89281000D01*
X88265000Y-95885000D02*
X88265000Y-89852500D01*
X88900000Y-96520000D02*
X88265000Y-95885000D01*
X102997000Y-96520000D02*
X101600000Y-96520000D01*
X103632000Y-95885000D02*
X102997000Y-96520000D01*
X103632000Y-55943500D02*
X103632000Y-95885000D01*
X62420500Y-98361500D02*
X61722000Y-99060000D01*
X62420500Y-92710000D02*
X62420500Y-98361500D01*
X61722000Y-99060000D02*
X60960000Y-99060000D01*
X120650000Y-84201000D02*
X120650000Y-65976500D01*
X124460000Y-86360000D02*
X122809000Y-86360000D01*
X87884000Y-65341500D02*
X87185500Y-66040000D01*
X87884000Y-62230000D02*
X87884000Y-65341500D01*
X122809000Y-86360000D02*
X120650000Y-84201000D01*
X87185500Y-66040000D02*
X86360000Y-66040000D01*
X77470000Y-58420000D02*
X76200000Y-58420000D01*
X77851000Y-58801000D02*
X77470000Y-58420000D01*
X77851000Y-66738500D02*
X77851000Y-58801000D01*
X124460000Y-88900000D02*
X122428000Y-88900000D01*
X119951500Y-86423500D02*
X119951500Y-71882000D01*
X122428000Y-88900000D02*
X119951500Y-86423500D01*
X86360000Y-71120000D02*
X86995000Y-71120000D01*
X86995000Y-71120000D02*
X88709500Y-69405500D01*
X88709500Y-69405500D02*
X88709500Y-65976500D01*
X124460000Y-83820000D02*
X122682000Y-83820000D01*
X121348500Y-82486500D02*
X121348500Y-73660000D01*
X122682000Y-83820000D02*
X121348500Y-82486500D01*
X85788500Y-73660000D02*
X84645500Y-72517000D01*
X84645500Y-72517000D02*
X84645500Y-66421000D01*
X86360000Y-73660000D02*
X85788500Y-73660000D01*
X124460000Y-81280000D02*
X123761500Y-81280000D01*
X123761500Y-81280000D02*
X122618500Y-80137000D01*
X122618500Y-80137000D02*
X122618500Y-75311000D01*
X74231500Y-55943500D02*
X76136500Y-55943500D01*
X73660000Y-56515000D02*
X74231500Y-55943500D01*
X73660000Y-77470000D02*
X73660000Y-56515000D01*
X76136500Y-55943500D02*
X76200000Y-55880000D01*
X99060000Y-87630000D02*
X99060000Y-79121000D01*
X69913500Y-82550000D02*
X69913500Y-68580000D01*
X90805000Y-81153000D02*
X90995500Y-81343500D01*
X90805000Y-52451000D02*
X90805000Y-81153000D01*
X89027000Y-50673000D02*
X90805000Y-52451000D01*
X74231500Y-53340000D02*
X76200000Y-53340000D01*
X72961500Y-54610000D02*
X74231500Y-53340000D01*
X72961500Y-85407500D02*
X72961500Y-54610000D01*
X73787000Y-86233000D02*
X72961500Y-85407500D01*
X72580500Y-53784500D02*
X73025000Y-53340000D01*
X72580500Y-86423500D02*
X72580500Y-53784500D01*
X73787000Y-87630000D02*
X72580500Y-86423500D01*
X86360000Y-96520000D02*
X87058500Y-96520000D01*
X87058500Y-96520000D02*
X87820500Y-95758000D01*
X87820500Y-95758000D02*
X87820500Y-82486500D01*
X87820500Y-82486500D02*
X87820500Y-74930000D01*
X100330000Y-30480000D02*
X100330000Y-31115000D01*
X100330000Y-31115000D02*
X99123500Y-32321500D01*
X99123500Y-32321500D02*
X96329500Y-32321500D01*
X96329500Y-32321500D02*
X95250000Y-33401000D01*
X95250000Y-33401000D02*
X95250000Y-36957000D01*
X95250000Y-36957000D02*
X91440000Y-40767000D01*
X91440000Y-40767000D02*
X91440000Y-43180000D01*
X102870000Y-30480000D02*
X102870000Y-31813500D01*
X93980000Y-40894000D02*
X93980000Y-43180000D01*
X97790000Y-37084000D02*
X93980000Y-40894000D01*
X97790000Y-33528000D02*
X97790000Y-37084000D01*
X98552000Y-32766000D02*
X97790000Y-33528000D01*
X101917500Y-32766000D02*
X98552000Y-32766000D01*
X102870000Y-31813500D02*
X101917500Y-32766000D01*
X105410000Y-30480000D02*
X105410000Y-31686500D01*
X96520000Y-41211500D02*
X96520000Y-43180000D01*
X100330000Y-37401500D02*
X96520000Y-41211500D01*
X100330000Y-33972500D02*
X100330000Y-37401500D01*
X101155500Y-33147000D02*
X100330000Y-33972500D01*
X103949500Y-33147000D02*
X101155500Y-33147000D01*
X105410000Y-31686500D02*
X103949500Y-33147000D01*
X107950000Y-30480000D02*
X107950000Y-31750000D01*
X99060000Y-41402000D02*
X99060000Y-43180000D01*
X102870000Y-37592000D02*
X99060000Y-41402000D01*
X102870000Y-34099500D02*
X102870000Y-37592000D01*
X103378000Y-33591500D02*
X102870000Y-34099500D01*
X106108500Y-33591500D02*
X103378000Y-33591500D01*
X107950000Y-31750000D02*
X106108500Y-33591500D01*
X110490000Y-30480000D02*
X110490000Y-31813500D01*
X101600000Y-41021000D02*
X101600000Y-43180000D01*
X105410000Y-37211000D02*
X101600000Y-41021000D01*
X105410000Y-34353500D02*
X105410000Y-37211000D01*
X105791000Y-33972500D02*
X105410000Y-34353500D01*
X108331000Y-33972500D02*
X105791000Y-33972500D01*
X110490000Y-31813500D02*
X108331000Y-33972500D01*
X113030000Y-30480000D02*
X113030000Y-31432500D01*
X104140000Y-40640000D02*
X104140000Y-43180000D01*
X106680000Y-38100000D02*
X104140000Y-40640000D01*
X109855000Y-38100000D02*
X106680000Y-38100000D01*
X110490000Y-37465000D02*
X109855000Y-38100000D01*
X110490000Y-33972500D02*
X110490000Y-37465000D01*
X113030000Y-31432500D02*
X110490000Y-33972500D01*
X115570000Y-30480000D02*
X115570000Y-31369000D01*
X115570000Y-31369000D02*
X113030000Y-33909000D01*
X113030000Y-33909000D02*
X113030000Y-37528500D01*
X113030000Y-37528500D02*
X112014000Y-38544500D01*
X112014000Y-38544500D02*
X108521500Y-38544500D01*
X108521500Y-38544500D02*
X106680000Y-40386000D01*
X106680000Y-40386000D02*
X106680000Y-43180000D01*
X118110000Y-30480000D02*
X118110000Y-31432500D01*
X118110000Y-31432500D02*
X115570000Y-33972500D01*
X115570000Y-33972500D02*
X115570000Y-37528500D01*
X115570000Y-37528500D02*
X114109500Y-38989000D01*
X114109500Y-38989000D02*
X110617000Y-38989000D01*
X110617000Y-38989000D02*
X109220000Y-40386000D01*
X109220000Y-40386000D02*
X109220000Y-43180000D01*
X77406500Y-91440000D02*
X76200000Y-91440000D01*
X78295500Y-90551000D02*
X77406500Y-91440000D01*
X78295500Y-90043000D02*
X78295500Y-90551000D01*
X79629000Y-88709500D02*
X78295500Y-90043000D01*
X80835500Y-88709500D02*
X79629000Y-88709500D01*
X81470500Y-88074500D02*
X80835500Y-88709500D01*
X81470500Y-77470000D02*
X81470500Y-88074500D01*
X95186500Y-100520500D02*
X95186500Y-114300000D01*
X62611000Y-72326500D02*
X62611000Y-52451000D01*
X66167000Y-72326500D02*
X66167000Y-113220500D01*
X62611000Y-52451000D02*
X60960000Y-50800000D01*
X56515000Y-109855000D02*
X56515000Y-105981500D01*
X59245500Y-96520000D02*
X60960000Y-96520000D01*
X58801000Y-96964500D02*
X59245500Y-96520000D01*
X58801000Y-103695500D02*
X58801000Y-96964500D01*
X56515000Y-105981500D02*
X58801000Y-103695500D01*
X88963500Y-90360500D02*
X88963500Y-93091000D01*
X90106500Y-89217500D02*
X88963500Y-90360500D01*
X90106500Y-63500000D02*
X90106500Y-89217500D01*
X80010000Y-106680000D02*
X77152500Y-106680000D01*
X76200000Y-105727500D02*
X76200000Y-99060000D01*
X77152500Y-106680000D02*
X76200000Y-105727500D01*
X78168500Y-82296000D02*
X77152500Y-81280000D01*
X78168500Y-87630000D02*
X78168500Y-82296000D01*
X77152500Y-81280000D02*
X76200000Y-81280000D01*
X80010000Y-38163500D02*
X80010000Y-44450000D01*
X80962500Y-37211000D02*
X80010000Y-38163500D01*
X85090000Y-109982000D02*
X85598000Y-109982000D01*
X85598000Y-109982000D02*
X87630000Y-112014000D01*
X87630000Y-112014000D02*
X87630000Y-113030000D01*
X87630000Y-113030000D02*
X88900000Y-114300000D01*
X101600000Y-114300000D02*
X104457500Y-114300000D01*
X104457500Y-114300000D02*
X105610000Y-113147500D01*
X105610000Y-113147500D02*
X105610000Y-109982000D01*
X97091500Y-109664500D02*
X97091500Y-111760000D01*
X99060000Y-109220000D02*
X97536000Y-109220000D01*
X97536000Y-109220000D02*
X97091500Y-109664500D01*
X103505000Y-111760000D02*
X104140000Y-111125000D01*
X99060000Y-111760000D02*
X103505000Y-111760000D01*
X104140000Y-111125000D02*
X104140000Y-109982000D01*
D34*
G36*
X59055000Y-83439000D02*
X53134540Y-83439000D01*
X53156574Y-83416966D01*
X53041519Y-83301911D01*
X53282460Y-83233923D01*
X53467201Y-82714829D01*
X53439230Y-82164552D01*
X53282460Y-81786077D01*
X53041517Y-81718088D01*
X52249605Y-82510000D01*
X52263748Y-82524143D01*
X52084143Y-82703748D01*
X52070000Y-82689605D01*
X52055858Y-82703748D01*
X51876253Y-82524143D01*
X51890395Y-82510000D01*
X51098483Y-81718088D01*
X50857540Y-81786077D01*
X50672799Y-82305171D01*
X50700770Y-82855448D01*
X50857540Y-83233923D01*
X51098481Y-83301911D01*
X50983426Y-83416966D01*
X51005460Y-83439000D01*
X49657000Y-83439000D01*
X49657000Y-79260000D01*
X50884635Y-79260000D01*
X50884635Y-80760000D01*
X50914409Y-80918237D01*
X51007927Y-81063567D01*
X51150619Y-81161064D01*
X51320000Y-81195365D01*
X51592748Y-81195365D01*
X51346077Y-81297540D01*
X51278088Y-81538483D01*
X52070000Y-82330395D01*
X52861912Y-81538483D01*
X52793923Y-81297540D01*
X52506827Y-81195365D01*
X52820000Y-81195365D01*
X52978237Y-81165591D01*
X53123567Y-81072073D01*
X53221064Y-80929381D01*
X53231450Y-80878093D01*
X55337796Y-80878093D01*
X55516606Y-81310846D01*
X55847412Y-81642230D01*
X56279853Y-81821795D01*
X56748093Y-81822204D01*
X57180846Y-81643394D01*
X57512230Y-81312588D01*
X57691795Y-80880147D01*
X57692204Y-80411907D01*
X57513394Y-79979154D01*
X57182588Y-79647770D01*
X56750147Y-79468205D01*
X56281907Y-79467796D01*
X55849154Y-79646606D01*
X55517770Y-79977412D01*
X55338205Y-80409853D01*
X55337796Y-80878093D01*
X53231450Y-80878093D01*
X53255365Y-80760000D01*
X53255365Y-79260000D01*
X53225591Y-79101763D01*
X53132073Y-78956433D01*
X52989381Y-78858936D01*
X52820000Y-78824635D01*
X51320000Y-78824635D01*
X51161763Y-78854409D01*
X51016433Y-78947927D01*
X50918936Y-79090619D01*
X50884635Y-79260000D01*
X49657000Y-79260000D01*
X49657000Y-75450000D01*
X50884635Y-75450000D01*
X50884635Y-76950000D01*
X50914409Y-77108237D01*
X51007927Y-77253567D01*
X51150619Y-77351064D01*
X51320000Y-77385365D01*
X52820000Y-77385365D01*
X52978237Y-77355591D01*
X53123567Y-77262073D01*
X53221064Y-77119381D01*
X53255365Y-76950000D01*
X53255365Y-75798093D01*
X55337796Y-75798093D01*
X55516606Y-76230846D01*
X55847412Y-76562230D01*
X56279853Y-76741795D01*
X56748093Y-76742204D01*
X57180846Y-76563394D01*
X57512230Y-76232588D01*
X57691795Y-75800147D01*
X57692204Y-75331907D01*
X57513394Y-74899154D01*
X57182588Y-74567770D01*
X56750147Y-74388205D01*
X56281907Y-74387796D01*
X55849154Y-74566606D01*
X55517770Y-74897412D01*
X55338205Y-75329853D01*
X55337796Y-75798093D01*
X53255365Y-75798093D01*
X53255365Y-75450000D01*
X53225591Y-75291763D01*
X53132073Y-75146433D01*
X52989381Y-75048936D01*
X52820000Y-75014635D01*
X52547252Y-75014635D01*
X52793923Y-74912460D01*
X52861912Y-74671517D01*
X52070000Y-73879605D01*
X51278088Y-74671517D01*
X51346077Y-74912460D01*
X51633173Y-75014635D01*
X51320000Y-75014635D01*
X51161763Y-75044409D01*
X51016433Y-75137927D01*
X50918936Y-75280619D01*
X50884635Y-75450000D01*
X49657000Y-75450000D01*
X49657000Y-73495171D01*
X50672799Y-73495171D01*
X50700770Y-74045448D01*
X50857540Y-74423923D01*
X51098483Y-74491912D01*
X51890395Y-73700000D01*
X52249605Y-73700000D01*
X53041517Y-74491912D01*
X53282460Y-74423923D01*
X53467201Y-73904829D01*
X53439230Y-73354552D01*
X53282460Y-72976077D01*
X53041517Y-72908088D01*
X52249605Y-73700000D01*
X51890395Y-73700000D01*
X51098483Y-72908088D01*
X50857540Y-72976077D01*
X50672799Y-73495171D01*
X49657000Y-73495171D01*
X49657000Y-72728483D01*
X51278088Y-72728483D01*
X52070000Y-73520395D01*
X52861912Y-72728483D01*
X52793923Y-72487540D01*
X52274829Y-72302799D01*
X51724552Y-72330770D01*
X51346077Y-72487540D01*
X51278088Y-72728483D01*
X49657000Y-72728483D01*
X49657000Y-72263000D01*
X59055000Y-72263000D01*
X59055000Y-83439000D01*
X59055000Y-83439000D01*
G37*
X59055000Y-83439000D02*
X53134540Y-83439000D01*
X53156574Y-83416966D01*
X53041519Y-83301911D01*
X53282460Y-83233923D01*
X53467201Y-82714829D01*
X53439230Y-82164552D01*
X53282460Y-81786077D01*
X53041517Y-81718088D01*
X52249605Y-82510000D01*
X52263748Y-82524143D01*
X52084143Y-82703748D01*
X52070000Y-82689605D01*
X52055858Y-82703748D01*
X51876253Y-82524143D01*
X51890395Y-82510000D01*
X51098483Y-81718088D01*
X50857540Y-81786077D01*
X50672799Y-82305171D01*
X50700770Y-82855448D01*
X50857540Y-83233923D01*
X51098481Y-83301911D01*
X50983426Y-83416966D01*
X51005460Y-83439000D01*
X49657000Y-83439000D01*
X49657000Y-79260000D01*
X50884635Y-79260000D01*
X50884635Y-80760000D01*
X50914409Y-80918237D01*
X51007927Y-81063567D01*
X51150619Y-81161064D01*
X51320000Y-81195365D01*
X51592748Y-81195365D01*
X51346077Y-81297540D01*
X51278088Y-81538483D01*
X52070000Y-82330395D01*
X52861912Y-81538483D01*
X52793923Y-81297540D01*
X52506827Y-81195365D01*
X52820000Y-81195365D01*
X52978237Y-81165591D01*
X53123567Y-81072073D01*
X53221064Y-80929381D01*
X53231450Y-80878093D01*
X55337796Y-80878093D01*
X55516606Y-81310846D01*
X55847412Y-81642230D01*
X56279853Y-81821795D01*
X56748093Y-81822204D01*
X57180846Y-81643394D01*
X57512230Y-81312588D01*
X57691795Y-80880147D01*
X57692204Y-80411907D01*
X57513394Y-79979154D01*
X57182588Y-79647770D01*
X56750147Y-79468205D01*
X56281907Y-79467796D01*
X55849154Y-79646606D01*
X55517770Y-79977412D01*
X55338205Y-80409853D01*
X55337796Y-80878093D01*
X53231450Y-80878093D01*
X53255365Y-80760000D01*
X53255365Y-79260000D01*
X53225591Y-79101763D01*
X53132073Y-78956433D01*
X52989381Y-78858936D01*
X52820000Y-78824635D01*
X51320000Y-78824635D01*
X51161763Y-78854409D01*
X51016433Y-78947927D01*
X50918936Y-79090619D01*
X50884635Y-79260000D01*
X49657000Y-79260000D01*
X49657000Y-75450000D01*
X50884635Y-75450000D01*
X50884635Y-76950000D01*
X50914409Y-77108237D01*
X51007927Y-77253567D01*
X51150619Y-77351064D01*
X51320000Y-77385365D01*
X52820000Y-77385365D01*
X52978237Y-77355591D01*
X53123567Y-77262073D01*
X53221064Y-77119381D01*
X53255365Y-76950000D01*
X53255365Y-75798093D01*
X55337796Y-75798093D01*
X55516606Y-76230846D01*
X55847412Y-76562230D01*
X56279853Y-76741795D01*
X56748093Y-76742204D01*
X57180846Y-76563394D01*
X57512230Y-76232588D01*
X57691795Y-75800147D01*
X57692204Y-75331907D01*
X57513394Y-74899154D01*
X57182588Y-74567770D01*
X56750147Y-74388205D01*
X56281907Y-74387796D01*
X55849154Y-74566606D01*
X55517770Y-74897412D01*
X55338205Y-75329853D01*
X55337796Y-75798093D01*
X53255365Y-75798093D01*
X53255365Y-75450000D01*
X53225591Y-75291763D01*
X53132073Y-75146433D01*
X52989381Y-75048936D01*
X52820000Y-75014635D01*
X52547252Y-75014635D01*
X52793923Y-74912460D01*
X52861912Y-74671517D01*
X52070000Y-73879605D01*
X51278088Y-74671517D01*
X51346077Y-74912460D01*
X51633173Y-75014635D01*
X51320000Y-75014635D01*
X51161763Y-75044409D01*
X51016433Y-75137927D01*
X50918936Y-75280619D01*
X50884635Y-75450000D01*
X49657000Y-75450000D01*
X49657000Y-73495171D01*
X50672799Y-73495171D01*
X50700770Y-74045448D01*
X50857540Y-74423923D01*
X51098483Y-74491912D01*
X51890395Y-73700000D01*
X52249605Y-73700000D01*
X53041517Y-74491912D01*
X53282460Y-74423923D01*
X53467201Y-73904829D01*
X53439230Y-73354552D01*
X53282460Y-72976077D01*
X53041517Y-72908088D01*
X52249605Y-73700000D01*
X51890395Y-73700000D01*
X51098483Y-72908088D01*
X50857540Y-72976077D01*
X50672799Y-73495171D01*
X49657000Y-73495171D01*
X49657000Y-72728483D01*
X51278088Y-72728483D01*
X52070000Y-73520395D01*
X52861912Y-72728483D01*
X52793923Y-72487540D01*
X52274829Y-72302799D01*
X51724552Y-72330770D01*
X51346077Y-72487540D01*
X51278088Y-72728483D01*
X49657000Y-72728483D01*
X49657000Y-72263000D01*
X59055000Y-72263000D01*
X59055000Y-83439000D01*
G36*
X42212366Y-43841877D02*
X42330408Y-44127560D01*
X42548790Y-44346324D01*
X42834267Y-44464865D01*
X43143377Y-44465134D01*
X43235600Y-44427028D01*
X43235600Y-46407115D01*
X43093176Y-46549290D01*
X42974635Y-46834767D01*
X42974366Y-47143877D01*
X43092408Y-47429560D01*
X43310790Y-47648324D01*
X43596267Y-47766865D01*
X43905377Y-47767134D01*
X44191060Y-47649092D01*
X44409824Y-47430710D01*
X44528365Y-47145233D01*
X44528390Y-47117000D01*
X46474100Y-47117000D01*
X46474100Y-52869483D01*
X46443923Y-52762540D01*
X45924829Y-52577799D01*
X45374552Y-52605770D01*
X44996077Y-52762540D01*
X44928088Y-53003483D01*
X45720000Y-53795395D01*
X45734143Y-53781253D01*
X45913748Y-53960858D01*
X45899605Y-53975000D01*
X45913748Y-53989143D01*
X45734143Y-54168748D01*
X45720000Y-54154605D01*
X44928088Y-54946517D01*
X44996077Y-55187460D01*
X45515171Y-55372201D01*
X46065448Y-55344230D01*
X46443923Y-55187460D01*
X46474100Y-55080517D01*
X46474100Y-60579000D01*
X46510616Y-60762574D01*
X46513371Y-60776426D01*
X46594055Y-60897178D01*
X46593866Y-61113877D01*
X46711908Y-61399560D01*
X46930290Y-61618324D01*
X47117000Y-61695853D01*
X47117000Y-81407000D01*
X42576092Y-81407000D01*
X42496459Y-81327367D01*
X42496634Y-81126123D01*
X42378592Y-80840440D01*
X42160210Y-80621676D01*
X41874733Y-80503135D01*
X41565623Y-80502866D01*
X41279940Y-80620908D01*
X41255806Y-80645000D01*
X35532030Y-80645000D01*
X35400222Y-80447735D01*
X35018375Y-80192594D01*
X34567957Y-80103000D01*
X34012043Y-80103000D01*
X33561625Y-80192594D01*
X33179778Y-80447735D01*
X32924637Y-80829582D01*
X32835043Y-81280000D01*
X32924637Y-81730418D01*
X33147000Y-82063209D01*
X33147000Y-83036791D01*
X32924637Y-83369582D01*
X32835043Y-83820000D01*
X32924637Y-84270418D01*
X33147000Y-84603209D01*
X33147000Y-85576791D01*
X32924637Y-85909582D01*
X32835043Y-86360000D01*
X32924637Y-86810418D01*
X33179778Y-87192265D01*
X33561625Y-87447406D01*
X33909529Y-87516609D01*
X33418279Y-87650036D01*
X32987264Y-87983106D01*
X32716519Y-88455765D01*
X32697682Y-88558815D01*
X32820344Y-88773000D01*
X34163000Y-88773000D01*
X34163000Y-89027000D01*
X32820344Y-89027000D01*
X32697682Y-89241185D01*
X32716519Y-89344235D01*
X32987264Y-89816894D01*
X33418279Y-90149964D01*
X33909529Y-90283391D01*
X33561625Y-90352594D01*
X33179778Y-90607735D01*
X32924637Y-90989582D01*
X32835043Y-91440000D01*
X32924637Y-91890418D01*
X33179778Y-92272265D01*
X33401000Y-92420080D01*
X33401000Y-92999920D01*
X33179778Y-93147735D01*
X32924637Y-93529582D01*
X32835043Y-93980000D01*
X32924637Y-94430418D01*
X33179778Y-94812265D01*
X33561625Y-95067406D01*
X34012043Y-95157000D01*
X34567957Y-95157000D01*
X35018375Y-95067406D01*
X35400222Y-94812265D01*
X35611609Y-94495900D01*
X35814000Y-94495900D01*
X36011426Y-94456629D01*
X36178796Y-94344796D01*
X37043692Y-93479900D01*
X37355695Y-93479900D01*
X37279440Y-93511408D01*
X37060676Y-93729790D01*
X36942135Y-94015267D01*
X36941866Y-94324377D01*
X37059908Y-94610060D01*
X37278290Y-94828824D01*
X37563767Y-94947365D01*
X37872877Y-94947634D01*
X38158560Y-94829592D01*
X38377324Y-94611210D01*
X38425205Y-94495900D01*
X55551115Y-94495900D01*
X55693290Y-94638324D01*
X55978767Y-94756865D01*
X56287877Y-94757134D01*
X56573560Y-94639092D01*
X56792324Y-94420710D01*
X56910865Y-94135233D01*
X56910890Y-94107000D01*
X57277000Y-94107000D01*
X57277000Y-104489907D01*
X56150204Y-105616704D01*
X56038371Y-105784074D01*
X55999100Y-105981500D01*
X55999100Y-108794650D01*
X55849154Y-108856606D01*
X55517770Y-109187412D01*
X55338205Y-109619853D01*
X55337796Y-110088093D01*
X55516606Y-110520846D01*
X55847412Y-110852230D01*
X56279853Y-111031795D01*
X56748093Y-111032204D01*
X57180846Y-110853394D01*
X57512230Y-110522588D01*
X57691795Y-110090147D01*
X57692166Y-109665159D01*
X60059446Y-109665159D01*
X60145852Y-109921643D01*
X60719336Y-110131458D01*
X61329460Y-110105839D01*
X61774148Y-109921643D01*
X61860554Y-109665159D01*
X60960000Y-108764605D01*
X60059446Y-109665159D01*
X57692166Y-109665159D01*
X57692204Y-109621907D01*
X57513394Y-109189154D01*
X57182588Y-108857770D01*
X57030900Y-108794784D01*
X57030900Y-108344336D01*
X59413542Y-108344336D01*
X59439161Y-108954460D01*
X59623357Y-109399148D01*
X59879841Y-109485554D01*
X60780395Y-108585000D01*
X61139605Y-108585000D01*
X62040159Y-109485554D01*
X62296643Y-109399148D01*
X62506458Y-108825664D01*
X62480839Y-108215540D01*
X62296643Y-107770852D01*
X62040159Y-107684446D01*
X61139605Y-108585000D01*
X60780395Y-108585000D01*
X59879841Y-107684446D01*
X59623357Y-107770852D01*
X59413542Y-108344336D01*
X57030900Y-108344336D01*
X57030900Y-107504841D01*
X60059446Y-107504841D01*
X60960000Y-108405395D01*
X61860554Y-107504841D01*
X61774148Y-107248357D01*
X61200664Y-107038542D01*
X60590540Y-107064161D01*
X60145852Y-107248357D01*
X60059446Y-107504841D01*
X57030900Y-107504841D01*
X57030900Y-106195192D01*
X57435092Y-105791000D01*
X63047600Y-105791000D01*
X63047600Y-105970115D01*
X62905176Y-106112290D01*
X62786635Y-106397767D01*
X62786366Y-106706877D01*
X62904408Y-106992560D01*
X63122790Y-107211324D01*
X63408267Y-107329865D01*
X63717377Y-107330134D01*
X64003060Y-107212092D01*
X64221824Y-106993710D01*
X64340365Y-106708233D01*
X64340634Y-106399123D01*
X64222592Y-106113440D01*
X64079400Y-105969998D01*
X64079400Y-105791000D01*
X65651100Y-105791000D01*
X65651100Y-112637615D01*
X65508676Y-112779790D01*
X65390135Y-113065267D01*
X65389866Y-113374377D01*
X65507908Y-113660060D01*
X65726290Y-113878824D01*
X66011767Y-113997365D01*
X66320877Y-113997634D01*
X66606560Y-113879592D01*
X66825324Y-113661210D01*
X66943865Y-113375733D01*
X66944134Y-113066623D01*
X66826092Y-112780940D01*
X66682900Y-112637498D01*
X66682900Y-107685000D01*
X69784635Y-107685000D01*
X69784635Y-109485000D01*
X69814409Y-109643237D01*
X69907927Y-109788567D01*
X70050619Y-109886064D01*
X70220000Y-109920365D01*
X70231000Y-109920365D01*
X70231000Y-110984371D01*
X70122770Y-111092412D01*
X69943205Y-111524853D01*
X69942796Y-111993093D01*
X70121606Y-112425846D01*
X70452412Y-112757230D01*
X70884853Y-112936795D01*
X71353093Y-112937204D01*
X71785846Y-112758394D01*
X72117230Y-112427588D01*
X72123176Y-112413269D01*
X72191600Y-112481693D01*
X72191600Y-117411500D01*
X72222690Y-117567796D01*
X72230871Y-117608926D01*
X72342704Y-117776296D01*
X73676204Y-119109797D01*
X73843574Y-119221629D01*
X74041000Y-119260900D01*
X76284635Y-119260900D01*
X76284635Y-119495000D01*
X76314409Y-119653237D01*
X76407927Y-119798567D01*
X76550619Y-119896064D01*
X76720000Y-119930365D01*
X78220000Y-119930365D01*
X78378237Y-119900591D01*
X78523567Y-119807073D01*
X78621064Y-119664381D01*
X78655365Y-119495000D01*
X78655365Y-117995000D01*
X78625591Y-117836763D01*
X78602192Y-117800400D01*
X79224808Y-117800400D01*
X79257508Y-117833100D01*
X79012770Y-118077412D01*
X78833205Y-118509853D01*
X78832796Y-118978093D01*
X79011606Y-119410846D01*
X79342412Y-119742230D01*
X79774853Y-119921795D01*
X80243093Y-119922204D01*
X80675846Y-119743394D01*
X81007230Y-119412588D01*
X81186795Y-118980147D01*
X81187204Y-118511907D01*
X81008394Y-118079154D01*
X80924387Y-117995000D01*
X85174635Y-117995000D01*
X85174635Y-119495000D01*
X85204409Y-119653237D01*
X85297927Y-119798567D01*
X85440619Y-119896064D01*
X85610000Y-119930365D01*
X87110000Y-119930365D01*
X87268237Y-119900591D01*
X87413567Y-119807073D01*
X87511064Y-119664381D01*
X87545365Y-119495000D01*
X87545365Y-118978093D01*
X87722796Y-118978093D01*
X87901606Y-119410846D01*
X88232412Y-119742230D01*
X88664853Y-119921795D01*
X89133093Y-119922204D01*
X89565846Y-119743394D01*
X89897230Y-119412588D01*
X90076795Y-118980147D01*
X90077204Y-118511907D01*
X89898394Y-118079154D01*
X89814387Y-117995000D01*
X94064635Y-117995000D01*
X94064635Y-119495000D01*
X94094409Y-119653237D01*
X94187927Y-119798567D01*
X94330619Y-119896064D01*
X94500000Y-119930365D01*
X96000000Y-119930365D01*
X96158237Y-119900591D01*
X96303567Y-119807073D01*
X96401064Y-119664381D01*
X96435365Y-119495000D01*
X96435365Y-118978093D01*
X96612796Y-118978093D01*
X96791606Y-119410846D01*
X97122412Y-119742230D01*
X97554853Y-119921795D01*
X98023093Y-119922204D01*
X98455846Y-119743394D01*
X98787230Y-119412588D01*
X98966795Y-118980147D01*
X98967204Y-118511907D01*
X98788394Y-118079154D01*
X98704387Y-117995000D01*
X102954635Y-117995000D01*
X102954635Y-119495000D01*
X102984409Y-119653237D01*
X103077927Y-119798567D01*
X103220619Y-119896064D01*
X103390000Y-119930365D01*
X104890000Y-119930365D01*
X105048237Y-119900591D01*
X105193567Y-119807073D01*
X105291064Y-119664381D01*
X105325365Y-119495000D01*
X105325365Y-117995000D01*
X105295591Y-117836763D01*
X105202073Y-117691433D01*
X105059381Y-117593936D01*
X104890000Y-117559635D01*
X103390000Y-117559635D01*
X103231763Y-117589409D01*
X103086433Y-117682927D01*
X102988936Y-117825619D01*
X102954635Y-117995000D01*
X98704387Y-117995000D01*
X98457588Y-117747770D01*
X98305900Y-117684784D01*
X98305900Y-115212192D01*
X98306712Y-115211380D01*
X98392412Y-115297230D01*
X98824853Y-115476795D01*
X99293093Y-115477204D01*
X99725846Y-115298394D01*
X100057230Y-114967588D01*
X100070762Y-114935000D01*
X100588861Y-114935000D01*
X100601606Y-114965846D01*
X100932412Y-115297230D01*
X101364853Y-115476795D01*
X101833093Y-115477204D01*
X102265846Y-115298394D01*
X102597230Y-114967588D01*
X102660216Y-114815900D01*
X104457500Y-114815900D01*
X104654926Y-114776629D01*
X104822296Y-114664796D01*
X105974796Y-113512296D01*
X106086629Y-113344926D01*
X106095246Y-113301606D01*
X106125900Y-113147500D01*
X106125900Y-110952837D01*
X106265488Y-110859567D01*
X106466436Y-110558827D01*
X106537000Y-110204079D01*
X106537000Y-109759921D01*
X106466436Y-109405173D01*
X106265488Y-109104433D01*
X105964748Y-108903485D01*
X105610000Y-108832921D01*
X105255252Y-108903485D01*
X104954512Y-109104433D01*
X104875000Y-109223431D01*
X104795488Y-109104433D01*
X104494748Y-108903485D01*
X104140000Y-108832921D01*
X103785252Y-108903485D01*
X103718898Y-108947821D01*
X103708327Y-108922301D01*
X103529698Y-108743673D01*
X103296309Y-108647000D01*
X102955750Y-108647000D01*
X102797000Y-108805750D01*
X102797000Y-109855000D01*
X102817000Y-109855000D01*
X102817000Y-110109000D01*
X102797000Y-110109000D01*
X102797000Y-110129000D01*
X102543000Y-110129000D01*
X102543000Y-110109000D01*
X101693750Y-110109000D01*
X101535000Y-110267750D01*
X101535000Y-110808310D01*
X101631673Y-111041699D01*
X101810302Y-111220327D01*
X101867695Y-111244100D01*
X100120350Y-111244100D01*
X100058394Y-111094154D01*
X99727588Y-110762770D01*
X99295147Y-110583205D01*
X98826907Y-110582796D01*
X98394154Y-110761606D01*
X98062770Y-111092412D01*
X97883205Y-111524853D01*
X97882796Y-111993093D01*
X98061606Y-112425846D01*
X98171000Y-112535431D01*
X98171000Y-113524371D01*
X98062770Y-113632412D01*
X97883205Y-114064853D01*
X97883108Y-114175799D01*
X97425204Y-114633704D01*
X97313371Y-114801074D01*
X97274100Y-114998500D01*
X97274100Y-117684650D01*
X97124154Y-117746606D01*
X96792770Y-118077412D01*
X96613205Y-118509853D01*
X96612796Y-118978093D01*
X96435365Y-118978093D01*
X96435365Y-117995000D01*
X96405591Y-117836763D01*
X96312073Y-117691433D01*
X96169381Y-117593936D01*
X96000000Y-117559635D01*
X94500000Y-117559635D01*
X94341763Y-117589409D01*
X94196433Y-117682927D01*
X94098936Y-117825619D01*
X94064635Y-117995000D01*
X89814387Y-117995000D01*
X89567588Y-117747770D01*
X89135147Y-117568205D01*
X88666907Y-117567796D01*
X88234154Y-117746606D01*
X87902770Y-118077412D01*
X87723205Y-118509853D01*
X87722796Y-118978093D01*
X87545365Y-118978093D01*
X87545365Y-117995000D01*
X87515591Y-117836763D01*
X87422073Y-117691433D01*
X87279381Y-117593936D01*
X87110000Y-117559635D01*
X85610000Y-117559635D01*
X85451763Y-117589409D01*
X85306433Y-117682927D01*
X85208936Y-117825619D01*
X85174635Y-117995000D01*
X80924387Y-117995000D01*
X80677588Y-117747770D01*
X80488776Y-117669369D01*
X80486629Y-117658574D01*
X80374796Y-117491204D01*
X79803296Y-116919704D01*
X79635926Y-116807871D01*
X79438500Y-116768600D01*
X74381693Y-116768600D01*
X73858400Y-116245308D01*
X73858400Y-114533093D01*
X75022796Y-114533093D01*
X75201606Y-114965846D01*
X75532412Y-115297230D01*
X75964853Y-115476795D01*
X76433093Y-115477204D01*
X76865846Y-115298394D01*
X77197230Y-114967588D01*
X77376795Y-114535147D01*
X77376796Y-114533093D01*
X85182796Y-114533093D01*
X85361606Y-114965846D01*
X85692412Y-115297230D01*
X86124853Y-115476795D01*
X86593093Y-115477204D01*
X87025846Y-115298394D01*
X87357230Y-114967588D01*
X87536795Y-114535147D01*
X87537204Y-114066907D01*
X87358394Y-113634154D01*
X87027588Y-113302770D01*
X86595147Y-113123205D01*
X86126907Y-113122796D01*
X85694154Y-113301606D01*
X85362770Y-113632412D01*
X85183205Y-114064853D01*
X85182796Y-114533093D01*
X77376796Y-114533093D01*
X77377204Y-114066907D01*
X77198394Y-113634154D01*
X76867588Y-113302770D01*
X76435147Y-113123205D01*
X75966907Y-113122796D01*
X75534154Y-113301606D01*
X75202770Y-113632412D01*
X75023205Y-114064853D01*
X75022796Y-114533093D01*
X73858400Y-114533093D01*
X73858400Y-110267750D01*
X81215000Y-110267750D01*
X81215000Y-110808310D01*
X81311673Y-111041699D01*
X81490302Y-111220327D01*
X81723691Y-111317000D01*
X82064250Y-111317000D01*
X82223000Y-111158250D01*
X82223000Y-110109000D01*
X81373750Y-110109000D01*
X81215000Y-110267750D01*
X73858400Y-110267750D01*
X73858400Y-110045500D01*
X73819129Y-109848074D01*
X73707296Y-109680704D01*
X73182282Y-109155690D01*
X81215000Y-109155690D01*
X81215000Y-109696250D01*
X81373750Y-109855000D01*
X82223000Y-109855000D01*
X82223000Y-108805750D01*
X82064250Y-108647000D01*
X81723691Y-108647000D01*
X81490302Y-108743673D01*
X81311673Y-108922301D01*
X81215000Y-109155690D01*
X73182282Y-109155690D01*
X72455365Y-108428773D01*
X72455365Y-107685000D01*
X72425591Y-107526763D01*
X72332073Y-107381433D01*
X72189381Y-107283936D01*
X72020000Y-107249635D01*
X70220000Y-107249635D01*
X70061763Y-107279409D01*
X69916433Y-107372927D01*
X69818936Y-107515619D01*
X69784635Y-107685000D01*
X66682900Y-107685000D01*
X66682900Y-105791000D01*
X75696731Y-105791000D01*
X75721993Y-105918000D01*
X75723371Y-105924926D01*
X75835204Y-106092296D01*
X76787703Y-107044796D01*
X76955073Y-107156629D01*
X76987829Y-107163144D01*
X77152500Y-107195900D01*
X78949650Y-107195900D01*
X79011606Y-107345846D01*
X79342412Y-107677230D01*
X79774853Y-107856795D01*
X80243093Y-107857204D01*
X80675846Y-107678394D01*
X81007230Y-107347588D01*
X81186795Y-106915147D01*
X81187204Y-106446907D01*
X81008394Y-106014154D01*
X80785629Y-105791000D01*
X83693000Y-105791000D01*
X83693000Y-108858183D01*
X83465252Y-108903485D01*
X83398898Y-108947821D01*
X83388327Y-108922301D01*
X83209698Y-108743673D01*
X82976309Y-108647000D01*
X82635750Y-108647000D01*
X82477000Y-108805750D01*
X82477000Y-109855000D01*
X82497000Y-109855000D01*
X82497000Y-110109000D01*
X82477000Y-110109000D01*
X82477000Y-111158250D01*
X82635750Y-111317000D01*
X82976309Y-111317000D01*
X83209698Y-111220327D01*
X83388327Y-111041699D01*
X83398898Y-111016179D01*
X83465252Y-111060515D01*
X83820000Y-111131079D01*
X84174748Y-111060515D01*
X84475488Y-110859567D01*
X84555000Y-110740569D01*
X84634512Y-110859567D01*
X84935252Y-111060515D01*
X85290000Y-111131079D01*
X85644748Y-111060515D01*
X85825889Y-110939481D01*
X87114100Y-112227692D01*
X87114100Y-113030000D01*
X87144978Y-113185233D01*
X87153371Y-113227426D01*
X87265204Y-113394796D01*
X87785423Y-113915015D01*
X87723205Y-114064853D01*
X87722796Y-114533093D01*
X87901606Y-114965846D01*
X88232412Y-115297230D01*
X88664853Y-115476795D01*
X89133093Y-115477204D01*
X89565846Y-115298394D01*
X89897230Y-114967588D01*
X90076795Y-114535147D01*
X90076889Y-114427000D01*
X94409389Y-114427000D01*
X94409366Y-114453877D01*
X94527408Y-114739560D01*
X94745790Y-114958324D01*
X95031267Y-115076865D01*
X95340377Y-115077134D01*
X95626060Y-114959092D01*
X95844824Y-114740710D01*
X95963365Y-114455233D01*
X95963634Y-114146123D01*
X95845592Y-113860440D01*
X95702400Y-113716998D01*
X95702400Y-111913877D01*
X96314366Y-111913877D01*
X96432408Y-112199560D01*
X96650790Y-112418324D01*
X96936267Y-112536865D01*
X97245377Y-112537134D01*
X97531060Y-112419092D01*
X97749824Y-112200710D01*
X97868365Y-111915233D01*
X97868634Y-111606123D01*
X97750592Y-111320440D01*
X97607400Y-111176998D01*
X97607400Y-109878192D01*
X97749692Y-109735900D01*
X97999650Y-109735900D01*
X98061606Y-109885846D01*
X98392412Y-110217230D01*
X98824853Y-110396795D01*
X99293093Y-110397204D01*
X99725846Y-110218394D01*
X100057230Y-109887588D01*
X100236795Y-109455147D01*
X100237056Y-109155690D01*
X101535000Y-109155690D01*
X101535000Y-109696250D01*
X101693750Y-109855000D01*
X102543000Y-109855000D01*
X102543000Y-108805750D01*
X102384250Y-108647000D01*
X102043691Y-108647000D01*
X101810302Y-108743673D01*
X101631673Y-108922301D01*
X101535000Y-109155690D01*
X100237056Y-109155690D01*
X100237204Y-108986907D01*
X100058394Y-108554154D01*
X99727588Y-108222770D01*
X99320104Y-108053568D01*
X99405448Y-108049230D01*
X99783923Y-107892460D01*
X99851912Y-107651517D01*
X99060000Y-106859605D01*
X98268088Y-107651517D01*
X98336077Y-107892460D01*
X98795251Y-108055876D01*
X98394154Y-108221606D01*
X98062770Y-108552412D01*
X97999784Y-108704100D01*
X97536000Y-108704100D01*
X97338574Y-108743371D01*
X97171204Y-108855204D01*
X96726704Y-109299704D01*
X96614871Y-109467074D01*
X96575600Y-109664500D01*
X96575600Y-111177115D01*
X96433176Y-111319290D01*
X96314635Y-111604767D01*
X96314366Y-111913877D01*
X95702400Y-111913877D01*
X95702400Y-105791000D01*
X97991392Y-105791000D01*
X98088481Y-105888089D01*
X97847540Y-105956077D01*
X97662799Y-106475171D01*
X97690770Y-107025448D01*
X97847540Y-107403923D01*
X98088483Y-107471912D01*
X98880395Y-106680000D01*
X98866253Y-106665858D01*
X99045858Y-106486253D01*
X99060000Y-106500395D01*
X99074143Y-106486253D01*
X99253748Y-106665858D01*
X99239605Y-106680000D01*
X100031517Y-107471912D01*
X100272460Y-107403923D01*
X100457201Y-106884829D01*
X100429230Y-106334552D01*
X100272460Y-105956077D01*
X100031519Y-105888089D01*
X100128608Y-105791000D01*
X106989600Y-105791000D01*
X106989600Y-105918000D01*
X107024270Y-106092296D01*
X107028871Y-106115426D01*
X107140704Y-106282796D01*
X107902704Y-107044797D01*
X108070074Y-107156629D01*
X108077000Y-107158006D01*
X108077000Y-117570908D01*
X107623622Y-118024286D01*
X107347588Y-117747770D01*
X106915147Y-117568205D01*
X106446907Y-117567796D01*
X106014154Y-117746606D01*
X105682770Y-118077412D01*
X105503205Y-118509853D01*
X105502796Y-118978093D01*
X105681606Y-119410846D01*
X106012412Y-119742230D01*
X106444853Y-119921795D01*
X106913093Y-119922204D01*
X107345846Y-119743394D01*
X107677230Y-119412588D01*
X107749914Y-119237545D01*
X107829926Y-119221629D01*
X107997296Y-119109796D01*
X108077000Y-119030092D01*
X108077000Y-123523000D01*
X37453950Y-123523000D01*
X38581387Y-122397530D01*
X39226265Y-120844491D01*
X39226742Y-120297603D01*
X41752752Y-120297603D01*
X41969543Y-120822275D01*
X42370614Y-121224047D01*
X42894907Y-121441752D01*
X43462603Y-121442248D01*
X43987275Y-121225457D01*
X44389047Y-120824386D01*
X44606752Y-120300093D01*
X44606754Y-120297603D01*
X49372752Y-120297603D01*
X49589543Y-120822275D01*
X49990614Y-121224047D01*
X50514907Y-121441752D01*
X51082603Y-121442248D01*
X51607275Y-121225457D01*
X52009047Y-120824386D01*
X52226752Y-120300093D01*
X52226797Y-120248093D01*
X55337796Y-120248093D01*
X55516606Y-120680846D01*
X55847412Y-121012230D01*
X56279853Y-121191795D01*
X56748093Y-121192204D01*
X57180846Y-121013394D01*
X57512230Y-120682588D01*
X57672089Y-120297603D01*
X60802752Y-120297603D01*
X61019543Y-120822275D01*
X61420614Y-121224047D01*
X61944907Y-121441752D01*
X62512603Y-121442248D01*
X63037275Y-121225457D01*
X63439047Y-120824386D01*
X63656752Y-120300093D01*
X63656754Y-120297603D01*
X68422752Y-120297603D01*
X68639543Y-120822275D01*
X69040614Y-121224047D01*
X69564907Y-121441752D01*
X70132603Y-121442248D01*
X70657275Y-121225457D01*
X71059047Y-120824386D01*
X71276752Y-120300093D01*
X71277248Y-119732397D01*
X71060457Y-119207725D01*
X70659386Y-118805953D01*
X70135093Y-118588248D01*
X69567397Y-118587752D01*
X69042725Y-118804543D01*
X68640953Y-119205614D01*
X68423248Y-119729907D01*
X68422752Y-120297603D01*
X63656754Y-120297603D01*
X63657248Y-119732397D01*
X63440457Y-119207725D01*
X63039386Y-118805953D01*
X62515093Y-118588248D01*
X61947397Y-118587752D01*
X61422725Y-118804543D01*
X61020953Y-119205614D01*
X60803248Y-119729907D01*
X60802752Y-120297603D01*
X57672089Y-120297603D01*
X57691795Y-120250147D01*
X57692204Y-119781907D01*
X57513394Y-119349154D01*
X57182588Y-119017770D01*
X56750147Y-118838205D01*
X56281907Y-118837796D01*
X55849154Y-119016606D01*
X55517770Y-119347412D01*
X55338205Y-119779853D01*
X55337796Y-120248093D01*
X52226797Y-120248093D01*
X52227248Y-119732397D01*
X52010457Y-119207725D01*
X51609386Y-118805953D01*
X51085093Y-118588248D01*
X50517397Y-118587752D01*
X49992725Y-118804543D01*
X49590953Y-119205614D01*
X49373248Y-119729907D01*
X49372752Y-120297603D01*
X44606754Y-120297603D01*
X44607248Y-119732397D01*
X44390457Y-119207725D01*
X43989386Y-118805953D01*
X43465093Y-118588248D01*
X42897397Y-118587752D01*
X42372725Y-118804543D01*
X41970953Y-119205614D01*
X41753248Y-119729907D01*
X41752752Y-120297603D01*
X39226742Y-120297603D01*
X39227732Y-119162886D01*
X38585566Y-117608725D01*
X37397530Y-116418613D01*
X35844491Y-115773735D01*
X34162886Y-115772268D01*
X32608725Y-116414434D01*
X31477000Y-117544185D01*
X31477000Y-115217603D01*
X41752752Y-115217603D01*
X41969543Y-115742275D01*
X42370614Y-116144047D01*
X42894907Y-116361752D01*
X43462603Y-116362248D01*
X43987275Y-116145457D01*
X44389047Y-115744386D01*
X44606752Y-115220093D01*
X44606754Y-115217603D01*
X49372752Y-115217603D01*
X49589543Y-115742275D01*
X49990614Y-116144047D01*
X50514907Y-116361752D01*
X51082603Y-116362248D01*
X51607275Y-116145457D01*
X52009047Y-115744386D01*
X52226752Y-115220093D01*
X52226754Y-115217603D01*
X60802752Y-115217603D01*
X61019543Y-115742275D01*
X61420614Y-116144047D01*
X61944907Y-116361752D01*
X62512603Y-116362248D01*
X63037275Y-116145457D01*
X63439047Y-115744386D01*
X63656752Y-115220093D01*
X63656754Y-115217603D01*
X68422752Y-115217603D01*
X68639543Y-115742275D01*
X69040614Y-116144047D01*
X69564907Y-116361752D01*
X70132603Y-116362248D01*
X70657275Y-116145457D01*
X71059047Y-115744386D01*
X71276752Y-115220093D01*
X71277248Y-114652397D01*
X71060457Y-114127725D01*
X70659386Y-113725953D01*
X70135093Y-113508248D01*
X69567397Y-113507752D01*
X69042725Y-113724543D01*
X68640953Y-114125614D01*
X68423248Y-114649907D01*
X68422752Y-115217603D01*
X63656754Y-115217603D01*
X63657248Y-114652397D01*
X63440457Y-114127725D01*
X63039386Y-113725953D01*
X62515093Y-113508248D01*
X61947397Y-113507752D01*
X61422725Y-113724543D01*
X61020953Y-114125614D01*
X60803248Y-114649907D01*
X60802752Y-115217603D01*
X52226754Y-115217603D01*
X52227248Y-114652397D01*
X52010457Y-114127725D01*
X51609386Y-113725953D01*
X51085093Y-113508248D01*
X50517397Y-113507752D01*
X49992725Y-113724543D01*
X49590953Y-114125614D01*
X49373248Y-114649907D01*
X49372752Y-115217603D01*
X44606754Y-115217603D01*
X44607248Y-114652397D01*
X44390457Y-114127725D01*
X43989386Y-113725953D01*
X43465093Y-113508248D01*
X42897397Y-113507752D01*
X42372725Y-113724543D01*
X41970953Y-114125614D01*
X41753248Y-114649907D01*
X41752752Y-115217603D01*
X31477000Y-115217603D01*
X31477000Y-111993093D01*
X40732796Y-111993093D01*
X40911606Y-112425846D01*
X41242412Y-112757230D01*
X41674853Y-112936795D01*
X42143093Y-112937204D01*
X42575846Y-112758394D01*
X42907230Y-112427588D01*
X43086795Y-111995147D01*
X43087204Y-111526907D01*
X42908394Y-111094154D01*
X42577588Y-110762770D01*
X42170104Y-110593568D01*
X42255448Y-110589230D01*
X42633923Y-110432460D01*
X42701912Y-110191517D01*
X41910000Y-109399605D01*
X41118088Y-110191517D01*
X41186077Y-110432460D01*
X41645251Y-110595876D01*
X41244154Y-110761606D01*
X40912770Y-111092412D01*
X40733205Y-111524853D01*
X40732796Y-111993093D01*
X31477000Y-111993093D01*
X31477000Y-109015171D01*
X40512799Y-109015171D01*
X40540770Y-109565448D01*
X40697540Y-109943923D01*
X40938483Y-110011912D01*
X41730395Y-109220000D01*
X42089605Y-109220000D01*
X42881517Y-110011912D01*
X43122460Y-109943923D01*
X43307201Y-109424829D01*
X43279230Y-108874552D01*
X43122460Y-108496077D01*
X42881517Y-108428088D01*
X42089605Y-109220000D01*
X41730395Y-109220000D01*
X40938483Y-108428088D01*
X40697540Y-108496077D01*
X40512799Y-109015171D01*
X31477000Y-109015171D01*
X31477000Y-108248483D01*
X41118088Y-108248483D01*
X41910000Y-109040395D01*
X42701912Y-108248483D01*
X42633923Y-108007540D01*
X42114829Y-107822799D01*
X41564552Y-107850770D01*
X41186077Y-108007540D01*
X41118088Y-108248483D01*
X31477000Y-108248483D01*
X31477000Y-106330750D01*
X40375000Y-106330750D01*
X40375000Y-107071310D01*
X40471673Y-107304699D01*
X40650302Y-107483327D01*
X40883691Y-107580000D01*
X41624250Y-107580000D01*
X41783000Y-107421250D01*
X41783000Y-106172000D01*
X42037000Y-106172000D01*
X42037000Y-107421250D01*
X42195750Y-107580000D01*
X42936309Y-107580000D01*
X43169698Y-107483327D01*
X43348327Y-107304699D01*
X43445000Y-107071310D01*
X43445000Y-106330750D01*
X43286250Y-106172000D01*
X42037000Y-106172000D01*
X41783000Y-106172000D01*
X40533750Y-106172000D01*
X40375000Y-106330750D01*
X31477000Y-106330750D01*
X31477000Y-105018690D01*
X40375000Y-105018690D01*
X40375000Y-105759250D01*
X40533750Y-105918000D01*
X41783000Y-105918000D01*
X41783000Y-104668750D01*
X42037000Y-104668750D01*
X42037000Y-105918000D01*
X43286250Y-105918000D01*
X43445000Y-105759250D01*
X43445000Y-105018690D01*
X43348327Y-104785301D01*
X43169698Y-104606673D01*
X42936309Y-104510000D01*
X42195750Y-104510000D01*
X42037000Y-104668750D01*
X41783000Y-104668750D01*
X41624250Y-104510000D01*
X40883691Y-104510000D01*
X40650302Y-104606673D01*
X40471673Y-104785301D01*
X40375000Y-105018690D01*
X31477000Y-105018690D01*
X31477000Y-103103093D01*
X44582796Y-103103093D01*
X44761606Y-103535846D01*
X45092412Y-103867230D01*
X45524853Y-104046795D01*
X45993093Y-104047204D01*
X46425846Y-103868394D01*
X46757230Y-103537588D01*
X46936795Y-103105147D01*
X46937204Y-102636907D01*
X46758394Y-102204154D01*
X46674387Y-102120000D01*
X47074635Y-102120000D01*
X47074635Y-103620000D01*
X47104409Y-103778237D01*
X47197927Y-103923567D01*
X47340619Y-104021064D01*
X47510000Y-104055365D01*
X49010000Y-104055365D01*
X49168237Y-104025591D01*
X49313567Y-103932073D01*
X49411064Y-103789381D01*
X49445365Y-103620000D01*
X49445365Y-103514957D01*
X51084332Y-105153925D01*
X50945681Y-105292334D01*
X50743231Y-105779885D01*
X50742771Y-106307798D01*
X50944369Y-106795703D01*
X51317334Y-107169319D01*
X51554100Y-107267633D01*
X51554100Y-108159650D01*
X51404154Y-108221606D01*
X51072770Y-108552412D01*
X50893205Y-108984853D01*
X50892796Y-109453093D01*
X51071606Y-109885846D01*
X51402412Y-110217230D01*
X51554100Y-110280216D01*
X51554100Y-110699650D01*
X51404154Y-110761606D01*
X51072770Y-111092412D01*
X50893205Y-111524853D01*
X50892796Y-111993093D01*
X51071606Y-112425846D01*
X51402412Y-112757230D01*
X51834853Y-112936795D01*
X52303093Y-112937204D01*
X52735846Y-112758394D01*
X53067230Y-112427588D01*
X53246795Y-111995147D01*
X53246796Y-111993093D01*
X59782796Y-111993093D01*
X59961606Y-112425846D01*
X60292412Y-112757230D01*
X60724853Y-112936795D01*
X61193093Y-112937204D01*
X61625846Y-112758394D01*
X61957230Y-112427588D01*
X62136795Y-111995147D01*
X62137204Y-111526907D01*
X61958394Y-111094154D01*
X61627588Y-110762770D01*
X61195147Y-110583205D01*
X60726907Y-110582796D01*
X60294154Y-110761606D01*
X59962770Y-111092412D01*
X59783205Y-111524853D01*
X59782796Y-111993093D01*
X53246796Y-111993093D01*
X53247204Y-111526907D01*
X53068394Y-111094154D01*
X52737588Y-110762770D01*
X52585900Y-110699784D01*
X52585900Y-110280350D01*
X52735846Y-110218394D01*
X53067230Y-109887588D01*
X53246795Y-109455147D01*
X53247204Y-108986907D01*
X53068394Y-108554154D01*
X52737588Y-108222770D01*
X52585900Y-108159784D01*
X52585900Y-107267650D01*
X52820703Y-107170631D01*
X53194319Y-106797666D01*
X53396769Y-106310115D01*
X53397229Y-105782202D01*
X53195631Y-105294297D01*
X52822666Y-104920681D01*
X52335115Y-104718231D01*
X52107626Y-104718033D01*
X49894796Y-102505204D01*
X49727426Y-102393371D01*
X49530000Y-102354100D01*
X49445365Y-102354100D01*
X49445365Y-102120000D01*
X49415591Y-101961763D01*
X49322073Y-101816433D01*
X49179381Y-101718936D01*
X49010000Y-101684635D01*
X48775900Y-101684635D01*
X48775900Y-99007885D01*
X48918324Y-98865710D01*
X49036865Y-98580233D01*
X49037134Y-98271123D01*
X48919092Y-97985440D01*
X48700710Y-97766676D01*
X48415233Y-97648135D01*
X48106123Y-97647866D01*
X47820440Y-97765908D01*
X47601676Y-97984290D01*
X47483135Y-98269767D01*
X47482866Y-98578877D01*
X47600908Y-98864560D01*
X47744100Y-99008002D01*
X47744100Y-101684635D01*
X47510000Y-101684635D01*
X47351763Y-101714409D01*
X47206433Y-101807927D01*
X47108936Y-101950619D01*
X47074635Y-102120000D01*
X46674387Y-102120000D01*
X46427588Y-101872770D01*
X45995147Y-101693205D01*
X45526907Y-101692796D01*
X45094154Y-101871606D01*
X44762770Y-102202412D01*
X44583205Y-102634853D01*
X44582796Y-103103093D01*
X31477000Y-103103093D01*
X31477000Y-95770000D01*
X32854635Y-95770000D01*
X32854635Y-97270000D01*
X32884409Y-97428237D01*
X32977927Y-97573567D01*
X33120619Y-97671064D01*
X33290000Y-97705365D01*
X35290000Y-97705365D01*
X35448237Y-97675591D01*
X35593567Y-97582073D01*
X35691064Y-97439381D01*
X35725365Y-97270000D01*
X35725365Y-95770000D01*
X35695591Y-95611763D01*
X35602073Y-95466433D01*
X35459381Y-95368936D01*
X35290000Y-95334635D01*
X33290000Y-95334635D01*
X33131763Y-95364409D01*
X32986433Y-95457927D01*
X32888936Y-95600619D01*
X32854635Y-95770000D01*
X31477000Y-95770000D01*
X31477000Y-78740000D01*
X32835043Y-78740000D01*
X32924637Y-79190418D01*
X33179778Y-79572265D01*
X33561625Y-79827406D01*
X34012043Y-79917000D01*
X34567957Y-79917000D01*
X35018375Y-79827406D01*
X35400222Y-79572265D01*
X35655363Y-79190418D01*
X35744957Y-78740000D01*
X35655363Y-78289582D01*
X35400222Y-77907735D01*
X35018375Y-77652594D01*
X34567957Y-77563000D01*
X34012043Y-77563000D01*
X33561625Y-77652594D01*
X33179778Y-77907735D01*
X32924637Y-78289582D01*
X32835043Y-78740000D01*
X31477000Y-78740000D01*
X31477000Y-71607093D01*
X33914796Y-71607093D01*
X34093606Y-72039846D01*
X34424412Y-72371230D01*
X34856853Y-72550795D01*
X35325093Y-72551204D01*
X35757846Y-72372394D01*
X36089230Y-72041588D01*
X36207000Y-71757966D01*
X36207000Y-72250310D01*
X36303673Y-72483699D01*
X36482302Y-72662327D01*
X36715691Y-72759000D01*
X37306250Y-72759000D01*
X37465000Y-72600250D01*
X37465000Y-71501000D01*
X37719000Y-71501000D01*
X37719000Y-72600250D01*
X37877750Y-72759000D01*
X38468309Y-72759000D01*
X38701698Y-72662327D01*
X38880327Y-72483699D01*
X38977000Y-72250310D01*
X38977000Y-71659750D01*
X38818250Y-71501000D01*
X37719000Y-71501000D01*
X37465000Y-71501000D01*
X37445000Y-71501000D01*
X37445000Y-71247000D01*
X37465000Y-71247000D01*
X37465000Y-70147750D01*
X37719000Y-70147750D01*
X37719000Y-71247000D01*
X38818250Y-71247000D01*
X38977000Y-71088250D01*
X38977000Y-70497690D01*
X38880327Y-70264301D01*
X38701698Y-70085673D01*
X38468309Y-69989000D01*
X37877750Y-69989000D01*
X37719000Y-70147750D01*
X37465000Y-70147750D01*
X37306250Y-69989000D01*
X36715691Y-69989000D01*
X36482302Y-70085673D01*
X36303673Y-70264301D01*
X36207000Y-70497690D01*
X36207000Y-70990362D01*
X36090394Y-70708154D01*
X35759588Y-70376770D01*
X35327147Y-70197205D01*
X34858907Y-70196796D01*
X34426154Y-70375606D01*
X34094770Y-70706412D01*
X33915205Y-71138853D01*
X33914796Y-71607093D01*
X31477000Y-71607093D01*
X31477000Y-63373000D01*
X34350040Y-63373000D01*
X34372927Y-63408567D01*
X34515619Y-63506064D01*
X34685000Y-63540365D01*
X36435000Y-63540365D01*
X36593237Y-63510591D01*
X36738567Y-63417073D01*
X36836064Y-63274381D01*
X36870365Y-63105000D01*
X36870365Y-61355000D01*
X36840591Y-61196763D01*
X36747073Y-61051433D01*
X36604381Y-60953936D01*
X36435000Y-60919635D01*
X36400579Y-60919635D01*
X36442455Y-60792060D01*
X35560000Y-59909605D01*
X35545858Y-59923748D01*
X35366253Y-59744143D01*
X35380395Y-59730000D01*
X35739605Y-59730000D01*
X36622060Y-60612455D01*
X36875953Y-60529116D01*
X37081590Y-59964694D01*
X37055579Y-59364542D01*
X36875953Y-58930884D01*
X36622060Y-58847545D01*
X35739605Y-59730000D01*
X35380395Y-59730000D01*
X35366253Y-59715858D01*
X35545858Y-59536253D01*
X35560000Y-59550395D01*
X36442455Y-58667940D01*
X36359116Y-58414047D01*
X35794694Y-58208410D01*
X35194542Y-58234421D01*
X34760884Y-58414047D01*
X34677546Y-58667938D01*
X34671000Y-58661392D01*
X34671000Y-53770171D01*
X44322799Y-53770171D01*
X44350770Y-54320448D01*
X44507540Y-54698923D01*
X44748483Y-54766912D01*
X45540395Y-53975000D01*
X44748483Y-53183088D01*
X44507540Y-53251077D01*
X44322799Y-53770171D01*
X34671000Y-53770171D01*
X34671000Y-53467000D01*
X38354000Y-53467000D01*
X38403410Y-53456994D01*
X38445035Y-53428553D01*
X38472315Y-53386159D01*
X38481000Y-53340000D01*
X38481000Y-50558857D01*
X38775222Y-50362265D01*
X39030363Y-49980418D01*
X39119957Y-49530000D01*
X39030363Y-49079582D01*
X38775222Y-48697735D01*
X38481000Y-48501143D01*
X38481000Y-48018857D01*
X38775222Y-47822265D01*
X39030363Y-47440418D01*
X39119957Y-46990000D01*
X39030363Y-46539582D01*
X38775222Y-46157735D01*
X38481000Y-45961143D01*
X38481000Y-45715098D01*
X38536721Y-45699964D01*
X38967736Y-45366894D01*
X39238481Y-44894235D01*
X39257318Y-44791185D01*
X39134656Y-44577000D01*
X38481000Y-44577000D01*
X38481000Y-44323000D01*
X39134656Y-44323000D01*
X39257318Y-44108815D01*
X39238481Y-44005765D01*
X39129208Y-43815000D01*
X42212389Y-43815000D01*
X42212366Y-43841877D01*
X42212366Y-43841877D01*
G37*
X42212366Y-43841877D02*
X42330408Y-44127560D01*
X42548790Y-44346324D01*
X42834267Y-44464865D01*
X43143377Y-44465134D01*
X43235600Y-44427028D01*
X43235600Y-46407115D01*
X43093176Y-46549290D01*
X42974635Y-46834767D01*
X42974366Y-47143877D01*
X43092408Y-47429560D01*
X43310790Y-47648324D01*
X43596267Y-47766865D01*
X43905377Y-47767134D01*
X44191060Y-47649092D01*
X44409824Y-47430710D01*
X44528365Y-47145233D01*
X44528390Y-47117000D01*
X46474100Y-47117000D01*
X46474100Y-52869483D01*
X46443923Y-52762540D01*
X45924829Y-52577799D01*
X45374552Y-52605770D01*
X44996077Y-52762540D01*
X44928088Y-53003483D01*
X45720000Y-53795395D01*
X45734143Y-53781253D01*
X45913748Y-53960858D01*
X45899605Y-53975000D01*
X45913748Y-53989143D01*
X45734143Y-54168748D01*
X45720000Y-54154605D01*
X44928088Y-54946517D01*
X44996077Y-55187460D01*
X45515171Y-55372201D01*
X46065448Y-55344230D01*
X46443923Y-55187460D01*
X46474100Y-55080517D01*
X46474100Y-60579000D01*
X46510616Y-60762574D01*
X46513371Y-60776426D01*
X46594055Y-60897178D01*
X46593866Y-61113877D01*
X46711908Y-61399560D01*
X46930290Y-61618324D01*
X47117000Y-61695853D01*
X47117000Y-81407000D01*
X42576092Y-81407000D01*
X42496459Y-81327367D01*
X42496634Y-81126123D01*
X42378592Y-80840440D01*
X42160210Y-80621676D01*
X41874733Y-80503135D01*
X41565623Y-80502866D01*
X41279940Y-80620908D01*
X41255806Y-80645000D01*
X35532030Y-80645000D01*
X35400222Y-80447735D01*
X35018375Y-80192594D01*
X34567957Y-80103000D01*
X34012043Y-80103000D01*
X33561625Y-80192594D01*
X33179778Y-80447735D01*
X32924637Y-80829582D01*
X32835043Y-81280000D01*
X32924637Y-81730418D01*
X33147000Y-82063209D01*
X33147000Y-83036791D01*
X32924637Y-83369582D01*
X32835043Y-83820000D01*
X32924637Y-84270418D01*
X33147000Y-84603209D01*
X33147000Y-85576791D01*
X32924637Y-85909582D01*
X32835043Y-86360000D01*
X32924637Y-86810418D01*
X33179778Y-87192265D01*
X33561625Y-87447406D01*
X33909529Y-87516609D01*
X33418279Y-87650036D01*
X32987264Y-87983106D01*
X32716519Y-88455765D01*
X32697682Y-88558815D01*
X32820344Y-88773000D01*
X34163000Y-88773000D01*
X34163000Y-89027000D01*
X32820344Y-89027000D01*
X32697682Y-89241185D01*
X32716519Y-89344235D01*
X32987264Y-89816894D01*
X33418279Y-90149964D01*
X33909529Y-90283391D01*
X33561625Y-90352594D01*
X33179778Y-90607735D01*
X32924637Y-90989582D01*
X32835043Y-91440000D01*
X32924637Y-91890418D01*
X33179778Y-92272265D01*
X33401000Y-92420080D01*
X33401000Y-92999920D01*
X33179778Y-93147735D01*
X32924637Y-93529582D01*
X32835043Y-93980000D01*
X32924637Y-94430418D01*
X33179778Y-94812265D01*
X33561625Y-95067406D01*
X34012043Y-95157000D01*
X34567957Y-95157000D01*
X35018375Y-95067406D01*
X35400222Y-94812265D01*
X35611609Y-94495900D01*
X35814000Y-94495900D01*
X36011426Y-94456629D01*
X36178796Y-94344796D01*
X37043692Y-93479900D01*
X37355695Y-93479900D01*
X37279440Y-93511408D01*
X37060676Y-93729790D01*
X36942135Y-94015267D01*
X36941866Y-94324377D01*
X37059908Y-94610060D01*
X37278290Y-94828824D01*
X37563767Y-94947365D01*
X37872877Y-94947634D01*
X38158560Y-94829592D01*
X38377324Y-94611210D01*
X38425205Y-94495900D01*
X55551115Y-94495900D01*
X55693290Y-94638324D01*
X55978767Y-94756865D01*
X56287877Y-94757134D01*
X56573560Y-94639092D01*
X56792324Y-94420710D01*
X56910865Y-94135233D01*
X56910890Y-94107000D01*
X57277000Y-94107000D01*
X57277000Y-104489907D01*
X56150204Y-105616704D01*
X56038371Y-105784074D01*
X55999100Y-105981500D01*
X55999100Y-108794650D01*
X55849154Y-108856606D01*
X55517770Y-109187412D01*
X55338205Y-109619853D01*
X55337796Y-110088093D01*
X55516606Y-110520846D01*
X55847412Y-110852230D01*
X56279853Y-111031795D01*
X56748093Y-111032204D01*
X57180846Y-110853394D01*
X57512230Y-110522588D01*
X57691795Y-110090147D01*
X57692166Y-109665159D01*
X60059446Y-109665159D01*
X60145852Y-109921643D01*
X60719336Y-110131458D01*
X61329460Y-110105839D01*
X61774148Y-109921643D01*
X61860554Y-109665159D01*
X60960000Y-108764605D01*
X60059446Y-109665159D01*
X57692166Y-109665159D01*
X57692204Y-109621907D01*
X57513394Y-109189154D01*
X57182588Y-108857770D01*
X57030900Y-108794784D01*
X57030900Y-108344336D01*
X59413542Y-108344336D01*
X59439161Y-108954460D01*
X59623357Y-109399148D01*
X59879841Y-109485554D01*
X60780395Y-108585000D01*
X61139605Y-108585000D01*
X62040159Y-109485554D01*
X62296643Y-109399148D01*
X62506458Y-108825664D01*
X62480839Y-108215540D01*
X62296643Y-107770852D01*
X62040159Y-107684446D01*
X61139605Y-108585000D01*
X60780395Y-108585000D01*
X59879841Y-107684446D01*
X59623357Y-107770852D01*
X59413542Y-108344336D01*
X57030900Y-108344336D01*
X57030900Y-107504841D01*
X60059446Y-107504841D01*
X60960000Y-108405395D01*
X61860554Y-107504841D01*
X61774148Y-107248357D01*
X61200664Y-107038542D01*
X60590540Y-107064161D01*
X60145852Y-107248357D01*
X60059446Y-107504841D01*
X57030900Y-107504841D01*
X57030900Y-106195192D01*
X57435092Y-105791000D01*
X63047600Y-105791000D01*
X63047600Y-105970115D01*
X62905176Y-106112290D01*
X62786635Y-106397767D01*
X62786366Y-106706877D01*
X62904408Y-106992560D01*
X63122790Y-107211324D01*
X63408267Y-107329865D01*
X63717377Y-107330134D01*
X64003060Y-107212092D01*
X64221824Y-106993710D01*
X64340365Y-106708233D01*
X64340634Y-106399123D01*
X64222592Y-106113440D01*
X64079400Y-105969998D01*
X64079400Y-105791000D01*
X65651100Y-105791000D01*
X65651100Y-112637615D01*
X65508676Y-112779790D01*
X65390135Y-113065267D01*
X65389866Y-113374377D01*
X65507908Y-113660060D01*
X65726290Y-113878824D01*
X66011767Y-113997365D01*
X66320877Y-113997634D01*
X66606560Y-113879592D01*
X66825324Y-113661210D01*
X66943865Y-113375733D01*
X66944134Y-113066623D01*
X66826092Y-112780940D01*
X66682900Y-112637498D01*
X66682900Y-107685000D01*
X69784635Y-107685000D01*
X69784635Y-109485000D01*
X69814409Y-109643237D01*
X69907927Y-109788567D01*
X70050619Y-109886064D01*
X70220000Y-109920365D01*
X70231000Y-109920365D01*
X70231000Y-110984371D01*
X70122770Y-111092412D01*
X69943205Y-111524853D01*
X69942796Y-111993093D01*
X70121606Y-112425846D01*
X70452412Y-112757230D01*
X70884853Y-112936795D01*
X71353093Y-112937204D01*
X71785846Y-112758394D01*
X72117230Y-112427588D01*
X72123176Y-112413269D01*
X72191600Y-112481693D01*
X72191600Y-117411500D01*
X72222690Y-117567796D01*
X72230871Y-117608926D01*
X72342704Y-117776296D01*
X73676204Y-119109797D01*
X73843574Y-119221629D01*
X74041000Y-119260900D01*
X76284635Y-119260900D01*
X76284635Y-119495000D01*
X76314409Y-119653237D01*
X76407927Y-119798567D01*
X76550619Y-119896064D01*
X76720000Y-119930365D01*
X78220000Y-119930365D01*
X78378237Y-119900591D01*
X78523567Y-119807073D01*
X78621064Y-119664381D01*
X78655365Y-119495000D01*
X78655365Y-117995000D01*
X78625591Y-117836763D01*
X78602192Y-117800400D01*
X79224808Y-117800400D01*
X79257508Y-117833100D01*
X79012770Y-118077412D01*
X78833205Y-118509853D01*
X78832796Y-118978093D01*
X79011606Y-119410846D01*
X79342412Y-119742230D01*
X79774853Y-119921795D01*
X80243093Y-119922204D01*
X80675846Y-119743394D01*
X81007230Y-119412588D01*
X81186795Y-118980147D01*
X81187204Y-118511907D01*
X81008394Y-118079154D01*
X80924387Y-117995000D01*
X85174635Y-117995000D01*
X85174635Y-119495000D01*
X85204409Y-119653237D01*
X85297927Y-119798567D01*
X85440619Y-119896064D01*
X85610000Y-119930365D01*
X87110000Y-119930365D01*
X87268237Y-119900591D01*
X87413567Y-119807073D01*
X87511064Y-119664381D01*
X87545365Y-119495000D01*
X87545365Y-118978093D01*
X87722796Y-118978093D01*
X87901606Y-119410846D01*
X88232412Y-119742230D01*
X88664853Y-119921795D01*
X89133093Y-119922204D01*
X89565846Y-119743394D01*
X89897230Y-119412588D01*
X90076795Y-118980147D01*
X90077204Y-118511907D01*
X89898394Y-118079154D01*
X89814387Y-117995000D01*
X94064635Y-117995000D01*
X94064635Y-119495000D01*
X94094409Y-119653237D01*
X94187927Y-119798567D01*
X94330619Y-119896064D01*
X94500000Y-119930365D01*
X96000000Y-119930365D01*
X96158237Y-119900591D01*
X96303567Y-119807073D01*
X96401064Y-119664381D01*
X96435365Y-119495000D01*
X96435365Y-118978093D01*
X96612796Y-118978093D01*
X96791606Y-119410846D01*
X97122412Y-119742230D01*
X97554853Y-119921795D01*
X98023093Y-119922204D01*
X98455846Y-119743394D01*
X98787230Y-119412588D01*
X98966795Y-118980147D01*
X98967204Y-118511907D01*
X98788394Y-118079154D01*
X98704387Y-117995000D01*
X102954635Y-117995000D01*
X102954635Y-119495000D01*
X102984409Y-119653237D01*
X103077927Y-119798567D01*
X103220619Y-119896064D01*
X103390000Y-119930365D01*
X104890000Y-119930365D01*
X105048237Y-119900591D01*
X105193567Y-119807073D01*
X105291064Y-119664381D01*
X105325365Y-119495000D01*
X105325365Y-117995000D01*
X105295591Y-117836763D01*
X105202073Y-117691433D01*
X105059381Y-117593936D01*
X104890000Y-117559635D01*
X103390000Y-117559635D01*
X103231763Y-117589409D01*
X103086433Y-117682927D01*
X102988936Y-117825619D01*
X102954635Y-117995000D01*
X98704387Y-117995000D01*
X98457588Y-117747770D01*
X98305900Y-117684784D01*
X98305900Y-115212192D01*
X98306712Y-115211380D01*
X98392412Y-115297230D01*
X98824853Y-115476795D01*
X99293093Y-115477204D01*
X99725846Y-115298394D01*
X100057230Y-114967588D01*
X100070762Y-114935000D01*
X100588861Y-114935000D01*
X100601606Y-114965846D01*
X100932412Y-115297230D01*
X101364853Y-115476795D01*
X101833093Y-115477204D01*
X102265846Y-115298394D01*
X102597230Y-114967588D01*
X102660216Y-114815900D01*
X104457500Y-114815900D01*
X104654926Y-114776629D01*
X104822296Y-114664796D01*
X105974796Y-113512296D01*
X106086629Y-113344926D01*
X106095246Y-113301606D01*
X106125900Y-113147500D01*
X106125900Y-110952837D01*
X106265488Y-110859567D01*
X106466436Y-110558827D01*
X106537000Y-110204079D01*
X106537000Y-109759921D01*
X106466436Y-109405173D01*
X106265488Y-109104433D01*
X105964748Y-108903485D01*
X105610000Y-108832921D01*
X105255252Y-108903485D01*
X104954512Y-109104433D01*
X104875000Y-109223431D01*
X104795488Y-109104433D01*
X104494748Y-108903485D01*
X104140000Y-108832921D01*
X103785252Y-108903485D01*
X103718898Y-108947821D01*
X103708327Y-108922301D01*
X103529698Y-108743673D01*
X103296309Y-108647000D01*
X102955750Y-108647000D01*
X102797000Y-108805750D01*
X102797000Y-109855000D01*
X102817000Y-109855000D01*
X102817000Y-110109000D01*
X102797000Y-110109000D01*
X102797000Y-110129000D01*
X102543000Y-110129000D01*
X102543000Y-110109000D01*
X101693750Y-110109000D01*
X101535000Y-110267750D01*
X101535000Y-110808310D01*
X101631673Y-111041699D01*
X101810302Y-111220327D01*
X101867695Y-111244100D01*
X100120350Y-111244100D01*
X100058394Y-111094154D01*
X99727588Y-110762770D01*
X99295147Y-110583205D01*
X98826907Y-110582796D01*
X98394154Y-110761606D01*
X98062770Y-111092412D01*
X97883205Y-111524853D01*
X97882796Y-111993093D01*
X98061606Y-112425846D01*
X98171000Y-112535431D01*
X98171000Y-113524371D01*
X98062770Y-113632412D01*
X97883205Y-114064853D01*
X97883108Y-114175799D01*
X97425204Y-114633704D01*
X97313371Y-114801074D01*
X97274100Y-114998500D01*
X97274100Y-117684650D01*
X97124154Y-117746606D01*
X96792770Y-118077412D01*
X96613205Y-118509853D01*
X96612796Y-118978093D01*
X96435365Y-118978093D01*
X96435365Y-117995000D01*
X96405591Y-117836763D01*
X96312073Y-117691433D01*
X96169381Y-117593936D01*
X96000000Y-117559635D01*
X94500000Y-117559635D01*
X94341763Y-117589409D01*
X94196433Y-117682927D01*
X94098936Y-117825619D01*
X94064635Y-117995000D01*
X89814387Y-117995000D01*
X89567588Y-117747770D01*
X89135147Y-117568205D01*
X88666907Y-117567796D01*
X88234154Y-117746606D01*
X87902770Y-118077412D01*
X87723205Y-118509853D01*
X87722796Y-118978093D01*
X87545365Y-118978093D01*
X87545365Y-117995000D01*
X87515591Y-117836763D01*
X87422073Y-117691433D01*
X87279381Y-117593936D01*
X87110000Y-117559635D01*
X85610000Y-117559635D01*
X85451763Y-117589409D01*
X85306433Y-117682927D01*
X85208936Y-117825619D01*
X85174635Y-117995000D01*
X80924387Y-117995000D01*
X80677588Y-117747770D01*
X80488776Y-117669369D01*
X80486629Y-117658574D01*
X80374796Y-117491204D01*
X79803296Y-116919704D01*
X79635926Y-116807871D01*
X79438500Y-116768600D01*
X74381693Y-116768600D01*
X73858400Y-116245308D01*
X73858400Y-114533093D01*
X75022796Y-114533093D01*
X75201606Y-114965846D01*
X75532412Y-115297230D01*
X75964853Y-115476795D01*
X76433093Y-115477204D01*
X76865846Y-115298394D01*
X77197230Y-114967588D01*
X77376795Y-114535147D01*
X77376796Y-114533093D01*
X85182796Y-114533093D01*
X85361606Y-114965846D01*
X85692412Y-115297230D01*
X86124853Y-115476795D01*
X86593093Y-115477204D01*
X87025846Y-115298394D01*
X87357230Y-114967588D01*
X87536795Y-114535147D01*
X87537204Y-114066907D01*
X87358394Y-113634154D01*
X87027588Y-113302770D01*
X86595147Y-113123205D01*
X86126907Y-113122796D01*
X85694154Y-113301606D01*
X85362770Y-113632412D01*
X85183205Y-114064853D01*
X85182796Y-114533093D01*
X77376796Y-114533093D01*
X77377204Y-114066907D01*
X77198394Y-113634154D01*
X76867588Y-113302770D01*
X76435147Y-113123205D01*
X75966907Y-113122796D01*
X75534154Y-113301606D01*
X75202770Y-113632412D01*
X75023205Y-114064853D01*
X75022796Y-114533093D01*
X73858400Y-114533093D01*
X73858400Y-110267750D01*
X81215000Y-110267750D01*
X81215000Y-110808310D01*
X81311673Y-111041699D01*
X81490302Y-111220327D01*
X81723691Y-111317000D01*
X82064250Y-111317000D01*
X82223000Y-111158250D01*
X82223000Y-110109000D01*
X81373750Y-110109000D01*
X81215000Y-110267750D01*
X73858400Y-110267750D01*
X73858400Y-110045500D01*
X73819129Y-109848074D01*
X73707296Y-109680704D01*
X73182282Y-109155690D01*
X81215000Y-109155690D01*
X81215000Y-109696250D01*
X81373750Y-109855000D01*
X82223000Y-109855000D01*
X82223000Y-108805750D01*
X82064250Y-108647000D01*
X81723691Y-108647000D01*
X81490302Y-108743673D01*
X81311673Y-108922301D01*
X81215000Y-109155690D01*
X73182282Y-109155690D01*
X72455365Y-108428773D01*
X72455365Y-107685000D01*
X72425591Y-107526763D01*
X72332073Y-107381433D01*
X72189381Y-107283936D01*
X72020000Y-107249635D01*
X70220000Y-107249635D01*
X70061763Y-107279409D01*
X69916433Y-107372927D01*
X69818936Y-107515619D01*
X69784635Y-107685000D01*
X66682900Y-107685000D01*
X66682900Y-105791000D01*
X75696731Y-105791000D01*
X75721993Y-105918000D01*
X75723371Y-105924926D01*
X75835204Y-106092296D01*
X76787703Y-107044796D01*
X76955073Y-107156629D01*
X76987829Y-107163144D01*
X77152500Y-107195900D01*
X78949650Y-107195900D01*
X79011606Y-107345846D01*
X79342412Y-107677230D01*
X79774853Y-107856795D01*
X80243093Y-107857204D01*
X80675846Y-107678394D01*
X81007230Y-107347588D01*
X81186795Y-106915147D01*
X81187204Y-106446907D01*
X81008394Y-106014154D01*
X80785629Y-105791000D01*
X83693000Y-105791000D01*
X83693000Y-108858183D01*
X83465252Y-108903485D01*
X83398898Y-108947821D01*
X83388327Y-108922301D01*
X83209698Y-108743673D01*
X82976309Y-108647000D01*
X82635750Y-108647000D01*
X82477000Y-108805750D01*
X82477000Y-109855000D01*
X82497000Y-109855000D01*
X82497000Y-110109000D01*
X82477000Y-110109000D01*
X82477000Y-111158250D01*
X82635750Y-111317000D01*
X82976309Y-111317000D01*
X83209698Y-111220327D01*
X83388327Y-111041699D01*
X83398898Y-111016179D01*
X83465252Y-111060515D01*
X83820000Y-111131079D01*
X84174748Y-111060515D01*
X84475488Y-110859567D01*
X84555000Y-110740569D01*
X84634512Y-110859567D01*
X84935252Y-111060515D01*
X85290000Y-111131079D01*
X85644748Y-111060515D01*
X85825889Y-110939481D01*
X87114100Y-112227692D01*
X87114100Y-113030000D01*
X87144978Y-113185233D01*
X87153371Y-113227426D01*
X87265204Y-113394796D01*
X87785423Y-113915015D01*
X87723205Y-114064853D01*
X87722796Y-114533093D01*
X87901606Y-114965846D01*
X88232412Y-115297230D01*
X88664853Y-115476795D01*
X89133093Y-115477204D01*
X89565846Y-115298394D01*
X89897230Y-114967588D01*
X90076795Y-114535147D01*
X90076889Y-114427000D01*
X94409389Y-114427000D01*
X94409366Y-114453877D01*
X94527408Y-114739560D01*
X94745790Y-114958324D01*
X95031267Y-115076865D01*
X95340377Y-115077134D01*
X95626060Y-114959092D01*
X95844824Y-114740710D01*
X95963365Y-114455233D01*
X95963634Y-114146123D01*
X95845592Y-113860440D01*
X95702400Y-113716998D01*
X95702400Y-111913877D01*
X96314366Y-111913877D01*
X96432408Y-112199560D01*
X96650790Y-112418324D01*
X96936267Y-112536865D01*
X97245377Y-112537134D01*
X97531060Y-112419092D01*
X97749824Y-112200710D01*
X97868365Y-111915233D01*
X97868634Y-111606123D01*
X97750592Y-111320440D01*
X97607400Y-111176998D01*
X97607400Y-109878192D01*
X97749692Y-109735900D01*
X97999650Y-109735900D01*
X98061606Y-109885846D01*
X98392412Y-110217230D01*
X98824853Y-110396795D01*
X99293093Y-110397204D01*
X99725846Y-110218394D01*
X100057230Y-109887588D01*
X100236795Y-109455147D01*
X100237056Y-109155690D01*
X101535000Y-109155690D01*
X101535000Y-109696250D01*
X101693750Y-109855000D01*
X102543000Y-109855000D01*
X102543000Y-108805750D01*
X102384250Y-108647000D01*
X102043691Y-108647000D01*
X101810302Y-108743673D01*
X101631673Y-108922301D01*
X101535000Y-109155690D01*
X100237056Y-109155690D01*
X100237204Y-108986907D01*
X100058394Y-108554154D01*
X99727588Y-108222770D01*
X99320104Y-108053568D01*
X99405448Y-108049230D01*
X99783923Y-107892460D01*
X99851912Y-107651517D01*
X99060000Y-106859605D01*
X98268088Y-107651517D01*
X98336077Y-107892460D01*
X98795251Y-108055876D01*
X98394154Y-108221606D01*
X98062770Y-108552412D01*
X97999784Y-108704100D01*
X97536000Y-108704100D01*
X97338574Y-108743371D01*
X97171204Y-108855204D01*
X96726704Y-109299704D01*
X96614871Y-109467074D01*
X96575600Y-109664500D01*
X96575600Y-111177115D01*
X96433176Y-111319290D01*
X96314635Y-111604767D01*
X96314366Y-111913877D01*
X95702400Y-111913877D01*
X95702400Y-105791000D01*
X97991392Y-105791000D01*
X98088481Y-105888089D01*
X97847540Y-105956077D01*
X97662799Y-106475171D01*
X97690770Y-107025448D01*
X97847540Y-107403923D01*
X98088483Y-107471912D01*
X98880395Y-106680000D01*
X98866253Y-106665858D01*
X99045858Y-106486253D01*
X99060000Y-106500395D01*
X99074143Y-106486253D01*
X99253748Y-106665858D01*
X99239605Y-106680000D01*
X100031517Y-107471912D01*
X100272460Y-107403923D01*
X100457201Y-106884829D01*
X100429230Y-106334552D01*
X100272460Y-105956077D01*
X100031519Y-105888089D01*
X100128608Y-105791000D01*
X106989600Y-105791000D01*
X106989600Y-105918000D01*
X107024270Y-106092296D01*
X107028871Y-106115426D01*
X107140704Y-106282796D01*
X107902704Y-107044797D01*
X108070074Y-107156629D01*
X108077000Y-107158006D01*
X108077000Y-117570908D01*
X107623622Y-118024286D01*
X107347588Y-117747770D01*
X106915147Y-117568205D01*
X106446907Y-117567796D01*
X106014154Y-117746606D01*
X105682770Y-118077412D01*
X105503205Y-118509853D01*
X105502796Y-118978093D01*
X105681606Y-119410846D01*
X106012412Y-119742230D01*
X106444853Y-119921795D01*
X106913093Y-119922204D01*
X107345846Y-119743394D01*
X107677230Y-119412588D01*
X107749914Y-119237545D01*
X107829926Y-119221629D01*
X107997296Y-119109796D01*
X108077000Y-119030092D01*
X108077000Y-123523000D01*
X37453950Y-123523000D01*
X38581387Y-122397530D01*
X39226265Y-120844491D01*
X39226742Y-120297603D01*
X41752752Y-120297603D01*
X41969543Y-120822275D01*
X42370614Y-121224047D01*
X42894907Y-121441752D01*
X43462603Y-121442248D01*
X43987275Y-121225457D01*
X44389047Y-120824386D01*
X44606752Y-120300093D01*
X44606754Y-120297603D01*
X49372752Y-120297603D01*
X49589543Y-120822275D01*
X49990614Y-121224047D01*
X50514907Y-121441752D01*
X51082603Y-121442248D01*
X51607275Y-121225457D01*
X52009047Y-120824386D01*
X52226752Y-120300093D01*
X52226797Y-120248093D01*
X55337796Y-120248093D01*
X55516606Y-120680846D01*
X55847412Y-121012230D01*
X56279853Y-121191795D01*
X56748093Y-121192204D01*
X57180846Y-121013394D01*
X57512230Y-120682588D01*
X57672089Y-120297603D01*
X60802752Y-120297603D01*
X61019543Y-120822275D01*
X61420614Y-121224047D01*
X61944907Y-121441752D01*
X62512603Y-121442248D01*
X63037275Y-121225457D01*
X63439047Y-120824386D01*
X63656752Y-120300093D01*
X63656754Y-120297603D01*
X68422752Y-120297603D01*
X68639543Y-120822275D01*
X69040614Y-121224047D01*
X69564907Y-121441752D01*
X70132603Y-121442248D01*
X70657275Y-121225457D01*
X71059047Y-120824386D01*
X71276752Y-120300093D01*
X71277248Y-119732397D01*
X71060457Y-119207725D01*
X70659386Y-118805953D01*
X70135093Y-118588248D01*
X69567397Y-118587752D01*
X69042725Y-118804543D01*
X68640953Y-119205614D01*
X68423248Y-119729907D01*
X68422752Y-120297603D01*
X63656754Y-120297603D01*
X63657248Y-119732397D01*
X63440457Y-119207725D01*
X63039386Y-118805953D01*
X62515093Y-118588248D01*
X61947397Y-118587752D01*
X61422725Y-118804543D01*
X61020953Y-119205614D01*
X60803248Y-119729907D01*
X60802752Y-120297603D01*
X57672089Y-120297603D01*
X57691795Y-120250147D01*
X57692204Y-119781907D01*
X57513394Y-119349154D01*
X57182588Y-119017770D01*
X56750147Y-118838205D01*
X56281907Y-118837796D01*
X55849154Y-119016606D01*
X55517770Y-119347412D01*
X55338205Y-119779853D01*
X55337796Y-120248093D01*
X52226797Y-120248093D01*
X52227248Y-119732397D01*
X52010457Y-119207725D01*
X51609386Y-118805953D01*
X51085093Y-118588248D01*
X50517397Y-118587752D01*
X49992725Y-118804543D01*
X49590953Y-119205614D01*
X49373248Y-119729907D01*
X49372752Y-120297603D01*
X44606754Y-120297603D01*
X44607248Y-119732397D01*
X44390457Y-119207725D01*
X43989386Y-118805953D01*
X43465093Y-118588248D01*
X42897397Y-118587752D01*
X42372725Y-118804543D01*
X41970953Y-119205614D01*
X41753248Y-119729907D01*
X41752752Y-120297603D01*
X39226742Y-120297603D01*
X39227732Y-119162886D01*
X38585566Y-117608725D01*
X37397530Y-116418613D01*
X35844491Y-115773735D01*
X34162886Y-115772268D01*
X32608725Y-116414434D01*
X31477000Y-117544185D01*
X31477000Y-115217603D01*
X41752752Y-115217603D01*
X41969543Y-115742275D01*
X42370614Y-116144047D01*
X42894907Y-116361752D01*
X43462603Y-116362248D01*
X43987275Y-116145457D01*
X44389047Y-115744386D01*
X44606752Y-115220093D01*
X44606754Y-115217603D01*
X49372752Y-115217603D01*
X49589543Y-115742275D01*
X49990614Y-116144047D01*
X50514907Y-116361752D01*
X51082603Y-116362248D01*
X51607275Y-116145457D01*
X52009047Y-115744386D01*
X52226752Y-115220093D01*
X52226754Y-115217603D01*
X60802752Y-115217603D01*
X61019543Y-115742275D01*
X61420614Y-116144047D01*
X61944907Y-116361752D01*
X62512603Y-116362248D01*
X63037275Y-116145457D01*
X63439047Y-115744386D01*
X63656752Y-115220093D01*
X63656754Y-115217603D01*
X68422752Y-115217603D01*
X68639543Y-115742275D01*
X69040614Y-116144047D01*
X69564907Y-116361752D01*
X70132603Y-116362248D01*
X70657275Y-116145457D01*
X71059047Y-115744386D01*
X71276752Y-115220093D01*
X71277248Y-114652397D01*
X71060457Y-114127725D01*
X70659386Y-113725953D01*
X70135093Y-113508248D01*
X69567397Y-113507752D01*
X69042725Y-113724543D01*
X68640953Y-114125614D01*
X68423248Y-114649907D01*
X68422752Y-115217603D01*
X63656754Y-115217603D01*
X63657248Y-114652397D01*
X63440457Y-114127725D01*
X63039386Y-113725953D01*
X62515093Y-113508248D01*
X61947397Y-113507752D01*
X61422725Y-113724543D01*
X61020953Y-114125614D01*
X60803248Y-114649907D01*
X60802752Y-115217603D01*
X52226754Y-115217603D01*
X52227248Y-114652397D01*
X52010457Y-114127725D01*
X51609386Y-113725953D01*
X51085093Y-113508248D01*
X50517397Y-113507752D01*
X49992725Y-113724543D01*
X49590953Y-114125614D01*
X49373248Y-114649907D01*
X49372752Y-115217603D01*
X44606754Y-115217603D01*
X44607248Y-114652397D01*
X44390457Y-114127725D01*
X43989386Y-113725953D01*
X43465093Y-113508248D01*
X42897397Y-113507752D01*
X42372725Y-113724543D01*
X41970953Y-114125614D01*
X41753248Y-114649907D01*
X41752752Y-115217603D01*
X31477000Y-115217603D01*
X31477000Y-111993093D01*
X40732796Y-111993093D01*
X40911606Y-112425846D01*
X41242412Y-112757230D01*
X41674853Y-112936795D01*
X42143093Y-112937204D01*
X42575846Y-112758394D01*
X42907230Y-112427588D01*
X43086795Y-111995147D01*
X43087204Y-111526907D01*
X42908394Y-111094154D01*
X42577588Y-110762770D01*
X42170104Y-110593568D01*
X42255448Y-110589230D01*
X42633923Y-110432460D01*
X42701912Y-110191517D01*
X41910000Y-109399605D01*
X41118088Y-110191517D01*
X41186077Y-110432460D01*
X41645251Y-110595876D01*
X41244154Y-110761606D01*
X40912770Y-111092412D01*
X40733205Y-111524853D01*
X40732796Y-111993093D01*
X31477000Y-111993093D01*
X31477000Y-109015171D01*
X40512799Y-109015171D01*
X40540770Y-109565448D01*
X40697540Y-109943923D01*
X40938483Y-110011912D01*
X41730395Y-109220000D01*
X42089605Y-109220000D01*
X42881517Y-110011912D01*
X43122460Y-109943923D01*
X43307201Y-109424829D01*
X43279230Y-108874552D01*
X43122460Y-108496077D01*
X42881517Y-108428088D01*
X42089605Y-109220000D01*
X41730395Y-109220000D01*
X40938483Y-108428088D01*
X40697540Y-108496077D01*
X40512799Y-109015171D01*
X31477000Y-109015171D01*
X31477000Y-108248483D01*
X41118088Y-108248483D01*
X41910000Y-109040395D01*
X42701912Y-108248483D01*
X42633923Y-108007540D01*
X42114829Y-107822799D01*
X41564552Y-107850770D01*
X41186077Y-108007540D01*
X41118088Y-108248483D01*
X31477000Y-108248483D01*
X31477000Y-106330750D01*
X40375000Y-106330750D01*
X40375000Y-107071310D01*
X40471673Y-107304699D01*
X40650302Y-107483327D01*
X40883691Y-107580000D01*
X41624250Y-107580000D01*
X41783000Y-107421250D01*
X41783000Y-106172000D01*
X42037000Y-106172000D01*
X42037000Y-107421250D01*
X42195750Y-107580000D01*
X42936309Y-107580000D01*
X43169698Y-107483327D01*
X43348327Y-107304699D01*
X43445000Y-107071310D01*
X43445000Y-106330750D01*
X43286250Y-106172000D01*
X42037000Y-106172000D01*
X41783000Y-106172000D01*
X40533750Y-106172000D01*
X40375000Y-106330750D01*
X31477000Y-106330750D01*
X31477000Y-105018690D01*
X40375000Y-105018690D01*
X40375000Y-105759250D01*
X40533750Y-105918000D01*
X41783000Y-105918000D01*
X41783000Y-104668750D01*
X42037000Y-104668750D01*
X42037000Y-105918000D01*
X43286250Y-105918000D01*
X43445000Y-105759250D01*
X43445000Y-105018690D01*
X43348327Y-104785301D01*
X43169698Y-104606673D01*
X42936309Y-104510000D01*
X42195750Y-104510000D01*
X42037000Y-104668750D01*
X41783000Y-104668750D01*
X41624250Y-104510000D01*
X40883691Y-104510000D01*
X40650302Y-104606673D01*
X40471673Y-104785301D01*
X40375000Y-105018690D01*
X31477000Y-105018690D01*
X31477000Y-103103093D01*
X44582796Y-103103093D01*
X44761606Y-103535846D01*
X45092412Y-103867230D01*
X45524853Y-104046795D01*
X45993093Y-104047204D01*
X46425846Y-103868394D01*
X46757230Y-103537588D01*
X46936795Y-103105147D01*
X46937204Y-102636907D01*
X46758394Y-102204154D01*
X46674387Y-102120000D01*
X47074635Y-102120000D01*
X47074635Y-103620000D01*
X47104409Y-103778237D01*
X47197927Y-103923567D01*
X47340619Y-104021064D01*
X47510000Y-104055365D01*
X49010000Y-104055365D01*
X49168237Y-104025591D01*
X49313567Y-103932073D01*
X49411064Y-103789381D01*
X49445365Y-103620000D01*
X49445365Y-103514957D01*
X51084332Y-105153925D01*
X50945681Y-105292334D01*
X50743231Y-105779885D01*
X50742771Y-106307798D01*
X50944369Y-106795703D01*
X51317334Y-107169319D01*
X51554100Y-107267633D01*
X51554100Y-108159650D01*
X51404154Y-108221606D01*
X51072770Y-108552412D01*
X50893205Y-108984853D01*
X50892796Y-109453093D01*
X51071606Y-109885846D01*
X51402412Y-110217230D01*
X51554100Y-110280216D01*
X51554100Y-110699650D01*
X51404154Y-110761606D01*
X51072770Y-111092412D01*
X50893205Y-111524853D01*
X50892796Y-111993093D01*
X51071606Y-112425846D01*
X51402412Y-112757230D01*
X51834853Y-112936795D01*
X52303093Y-112937204D01*
X52735846Y-112758394D01*
X53067230Y-112427588D01*
X53246795Y-111995147D01*
X53246796Y-111993093D01*
X59782796Y-111993093D01*
X59961606Y-112425846D01*
X60292412Y-112757230D01*
X60724853Y-112936795D01*
X61193093Y-112937204D01*
X61625846Y-112758394D01*
X61957230Y-112427588D01*
X62136795Y-111995147D01*
X62137204Y-111526907D01*
X61958394Y-111094154D01*
X61627588Y-110762770D01*
X61195147Y-110583205D01*
X60726907Y-110582796D01*
X60294154Y-110761606D01*
X59962770Y-111092412D01*
X59783205Y-111524853D01*
X59782796Y-111993093D01*
X53246796Y-111993093D01*
X53247204Y-111526907D01*
X53068394Y-111094154D01*
X52737588Y-110762770D01*
X52585900Y-110699784D01*
X52585900Y-110280350D01*
X52735846Y-110218394D01*
X53067230Y-109887588D01*
X53246795Y-109455147D01*
X53247204Y-108986907D01*
X53068394Y-108554154D01*
X52737588Y-108222770D01*
X52585900Y-108159784D01*
X52585900Y-107267650D01*
X52820703Y-107170631D01*
X53194319Y-106797666D01*
X53396769Y-106310115D01*
X53397229Y-105782202D01*
X53195631Y-105294297D01*
X52822666Y-104920681D01*
X52335115Y-104718231D01*
X52107626Y-104718033D01*
X49894796Y-102505204D01*
X49727426Y-102393371D01*
X49530000Y-102354100D01*
X49445365Y-102354100D01*
X49445365Y-102120000D01*
X49415591Y-101961763D01*
X49322073Y-101816433D01*
X49179381Y-101718936D01*
X49010000Y-101684635D01*
X48775900Y-101684635D01*
X48775900Y-99007885D01*
X48918324Y-98865710D01*
X49036865Y-98580233D01*
X49037134Y-98271123D01*
X48919092Y-97985440D01*
X48700710Y-97766676D01*
X48415233Y-97648135D01*
X48106123Y-97647866D01*
X47820440Y-97765908D01*
X47601676Y-97984290D01*
X47483135Y-98269767D01*
X47482866Y-98578877D01*
X47600908Y-98864560D01*
X47744100Y-99008002D01*
X47744100Y-101684635D01*
X47510000Y-101684635D01*
X47351763Y-101714409D01*
X47206433Y-101807927D01*
X47108936Y-101950619D01*
X47074635Y-102120000D01*
X46674387Y-102120000D01*
X46427588Y-101872770D01*
X45995147Y-101693205D01*
X45526907Y-101692796D01*
X45094154Y-101871606D01*
X44762770Y-102202412D01*
X44583205Y-102634853D01*
X44582796Y-103103093D01*
X31477000Y-103103093D01*
X31477000Y-95770000D01*
X32854635Y-95770000D01*
X32854635Y-97270000D01*
X32884409Y-97428237D01*
X32977927Y-97573567D01*
X33120619Y-97671064D01*
X33290000Y-97705365D01*
X35290000Y-97705365D01*
X35448237Y-97675591D01*
X35593567Y-97582073D01*
X35691064Y-97439381D01*
X35725365Y-97270000D01*
X35725365Y-95770000D01*
X35695591Y-95611763D01*
X35602073Y-95466433D01*
X35459381Y-95368936D01*
X35290000Y-95334635D01*
X33290000Y-95334635D01*
X33131763Y-95364409D01*
X32986433Y-95457927D01*
X32888936Y-95600619D01*
X32854635Y-95770000D01*
X31477000Y-95770000D01*
X31477000Y-78740000D01*
X32835043Y-78740000D01*
X32924637Y-79190418D01*
X33179778Y-79572265D01*
X33561625Y-79827406D01*
X34012043Y-79917000D01*
X34567957Y-79917000D01*
X35018375Y-79827406D01*
X35400222Y-79572265D01*
X35655363Y-79190418D01*
X35744957Y-78740000D01*
X35655363Y-78289582D01*
X35400222Y-77907735D01*
X35018375Y-77652594D01*
X34567957Y-77563000D01*
X34012043Y-77563000D01*
X33561625Y-77652594D01*
X33179778Y-77907735D01*
X32924637Y-78289582D01*
X32835043Y-78740000D01*
X31477000Y-78740000D01*
X31477000Y-71607093D01*
X33914796Y-71607093D01*
X34093606Y-72039846D01*
X34424412Y-72371230D01*
X34856853Y-72550795D01*
X35325093Y-72551204D01*
X35757846Y-72372394D01*
X36089230Y-72041588D01*
X36207000Y-71757966D01*
X36207000Y-72250310D01*
X36303673Y-72483699D01*
X36482302Y-72662327D01*
X36715691Y-72759000D01*
X37306250Y-72759000D01*
X37465000Y-72600250D01*
X37465000Y-71501000D01*
X37719000Y-71501000D01*
X37719000Y-72600250D01*
X37877750Y-72759000D01*
X38468309Y-72759000D01*
X38701698Y-72662327D01*
X38880327Y-72483699D01*
X38977000Y-72250310D01*
X38977000Y-71659750D01*
X38818250Y-71501000D01*
X37719000Y-71501000D01*
X37465000Y-71501000D01*
X37445000Y-71501000D01*
X37445000Y-71247000D01*
X37465000Y-71247000D01*
X37465000Y-70147750D01*
X37719000Y-70147750D01*
X37719000Y-71247000D01*
X38818250Y-71247000D01*
X38977000Y-71088250D01*
X38977000Y-70497690D01*
X38880327Y-70264301D01*
X38701698Y-70085673D01*
X38468309Y-69989000D01*
X37877750Y-69989000D01*
X37719000Y-70147750D01*
X37465000Y-70147750D01*
X37306250Y-69989000D01*
X36715691Y-69989000D01*
X36482302Y-70085673D01*
X36303673Y-70264301D01*
X36207000Y-70497690D01*
X36207000Y-70990362D01*
X36090394Y-70708154D01*
X35759588Y-70376770D01*
X35327147Y-70197205D01*
X34858907Y-70196796D01*
X34426154Y-70375606D01*
X34094770Y-70706412D01*
X33915205Y-71138853D01*
X33914796Y-71607093D01*
X31477000Y-71607093D01*
X31477000Y-63373000D01*
X34350040Y-63373000D01*
X34372927Y-63408567D01*
X34515619Y-63506064D01*
X34685000Y-63540365D01*
X36435000Y-63540365D01*
X36593237Y-63510591D01*
X36738567Y-63417073D01*
X36836064Y-63274381D01*
X36870365Y-63105000D01*
X36870365Y-61355000D01*
X36840591Y-61196763D01*
X36747073Y-61051433D01*
X36604381Y-60953936D01*
X36435000Y-60919635D01*
X36400579Y-60919635D01*
X36442455Y-60792060D01*
X35560000Y-59909605D01*
X35545858Y-59923748D01*
X35366253Y-59744143D01*
X35380395Y-59730000D01*
X35739605Y-59730000D01*
X36622060Y-60612455D01*
X36875953Y-60529116D01*
X37081590Y-59964694D01*
X37055579Y-59364542D01*
X36875953Y-58930884D01*
X36622060Y-58847545D01*
X35739605Y-59730000D01*
X35380395Y-59730000D01*
X35366253Y-59715858D01*
X35545858Y-59536253D01*
X35560000Y-59550395D01*
X36442455Y-58667940D01*
X36359116Y-58414047D01*
X35794694Y-58208410D01*
X35194542Y-58234421D01*
X34760884Y-58414047D01*
X34677546Y-58667938D01*
X34671000Y-58661392D01*
X34671000Y-53770171D01*
X44322799Y-53770171D01*
X44350770Y-54320448D01*
X44507540Y-54698923D01*
X44748483Y-54766912D01*
X45540395Y-53975000D01*
X44748483Y-53183088D01*
X44507540Y-53251077D01*
X44322799Y-53770171D01*
X34671000Y-53770171D01*
X34671000Y-53467000D01*
X38354000Y-53467000D01*
X38403410Y-53456994D01*
X38445035Y-53428553D01*
X38472315Y-53386159D01*
X38481000Y-53340000D01*
X38481000Y-50558857D01*
X38775222Y-50362265D01*
X39030363Y-49980418D01*
X39119957Y-49530000D01*
X39030363Y-49079582D01*
X38775222Y-48697735D01*
X38481000Y-48501143D01*
X38481000Y-48018857D01*
X38775222Y-47822265D01*
X39030363Y-47440418D01*
X39119957Y-46990000D01*
X39030363Y-46539582D01*
X38775222Y-46157735D01*
X38481000Y-45961143D01*
X38481000Y-45715098D01*
X38536721Y-45699964D01*
X38967736Y-45366894D01*
X39238481Y-44894235D01*
X39257318Y-44791185D01*
X39134656Y-44577000D01*
X38481000Y-44577000D01*
X38481000Y-44323000D01*
X39134656Y-44323000D01*
X39257318Y-44108815D01*
X39238481Y-44005765D01*
X39129208Y-43815000D01*
X42212389Y-43815000D01*
X42212366Y-43841877D01*
G36*
X123418613Y-25602470D02*
X122773735Y-27155509D01*
X122772268Y-28837114D01*
X123414434Y-30391275D01*
X124602470Y-31581387D01*
X126155509Y-32226265D01*
X127837114Y-32227732D01*
X129391275Y-31585566D01*
X130523000Y-30455815D01*
X130523000Y-44577000D01*
X124751369Y-44577000D01*
X124891284Y-44549169D01*
X125256909Y-44304866D01*
X125501212Y-43939241D01*
X125587000Y-43507957D01*
X125587000Y-42852043D01*
X125501212Y-42420759D01*
X125256909Y-42055134D01*
X124891284Y-41810831D01*
X124460000Y-41725043D01*
X124028716Y-41810831D01*
X123663091Y-42055134D01*
X123418788Y-42420759D01*
X123333000Y-42852043D01*
X123333000Y-43507957D01*
X123418788Y-43939241D01*
X123663091Y-44304866D01*
X124028716Y-44549169D01*
X124168631Y-44577000D01*
X122211369Y-44577000D01*
X122351284Y-44549169D01*
X122716909Y-44304866D01*
X122961212Y-43939241D01*
X123047000Y-43507957D01*
X123047000Y-42852043D01*
X122961212Y-42420759D01*
X122716909Y-42055134D01*
X122351284Y-41810831D01*
X121920000Y-41725043D01*
X121488716Y-41810831D01*
X121123091Y-42055134D01*
X120878788Y-42420759D01*
X120793000Y-42852043D01*
X120793000Y-43507957D01*
X120878788Y-43939241D01*
X121123091Y-44304866D01*
X121488716Y-44549169D01*
X121628631Y-44577000D01*
X119671369Y-44577000D01*
X119811284Y-44549169D01*
X120176909Y-44304866D01*
X120421212Y-43939241D01*
X120507000Y-43507957D01*
X120507000Y-42852043D01*
X120421212Y-42420759D01*
X120176909Y-42055134D01*
X119811284Y-41810831D01*
X119380000Y-41725043D01*
X118948716Y-41810831D01*
X118583091Y-42055134D01*
X118338788Y-42420759D01*
X118253000Y-42852043D01*
X118253000Y-43507957D01*
X118338788Y-43939241D01*
X118583091Y-44304866D01*
X118948716Y-44549169D01*
X119088631Y-44577000D01*
X117131369Y-44577000D01*
X117271284Y-44549169D01*
X117636909Y-44304866D01*
X117881212Y-43939241D01*
X117967000Y-43507957D01*
X117967000Y-42852043D01*
X117881212Y-42420759D01*
X117636909Y-42055134D01*
X117271284Y-41810831D01*
X116840000Y-41725043D01*
X116408716Y-41810831D01*
X116043091Y-42055134D01*
X115798788Y-42420759D01*
X115713000Y-42852043D01*
X115713000Y-43507957D01*
X115798788Y-43939241D01*
X116043091Y-44304866D01*
X116408716Y-44549169D01*
X116548631Y-44577000D01*
X115036869Y-44577000D01*
X115154185Y-44513790D01*
X115484778Y-44108215D01*
X115635000Y-43607000D01*
X115635000Y-43307000D01*
X114427000Y-43307000D01*
X114427000Y-43327000D01*
X114173000Y-43327000D01*
X114173000Y-43307000D01*
X112965000Y-43307000D01*
X112965000Y-43607000D01*
X113115222Y-44108215D01*
X113445815Y-44513790D01*
X113563131Y-44577000D01*
X112441000Y-44577000D01*
X112441000Y-44382314D01*
X112556909Y-44304866D01*
X112801212Y-43939241D01*
X112887000Y-43507957D01*
X112887000Y-42852043D01*
X112867300Y-42753000D01*
X112965000Y-42753000D01*
X112965000Y-43053000D01*
X114173000Y-43053000D01*
X114173000Y-41710626D01*
X114427000Y-41710626D01*
X114427000Y-43053000D01*
X115635000Y-43053000D01*
X115635000Y-42753000D01*
X115484778Y-42251785D01*
X115154185Y-41846210D01*
X114693550Y-41598020D01*
X114633329Y-41587284D01*
X114427000Y-41710626D01*
X114173000Y-41710626D01*
X113966671Y-41587284D01*
X113906450Y-41598020D01*
X113445815Y-41846210D01*
X113115222Y-42251785D01*
X112965000Y-42753000D01*
X112867300Y-42753000D01*
X112801212Y-42420759D01*
X112556909Y-42055134D01*
X112191284Y-41810831D01*
X111760000Y-41725043D01*
X111328716Y-41810831D01*
X110963091Y-42055134D01*
X110718788Y-42420759D01*
X110633000Y-42852043D01*
X110633000Y-43507957D01*
X110718788Y-43939241D01*
X110963091Y-44304866D01*
X111079000Y-44382314D01*
X111079000Y-44577000D01*
X109511369Y-44577000D01*
X109651284Y-44549169D01*
X110016909Y-44304866D01*
X110261212Y-43939241D01*
X110347000Y-43507957D01*
X110347000Y-42852043D01*
X110261212Y-42420759D01*
X110016909Y-42055134D01*
X109735900Y-41867370D01*
X109735900Y-40599692D01*
X110830693Y-39504900D01*
X114109500Y-39504900D01*
X114306926Y-39465629D01*
X114474296Y-39353796D01*
X115934796Y-37893296D01*
X116046629Y-37725926D01*
X116085900Y-37528500D01*
X116085900Y-36713470D01*
X116408716Y-36929169D01*
X116840000Y-37014957D01*
X117271284Y-36929169D01*
X117636909Y-36684866D01*
X117881212Y-36319241D01*
X117967000Y-35887957D01*
X117967000Y-35687000D01*
X118045000Y-35687000D01*
X118045000Y-35987000D01*
X118195222Y-36488215D01*
X118525815Y-36893790D01*
X118986450Y-37141980D01*
X119046671Y-37152716D01*
X119253000Y-37029374D01*
X119253000Y-35687000D01*
X119507000Y-35687000D01*
X119507000Y-37029374D01*
X119713329Y-37152716D01*
X119773550Y-37141980D01*
X120234185Y-36893790D01*
X120564778Y-36488215D01*
X120650000Y-36203872D01*
X120735222Y-36488215D01*
X121065815Y-36893790D01*
X121526450Y-37141980D01*
X121586671Y-37152716D01*
X121793000Y-37029374D01*
X121793000Y-35687000D01*
X122047000Y-35687000D01*
X122047000Y-37029374D01*
X122253329Y-37152716D01*
X122313550Y-37141980D01*
X122774185Y-36893790D01*
X123104778Y-36488215D01*
X123190000Y-36203872D01*
X123275222Y-36488215D01*
X123605815Y-36893790D01*
X124066450Y-37141980D01*
X124126671Y-37152716D01*
X124333000Y-37029374D01*
X124333000Y-35687000D01*
X124587000Y-35687000D01*
X124587000Y-37029374D01*
X124793329Y-37152716D01*
X124853550Y-37141980D01*
X125314185Y-36893790D01*
X125644778Y-36488215D01*
X125795000Y-35987000D01*
X125795000Y-35687000D01*
X124587000Y-35687000D01*
X124333000Y-35687000D01*
X122047000Y-35687000D01*
X121793000Y-35687000D01*
X119507000Y-35687000D01*
X119253000Y-35687000D01*
X118045000Y-35687000D01*
X117967000Y-35687000D01*
X117967000Y-35232043D01*
X117947300Y-35133000D01*
X118045000Y-35133000D01*
X118045000Y-35433000D01*
X119253000Y-35433000D01*
X119253000Y-34090626D01*
X119507000Y-34090626D01*
X119507000Y-35433000D01*
X121793000Y-35433000D01*
X121793000Y-34090626D01*
X122047000Y-34090626D01*
X122047000Y-35433000D01*
X124333000Y-35433000D01*
X124333000Y-34090626D01*
X124587000Y-34090626D01*
X124587000Y-35433000D01*
X125795000Y-35433000D01*
X125795000Y-35133000D01*
X125644778Y-34631785D01*
X125314185Y-34226210D01*
X124853550Y-33978020D01*
X124793329Y-33967284D01*
X124587000Y-34090626D01*
X124333000Y-34090626D01*
X124126671Y-33967284D01*
X124066450Y-33978020D01*
X123605815Y-34226210D01*
X123275222Y-34631785D01*
X123190000Y-34916128D01*
X123104778Y-34631785D01*
X122774185Y-34226210D01*
X122313550Y-33978020D01*
X122253329Y-33967284D01*
X122047000Y-34090626D01*
X121793000Y-34090626D01*
X121586671Y-33967284D01*
X121526450Y-33978020D01*
X121065815Y-34226210D01*
X120735222Y-34631785D01*
X120650000Y-34916128D01*
X120564778Y-34631785D01*
X120234185Y-34226210D01*
X119773550Y-33978020D01*
X119713329Y-33967284D01*
X119507000Y-34090626D01*
X119253000Y-34090626D01*
X119046671Y-33967284D01*
X118986450Y-33978020D01*
X118525815Y-34226210D01*
X118195222Y-34631785D01*
X118045000Y-35133000D01*
X117947300Y-35133000D01*
X117881212Y-34800759D01*
X117636909Y-34435134D01*
X117271284Y-34190831D01*
X116840000Y-34105043D01*
X116408716Y-34190831D01*
X116085900Y-34406530D01*
X116085900Y-34186192D01*
X118393535Y-31878558D01*
X118560418Y-31845363D01*
X118942265Y-31590222D01*
X119197406Y-31208375D01*
X119266609Y-30860471D01*
X119400036Y-31351721D01*
X119733106Y-31782736D01*
X120205765Y-32053481D01*
X120308815Y-32072318D01*
X120523000Y-31949656D01*
X120523000Y-30607000D01*
X120777000Y-30607000D01*
X120777000Y-31949656D01*
X120991185Y-32072318D01*
X121094235Y-32053481D01*
X121566894Y-31782736D01*
X121899964Y-31351721D01*
X122042739Y-30826055D01*
X121881868Y-30607000D01*
X120777000Y-30607000D01*
X120523000Y-30607000D01*
X120503000Y-30607000D01*
X120503000Y-30353000D01*
X120523000Y-30353000D01*
X120523000Y-28067000D01*
X120777000Y-28067000D01*
X120777000Y-30353000D01*
X121881868Y-30353000D01*
X122042739Y-30133945D01*
X121899964Y-29608279D01*
X121592191Y-29210000D01*
X121899964Y-28811721D01*
X122042739Y-28286055D01*
X121881868Y-28067000D01*
X120777000Y-28067000D01*
X120523000Y-28067000D01*
X120503000Y-28067000D01*
X120503000Y-27813000D01*
X120523000Y-27813000D01*
X120523000Y-26470344D01*
X120777000Y-26470344D01*
X120777000Y-27813000D01*
X121881868Y-27813000D01*
X122042739Y-27593945D01*
X121899964Y-27068279D01*
X121566894Y-26637264D01*
X121094235Y-26366519D01*
X120991185Y-26347682D01*
X120777000Y-26470344D01*
X120523000Y-26470344D01*
X120308815Y-26347682D01*
X120205765Y-26366519D01*
X119733106Y-26637264D01*
X119400036Y-27068279D01*
X119266609Y-27559529D01*
X119253000Y-27491114D01*
X119253000Y-27178000D01*
X119244315Y-27131841D01*
X119217035Y-27089447D01*
X119175410Y-27061006D01*
X119126000Y-27051000D01*
X119090080Y-27051000D01*
X118942265Y-26829778D01*
X118560418Y-26574637D01*
X118110000Y-26485043D01*
X117659582Y-26574637D01*
X117277735Y-26829778D01*
X117129920Y-27051000D01*
X116550080Y-27051000D01*
X116402265Y-26829778D01*
X116020418Y-26574637D01*
X115570000Y-26485043D01*
X115119582Y-26574637D01*
X114737735Y-26829778D01*
X114589920Y-27051000D01*
X114010080Y-27051000D01*
X113862265Y-26829778D01*
X113480418Y-26574637D01*
X113030000Y-26485043D01*
X112579582Y-26574637D01*
X112197735Y-26829778D01*
X112049920Y-27051000D01*
X111470080Y-27051000D01*
X111322265Y-26829778D01*
X110940418Y-26574637D01*
X110490000Y-26485043D01*
X110039582Y-26574637D01*
X109657735Y-26829778D01*
X109509920Y-27051000D01*
X108930080Y-27051000D01*
X108782265Y-26829778D01*
X108400418Y-26574637D01*
X107950000Y-26485043D01*
X107499582Y-26574637D01*
X107117735Y-26829778D01*
X106969920Y-27051000D01*
X106390080Y-27051000D01*
X106242265Y-26829778D01*
X105860418Y-26574637D01*
X105410000Y-26485043D01*
X104959582Y-26574637D01*
X104577735Y-26829778D01*
X104429920Y-27051000D01*
X103850080Y-27051000D01*
X103702265Y-26829778D01*
X103320418Y-26574637D01*
X102870000Y-26485043D01*
X102419582Y-26574637D01*
X102037735Y-26829778D01*
X101889920Y-27051000D01*
X101310080Y-27051000D01*
X101162265Y-26829778D01*
X100780418Y-26574637D01*
X100330000Y-26485043D01*
X99879582Y-26574637D01*
X99497735Y-26829778D01*
X99349920Y-27051000D01*
X98770080Y-27051000D01*
X98622265Y-26829778D01*
X98240418Y-26574637D01*
X97790000Y-26485043D01*
X97339582Y-26574637D01*
X96957735Y-26829778D01*
X96702594Y-27211625D01*
X96613000Y-27662043D01*
X96613000Y-28217957D01*
X96702594Y-28668375D01*
X96809920Y-28829000D01*
X92676612Y-28829000D01*
X92689964Y-28811721D01*
X92832739Y-28286055D01*
X92671868Y-28067000D01*
X91567000Y-28067000D01*
X91567000Y-28087000D01*
X91313000Y-28087000D01*
X91313000Y-28067000D01*
X91293000Y-28067000D01*
X91293000Y-27813000D01*
X91313000Y-27813000D01*
X91313000Y-26470344D01*
X91567000Y-26470344D01*
X91567000Y-27813000D01*
X92671868Y-27813000D01*
X92832739Y-27593945D01*
X92689964Y-27068279D01*
X92356894Y-26637264D01*
X91884235Y-26366519D01*
X91781185Y-26347682D01*
X91567000Y-26470344D01*
X91313000Y-26470344D01*
X91098815Y-26347682D01*
X90995765Y-26366519D01*
X90523106Y-26637264D01*
X90190036Y-27068279D01*
X90056609Y-27559529D01*
X89987406Y-27211625D01*
X89732265Y-26829778D01*
X89350418Y-26574637D01*
X88900000Y-26485043D01*
X88449582Y-26574637D01*
X88116791Y-26797000D01*
X87143209Y-26797000D01*
X86810418Y-26574637D01*
X86360000Y-26485043D01*
X85909582Y-26574637D01*
X85576791Y-26797000D01*
X84978458Y-26797000D01*
X84975591Y-26781763D01*
X84882073Y-26636433D01*
X84739381Y-26538936D01*
X84570000Y-26504635D01*
X83070000Y-26504635D01*
X82911763Y-26534409D01*
X82766433Y-26627927D01*
X82668936Y-26770619D01*
X82634635Y-26940000D01*
X82634635Y-28940000D01*
X82664409Y-29098237D01*
X82757927Y-29243567D01*
X82885000Y-29330392D01*
X82885000Y-29591000D01*
X75819002Y-29591000D01*
X75716092Y-29341940D01*
X75497710Y-29123176D01*
X75212233Y-29004635D01*
X74903123Y-29004366D01*
X74617440Y-29122408D01*
X74398676Y-29340790D01*
X74280135Y-29626267D01*
X74279866Y-29935377D01*
X74397908Y-30221060D01*
X74414100Y-30237280D01*
X74414100Y-33229650D01*
X74264154Y-33291606D01*
X74154569Y-33401000D01*
X71104618Y-33401000D01*
X71198365Y-33175233D01*
X71198634Y-32866123D01*
X71080592Y-32580440D01*
X70862210Y-32361676D01*
X70576733Y-32243135D01*
X70267623Y-32242866D01*
X69981940Y-32360908D01*
X69763176Y-32579290D01*
X69644635Y-32864767D01*
X69644366Y-33173877D01*
X69762408Y-33459560D01*
X69905600Y-33603002D01*
X69905600Y-40997807D01*
X68215204Y-42688204D01*
X68103371Y-42855574D01*
X68064100Y-43053000D01*
X68064100Y-44577000D01*
X51943000Y-44577000D01*
X51943000Y-42164000D01*
X51932994Y-42114590D01*
X51904553Y-42072965D01*
X51862159Y-42045685D01*
X51816000Y-42037000D01*
X46235900Y-42037000D01*
X46235900Y-41769670D01*
X46448375Y-41727406D01*
X46830222Y-41472265D01*
X47085363Y-41090418D01*
X47128591Y-40873093D01*
X48987796Y-40873093D01*
X49166606Y-41305846D01*
X49497412Y-41637230D01*
X49929853Y-41816795D01*
X50398093Y-41817204D01*
X50830846Y-41638394D01*
X51162230Y-41307588D01*
X51330313Y-40902798D01*
X52012771Y-40902798D01*
X52214369Y-41390703D01*
X52587334Y-41764319D01*
X53074885Y-41966769D01*
X53602798Y-41967229D01*
X54090703Y-41765631D01*
X54464319Y-41392666D01*
X54635181Y-40981185D01*
X63177682Y-40981185D01*
X63196519Y-41084235D01*
X63467264Y-41556894D01*
X63898279Y-41889964D01*
X64423945Y-42032739D01*
X64643000Y-41871868D01*
X64643000Y-40767000D01*
X64897000Y-40767000D01*
X64897000Y-41871868D01*
X65116055Y-42032739D01*
X65641721Y-41889964D01*
X66072736Y-41556894D01*
X66343481Y-41084235D01*
X66362318Y-40981185D01*
X66239656Y-40767000D01*
X64897000Y-40767000D01*
X64643000Y-40767000D01*
X63300344Y-40767000D01*
X63177682Y-40981185D01*
X54635181Y-40981185D01*
X54666769Y-40905115D01*
X54667229Y-40377202D01*
X54634841Y-40298815D01*
X63177682Y-40298815D01*
X63300344Y-40513000D01*
X64643000Y-40513000D01*
X64643000Y-40493000D01*
X64897000Y-40493000D01*
X64897000Y-40513000D01*
X66239656Y-40513000D01*
X66362318Y-40298815D01*
X66343481Y-40195765D01*
X66072736Y-39723106D01*
X65641721Y-39390036D01*
X65150471Y-39256609D01*
X65498375Y-39187406D01*
X65880222Y-38932265D01*
X66135363Y-38550418D01*
X66224957Y-38100000D01*
X66135363Y-37649582D01*
X65880222Y-37267735D01*
X65498375Y-37012594D01*
X65047957Y-36923000D01*
X64492043Y-36923000D01*
X64041625Y-37012594D01*
X63659778Y-37267735D01*
X63404637Y-37649582D01*
X63315043Y-38100000D01*
X63404637Y-38550418D01*
X63659778Y-38932265D01*
X64041625Y-39187406D01*
X64389529Y-39256609D01*
X63898279Y-39390036D01*
X63467264Y-39723106D01*
X63196519Y-40195765D01*
X63177682Y-40298815D01*
X54634841Y-40298815D01*
X54465631Y-39889297D01*
X54092666Y-39515681D01*
X53605115Y-39313231D01*
X53077202Y-39312771D01*
X52589297Y-39514369D01*
X52215681Y-39887334D01*
X52013231Y-40374885D01*
X52012771Y-40902798D01*
X51330313Y-40902798D01*
X51341795Y-40875147D01*
X51342204Y-40406907D01*
X51163394Y-39974154D01*
X50832588Y-39642770D01*
X50400147Y-39463205D01*
X49931907Y-39462796D01*
X49499154Y-39641606D01*
X49167770Y-39972412D01*
X48988205Y-40404853D01*
X48987796Y-40873093D01*
X47128591Y-40873093D01*
X47174957Y-40640000D01*
X47085363Y-40189582D01*
X46830222Y-39807735D01*
X46609000Y-39659920D01*
X46609000Y-39080080D01*
X46830222Y-38932265D01*
X47085363Y-38550418D01*
X47128591Y-38333093D01*
X48987796Y-38333093D01*
X49166606Y-38765846D01*
X49497412Y-39097230D01*
X49929853Y-39276795D01*
X50398093Y-39277204D01*
X50830846Y-39098394D01*
X51162230Y-38767588D01*
X51341795Y-38335147D01*
X51341796Y-38333093D01*
X52162796Y-38333093D01*
X52341606Y-38765846D01*
X52672412Y-39097230D01*
X53104853Y-39276795D01*
X53573093Y-39277204D01*
X54005846Y-39098394D01*
X54337230Y-38767588D01*
X54516795Y-38335147D01*
X54517204Y-37866907D01*
X54338394Y-37434154D01*
X54007588Y-37102770D01*
X53575147Y-36923205D01*
X53106907Y-36922796D01*
X52674154Y-37101606D01*
X52342770Y-37432412D01*
X52163205Y-37864853D01*
X52162796Y-38333093D01*
X51341796Y-38333093D01*
X51342204Y-37866907D01*
X51163394Y-37434154D01*
X50832588Y-37102770D01*
X50400147Y-36923205D01*
X49931907Y-36922796D01*
X49499154Y-37101606D01*
X49167770Y-37432412D01*
X48988205Y-37864853D01*
X48987796Y-38333093D01*
X47128591Y-38333093D01*
X47174957Y-38100000D01*
X47085363Y-37649582D01*
X46830222Y-37267735D01*
X46609000Y-37119920D01*
X46609000Y-36540080D01*
X46830222Y-36392265D01*
X47085363Y-36010418D01*
X47174957Y-35560000D01*
X63315043Y-35560000D01*
X63404637Y-36010418D01*
X63659778Y-36392265D01*
X64041625Y-36647406D01*
X64492043Y-36737000D01*
X65047957Y-36737000D01*
X65498375Y-36647406D01*
X65880222Y-36392265D01*
X66135363Y-36010418D01*
X66224957Y-35560000D01*
X66135363Y-35109582D01*
X65880222Y-34727735D01*
X65498375Y-34472594D01*
X65047957Y-34383000D01*
X64492043Y-34383000D01*
X64041625Y-34472594D01*
X63659778Y-34727735D01*
X63404637Y-35109582D01*
X63315043Y-35560000D01*
X47174957Y-35560000D01*
X47085363Y-35109582D01*
X46830222Y-34727735D01*
X46609000Y-34579920D01*
X46609000Y-34000080D01*
X46830222Y-33852265D01*
X47085363Y-33470418D01*
X47174957Y-33020000D01*
X47085363Y-32569582D01*
X46830222Y-32187735D01*
X46448375Y-31932594D01*
X45997957Y-31843000D01*
X45442043Y-31843000D01*
X44991625Y-31932594D01*
X44694688Y-32131000D01*
X41799211Y-32131000D01*
X41795591Y-32111763D01*
X41702073Y-31966433D01*
X41559381Y-31868936D01*
X41390000Y-31834635D01*
X39890000Y-31834635D01*
X39731763Y-31864409D01*
X39586433Y-31957927D01*
X39488936Y-32100619D01*
X39454635Y-32270000D01*
X39454635Y-33770000D01*
X39484409Y-33928237D01*
X39577927Y-34073567D01*
X39720619Y-34171064D01*
X39890000Y-34205365D01*
X40513000Y-34205365D01*
X40513000Y-34382889D01*
X40406907Y-34382796D01*
X39974154Y-34561606D01*
X39642770Y-34892412D01*
X39579784Y-35044100D01*
X37655500Y-35044100D01*
X37458074Y-35083371D01*
X37290704Y-35195204D01*
X35830204Y-36655704D01*
X35718371Y-36823074D01*
X35679100Y-37020500D01*
X35679100Y-43264635D01*
X33725000Y-43264635D01*
X33566763Y-43294409D01*
X33421433Y-43387927D01*
X33323936Y-43530619D01*
X33289635Y-43700000D01*
X33289635Y-45200000D01*
X33319409Y-45358237D01*
X33412927Y-45503567D01*
X33555619Y-45601064D01*
X33655000Y-45621189D01*
X33655000Y-46130860D01*
X33614778Y-46157735D01*
X33359637Y-46539582D01*
X33270043Y-46990000D01*
X33359637Y-47440418D01*
X33614778Y-47822265D01*
X33655000Y-47849140D01*
X33655000Y-48670860D01*
X33614778Y-48697735D01*
X33359637Y-49079582D01*
X33270043Y-49530000D01*
X33359637Y-49980418D01*
X33614778Y-50362265D01*
X33996625Y-50617406D01*
X34447043Y-50707000D01*
X35002957Y-50707000D01*
X35453375Y-50617406D01*
X35750312Y-50419000D01*
X36322000Y-50419000D01*
X36343923Y-50414875D01*
X36362264Y-50446894D01*
X36793279Y-50779964D01*
X37318945Y-50922739D01*
X37538000Y-50761868D01*
X37538000Y-49657000D01*
X37518000Y-49657000D01*
X37518000Y-49403000D01*
X37538000Y-49403000D01*
X37538000Y-49383000D01*
X37719000Y-49383000D01*
X37719000Y-52705000D01*
X34036000Y-52705000D01*
X33986590Y-52715006D01*
X33944965Y-52743447D01*
X33917685Y-52785841D01*
X33909000Y-52832000D01*
X33909000Y-62611000D01*
X31477000Y-62611000D01*
X31477000Y-30453950D01*
X32602470Y-31581387D01*
X34155509Y-32226265D01*
X35837114Y-32227732D01*
X37391275Y-31585566D01*
X38581387Y-30397530D01*
X39226265Y-28844491D01*
X39226600Y-28460000D01*
X40724635Y-28460000D01*
X40724635Y-29960000D01*
X40754409Y-30118237D01*
X40847927Y-30263567D01*
X40990619Y-30361064D01*
X41160000Y-30395365D01*
X42660000Y-30395365D01*
X42818237Y-30365591D01*
X42963567Y-30272073D01*
X42971570Y-30260360D01*
X43852355Y-31141145D01*
X44155691Y-31343827D01*
X44513500Y-31415000D01*
X44763532Y-31415000D01*
X44991625Y-31567406D01*
X45442043Y-31657000D01*
X45997957Y-31657000D01*
X46448375Y-31567406D01*
X46676468Y-31415000D01*
X47936210Y-31415000D01*
X51472355Y-34951145D01*
X51775691Y-35153827D01*
X52133500Y-35225000D01*
X57281631Y-35225000D01*
X57357927Y-35343567D01*
X57500619Y-35441064D01*
X57670000Y-35475365D01*
X59170000Y-35475365D01*
X59328237Y-35445591D01*
X59473567Y-35352073D01*
X59571064Y-35209381D01*
X59605365Y-35040000D01*
X59605365Y-33540000D01*
X59575591Y-33381763D01*
X59482073Y-33236433D01*
X59339381Y-33138936D01*
X59170000Y-33104635D01*
X58897252Y-33104635D01*
X59101577Y-33020000D01*
X63315043Y-33020000D01*
X63404637Y-33470418D01*
X63659778Y-33852265D01*
X64041625Y-34107406D01*
X64492043Y-34197000D01*
X65047957Y-34197000D01*
X65498375Y-34107406D01*
X65880222Y-33852265D01*
X66135363Y-33470418D01*
X66224957Y-33020000D01*
X66135363Y-32569582D01*
X65880222Y-32187735D01*
X65498375Y-31932594D01*
X65047957Y-31843000D01*
X64492043Y-31843000D01*
X64041625Y-31932594D01*
X63659778Y-32187735D01*
X63404637Y-32569582D01*
X63315043Y-33020000D01*
X59101577Y-33020000D01*
X59143923Y-33002460D01*
X59211912Y-32761517D01*
X58420000Y-31969605D01*
X57628088Y-32761517D01*
X57696077Y-33002460D01*
X57983173Y-33104635D01*
X57670000Y-33104635D01*
X57511763Y-33134409D01*
X57366433Y-33227927D01*
X57279608Y-33355000D01*
X52520790Y-33355000D01*
X50750961Y-31585171D01*
X57022799Y-31585171D01*
X57050770Y-32135448D01*
X57207540Y-32513923D01*
X57448483Y-32581912D01*
X58240395Y-31790000D01*
X58599605Y-31790000D01*
X59391517Y-32581912D01*
X59632460Y-32513923D01*
X59817201Y-31994829D01*
X59789230Y-31444552D01*
X59632460Y-31066077D01*
X59391517Y-30998088D01*
X58599605Y-31790000D01*
X58240395Y-31790000D01*
X57448483Y-30998088D01*
X57207540Y-31066077D01*
X57022799Y-31585171D01*
X50750961Y-31585171D01*
X49984273Y-30818483D01*
X57628088Y-30818483D01*
X58420000Y-31610395D01*
X59211912Y-30818483D01*
X59143923Y-30577540D01*
X58869851Y-30480000D01*
X63315043Y-30480000D01*
X63404637Y-30930418D01*
X63659778Y-31312265D01*
X64041625Y-31567406D01*
X64492043Y-31657000D01*
X65047957Y-31657000D01*
X65498375Y-31567406D01*
X65880222Y-31312265D01*
X66135363Y-30930418D01*
X66224957Y-30480000D01*
X66135363Y-30029582D01*
X65880222Y-29647735D01*
X65498375Y-29392594D01*
X65047957Y-29303000D01*
X64492043Y-29303000D01*
X64041625Y-29392594D01*
X63659778Y-29647735D01*
X63404637Y-30029582D01*
X63315043Y-30480000D01*
X58869851Y-30480000D01*
X58624829Y-30392799D01*
X58074552Y-30420770D01*
X57696077Y-30577540D01*
X57628088Y-30818483D01*
X49984273Y-30818483D01*
X48984645Y-29818855D01*
X48681309Y-29616173D01*
X48323500Y-29545000D01*
X46676468Y-29545000D01*
X46448375Y-29392594D01*
X46108558Y-29325000D01*
X46846309Y-29325000D01*
X47079698Y-29228327D01*
X47258327Y-29049699D01*
X47315563Y-28911517D01*
X49373088Y-28911517D01*
X49441077Y-29152460D01*
X49960171Y-29337201D01*
X50510448Y-29309230D01*
X50888923Y-29152460D01*
X50956912Y-28911517D01*
X50165000Y-28119605D01*
X49373088Y-28911517D01*
X47315563Y-28911517D01*
X47355000Y-28816310D01*
X47355000Y-28225750D01*
X47196250Y-28067000D01*
X45847000Y-28067000D01*
X45847000Y-28087000D01*
X45593000Y-28087000D01*
X45593000Y-28067000D01*
X44243750Y-28067000D01*
X44085000Y-28225750D01*
X44085000Y-28729210D01*
X43904645Y-28548855D01*
X43601309Y-28346173D01*
X43243500Y-28275000D01*
X43048369Y-28275000D01*
X42972073Y-28156433D01*
X42829381Y-28058936D01*
X42660000Y-28024635D01*
X42387252Y-28024635D01*
X42633923Y-27922460D01*
X42701912Y-27681517D01*
X41910000Y-26889605D01*
X41118088Y-27681517D01*
X41186077Y-27922460D01*
X41473173Y-28024635D01*
X41160000Y-28024635D01*
X41001763Y-28054409D01*
X40856433Y-28147927D01*
X40758936Y-28290619D01*
X40724635Y-28460000D01*
X39226600Y-28460000D01*
X39227732Y-27162886D01*
X38955970Y-26505171D01*
X40512799Y-26505171D01*
X40540770Y-27055448D01*
X40697540Y-27433923D01*
X40938483Y-27501912D01*
X41730395Y-26710000D01*
X42089605Y-26710000D01*
X42881517Y-27501912D01*
X43122460Y-27433923D01*
X43254222Y-27063690D01*
X44085000Y-27063690D01*
X44085000Y-27654250D01*
X44243750Y-27813000D01*
X45593000Y-27813000D01*
X45593000Y-26713750D01*
X45847000Y-26713750D01*
X45847000Y-27813000D01*
X47196250Y-27813000D01*
X47274079Y-27735171D01*
X48767799Y-27735171D01*
X48795770Y-28285448D01*
X48952540Y-28663923D01*
X49193483Y-28731912D01*
X49985395Y-27940000D01*
X50344605Y-27940000D01*
X51136517Y-28731912D01*
X51377460Y-28663923D01*
X51552142Y-28173093D01*
X52162796Y-28173093D01*
X52341606Y-28605846D01*
X52672412Y-28937230D01*
X53104853Y-29116795D01*
X53573093Y-29117204D01*
X54005846Y-28938394D01*
X54337230Y-28607588D01*
X54516795Y-28175147D01*
X54517204Y-27706907D01*
X54338394Y-27274154D01*
X54254387Y-27190000D01*
X63334635Y-27190000D01*
X63334635Y-28690000D01*
X63364409Y-28848237D01*
X63457927Y-28993567D01*
X63600619Y-29091064D01*
X63770000Y-29125365D01*
X65770000Y-29125365D01*
X65928237Y-29095591D01*
X66073567Y-29002073D01*
X66171064Y-28859381D01*
X66205365Y-28690000D01*
X66205365Y-27190000D01*
X66175591Y-27031763D01*
X66082073Y-26886433D01*
X65939381Y-26788936D01*
X65770000Y-26754635D01*
X63770000Y-26754635D01*
X63611763Y-26784409D01*
X63466433Y-26877927D01*
X63368936Y-27020619D01*
X63334635Y-27190000D01*
X54254387Y-27190000D01*
X54007588Y-26942770D01*
X53575147Y-26763205D01*
X53106907Y-26762796D01*
X52674154Y-26941606D01*
X52342770Y-27272412D01*
X52163205Y-27704853D01*
X52162796Y-28173093D01*
X51552142Y-28173093D01*
X51562201Y-28144829D01*
X51534230Y-27594552D01*
X51377460Y-27216077D01*
X51136517Y-27148088D01*
X50344605Y-27940000D01*
X49985395Y-27940000D01*
X49193483Y-27148088D01*
X48952540Y-27216077D01*
X48767799Y-27735171D01*
X47274079Y-27735171D01*
X47355000Y-27654250D01*
X47355000Y-27063690D01*
X47315564Y-26968483D01*
X49373088Y-26968483D01*
X50165000Y-27760395D01*
X50956912Y-26968483D01*
X50888923Y-26727540D01*
X50369829Y-26542799D01*
X49819552Y-26570770D01*
X49441077Y-26727540D01*
X49373088Y-26968483D01*
X47315564Y-26968483D01*
X47258327Y-26830301D01*
X47079698Y-26651673D01*
X46846309Y-26555000D01*
X46005750Y-26555000D01*
X45847000Y-26713750D01*
X45593000Y-26713750D01*
X45434250Y-26555000D01*
X44593691Y-26555000D01*
X44360302Y-26651673D01*
X44181673Y-26830301D01*
X44085000Y-27063690D01*
X43254222Y-27063690D01*
X43307201Y-26914829D01*
X43279230Y-26364552D01*
X43122460Y-25986077D01*
X42881517Y-25918088D01*
X42089605Y-26710000D01*
X41730395Y-26710000D01*
X40938483Y-25918088D01*
X40697540Y-25986077D01*
X40512799Y-26505171D01*
X38955970Y-26505171D01*
X38639181Y-25738483D01*
X41118088Y-25738483D01*
X41910000Y-26530395D01*
X42701912Y-25738483D01*
X42633923Y-25497540D01*
X42114829Y-25312799D01*
X41564552Y-25340770D01*
X41186077Y-25497540D01*
X41118088Y-25738483D01*
X38639181Y-25738483D01*
X38585566Y-25608725D01*
X37455815Y-24477000D01*
X124546050Y-24477000D01*
X123418613Y-25602470D01*
X123418613Y-25602470D01*
G37*
X123418613Y-25602470D02*
X122773735Y-27155509D01*
X122772268Y-28837114D01*
X123414434Y-30391275D01*
X124602470Y-31581387D01*
X126155509Y-32226265D01*
X127837114Y-32227732D01*
X129391275Y-31585566D01*
X130523000Y-30455815D01*
X130523000Y-44577000D01*
X124751369Y-44577000D01*
X124891284Y-44549169D01*
X125256909Y-44304866D01*
X125501212Y-43939241D01*
X125587000Y-43507957D01*
X125587000Y-42852043D01*
X125501212Y-42420759D01*
X125256909Y-42055134D01*
X124891284Y-41810831D01*
X124460000Y-41725043D01*
X124028716Y-41810831D01*
X123663091Y-42055134D01*
X123418788Y-42420759D01*
X123333000Y-42852043D01*
X123333000Y-43507957D01*
X123418788Y-43939241D01*
X123663091Y-44304866D01*
X124028716Y-44549169D01*
X124168631Y-44577000D01*
X122211369Y-44577000D01*
X122351284Y-44549169D01*
X122716909Y-44304866D01*
X122961212Y-43939241D01*
X123047000Y-43507957D01*
X123047000Y-42852043D01*
X122961212Y-42420759D01*
X122716909Y-42055134D01*
X122351284Y-41810831D01*
X121920000Y-41725043D01*
X121488716Y-41810831D01*
X121123091Y-42055134D01*
X120878788Y-42420759D01*
X120793000Y-42852043D01*
X120793000Y-43507957D01*
X120878788Y-43939241D01*
X121123091Y-44304866D01*
X121488716Y-44549169D01*
X121628631Y-44577000D01*
X119671369Y-44577000D01*
X119811284Y-44549169D01*
X120176909Y-44304866D01*
X120421212Y-43939241D01*
X120507000Y-43507957D01*
X120507000Y-42852043D01*
X120421212Y-42420759D01*
X120176909Y-42055134D01*
X119811284Y-41810831D01*
X119380000Y-41725043D01*
X118948716Y-41810831D01*
X118583091Y-42055134D01*
X118338788Y-42420759D01*
X118253000Y-42852043D01*
X118253000Y-43507957D01*
X118338788Y-43939241D01*
X118583091Y-44304866D01*
X118948716Y-44549169D01*
X119088631Y-44577000D01*
X117131369Y-44577000D01*
X117271284Y-44549169D01*
X117636909Y-44304866D01*
X117881212Y-43939241D01*
X117967000Y-43507957D01*
X117967000Y-42852043D01*
X117881212Y-42420759D01*
X117636909Y-42055134D01*
X117271284Y-41810831D01*
X116840000Y-41725043D01*
X116408716Y-41810831D01*
X116043091Y-42055134D01*
X115798788Y-42420759D01*
X115713000Y-42852043D01*
X115713000Y-43507957D01*
X115798788Y-43939241D01*
X116043091Y-44304866D01*
X116408716Y-44549169D01*
X116548631Y-44577000D01*
X115036869Y-44577000D01*
X115154185Y-44513790D01*
X115484778Y-44108215D01*
X115635000Y-43607000D01*
X115635000Y-43307000D01*
X114427000Y-43307000D01*
X114427000Y-43327000D01*
X114173000Y-43327000D01*
X114173000Y-43307000D01*
X112965000Y-43307000D01*
X112965000Y-43607000D01*
X113115222Y-44108215D01*
X113445815Y-44513790D01*
X113563131Y-44577000D01*
X112441000Y-44577000D01*
X112441000Y-44382314D01*
X112556909Y-44304866D01*
X112801212Y-43939241D01*
X112887000Y-43507957D01*
X112887000Y-42852043D01*
X112867300Y-42753000D01*
X112965000Y-42753000D01*
X112965000Y-43053000D01*
X114173000Y-43053000D01*
X114173000Y-41710626D01*
X114427000Y-41710626D01*
X114427000Y-43053000D01*
X115635000Y-43053000D01*
X115635000Y-42753000D01*
X115484778Y-42251785D01*
X115154185Y-41846210D01*
X114693550Y-41598020D01*
X114633329Y-41587284D01*
X114427000Y-41710626D01*
X114173000Y-41710626D01*
X113966671Y-41587284D01*
X113906450Y-41598020D01*
X113445815Y-41846210D01*
X113115222Y-42251785D01*
X112965000Y-42753000D01*
X112867300Y-42753000D01*
X112801212Y-42420759D01*
X112556909Y-42055134D01*
X112191284Y-41810831D01*
X111760000Y-41725043D01*
X111328716Y-41810831D01*
X110963091Y-42055134D01*
X110718788Y-42420759D01*
X110633000Y-42852043D01*
X110633000Y-43507957D01*
X110718788Y-43939241D01*
X110963091Y-44304866D01*
X111079000Y-44382314D01*
X111079000Y-44577000D01*
X109511369Y-44577000D01*
X109651284Y-44549169D01*
X110016909Y-44304866D01*
X110261212Y-43939241D01*
X110347000Y-43507957D01*
X110347000Y-42852043D01*
X110261212Y-42420759D01*
X110016909Y-42055134D01*
X109735900Y-41867370D01*
X109735900Y-40599692D01*
X110830693Y-39504900D01*
X114109500Y-39504900D01*
X114306926Y-39465629D01*
X114474296Y-39353796D01*
X115934796Y-37893296D01*
X116046629Y-37725926D01*
X116085900Y-37528500D01*
X116085900Y-36713470D01*
X116408716Y-36929169D01*
X116840000Y-37014957D01*
X117271284Y-36929169D01*
X117636909Y-36684866D01*
X117881212Y-36319241D01*
X117967000Y-35887957D01*
X117967000Y-35687000D01*
X118045000Y-35687000D01*
X118045000Y-35987000D01*
X118195222Y-36488215D01*
X118525815Y-36893790D01*
X118986450Y-37141980D01*
X119046671Y-37152716D01*
X119253000Y-37029374D01*
X119253000Y-35687000D01*
X119507000Y-35687000D01*
X119507000Y-37029374D01*
X119713329Y-37152716D01*
X119773550Y-37141980D01*
X120234185Y-36893790D01*
X120564778Y-36488215D01*
X120650000Y-36203872D01*
X120735222Y-36488215D01*
X121065815Y-36893790D01*
X121526450Y-37141980D01*
X121586671Y-37152716D01*
X121793000Y-37029374D01*
X121793000Y-35687000D01*
X122047000Y-35687000D01*
X122047000Y-37029374D01*
X122253329Y-37152716D01*
X122313550Y-37141980D01*
X122774185Y-36893790D01*
X123104778Y-36488215D01*
X123190000Y-36203872D01*
X123275222Y-36488215D01*
X123605815Y-36893790D01*
X124066450Y-37141980D01*
X124126671Y-37152716D01*
X124333000Y-37029374D01*
X124333000Y-35687000D01*
X124587000Y-35687000D01*
X124587000Y-37029374D01*
X124793329Y-37152716D01*
X124853550Y-37141980D01*
X125314185Y-36893790D01*
X125644778Y-36488215D01*
X125795000Y-35987000D01*
X125795000Y-35687000D01*
X124587000Y-35687000D01*
X124333000Y-35687000D01*
X122047000Y-35687000D01*
X121793000Y-35687000D01*
X119507000Y-35687000D01*
X119253000Y-35687000D01*
X118045000Y-35687000D01*
X117967000Y-35687000D01*
X117967000Y-35232043D01*
X117947300Y-35133000D01*
X118045000Y-35133000D01*
X118045000Y-35433000D01*
X119253000Y-35433000D01*
X119253000Y-34090626D01*
X119507000Y-34090626D01*
X119507000Y-35433000D01*
X121793000Y-35433000D01*
X121793000Y-34090626D01*
X122047000Y-34090626D01*
X122047000Y-35433000D01*
X124333000Y-35433000D01*
X124333000Y-34090626D01*
X124587000Y-34090626D01*
X124587000Y-35433000D01*
X125795000Y-35433000D01*
X125795000Y-35133000D01*
X125644778Y-34631785D01*
X125314185Y-34226210D01*
X124853550Y-33978020D01*
X124793329Y-33967284D01*
X124587000Y-34090626D01*
X124333000Y-34090626D01*
X124126671Y-33967284D01*
X124066450Y-33978020D01*
X123605815Y-34226210D01*
X123275222Y-34631785D01*
X123190000Y-34916128D01*
X123104778Y-34631785D01*
X122774185Y-34226210D01*
X122313550Y-33978020D01*
X122253329Y-33967284D01*
X122047000Y-34090626D01*
X121793000Y-34090626D01*
X121586671Y-33967284D01*
X121526450Y-33978020D01*
X121065815Y-34226210D01*
X120735222Y-34631785D01*
X120650000Y-34916128D01*
X120564778Y-34631785D01*
X120234185Y-34226210D01*
X119773550Y-33978020D01*
X119713329Y-33967284D01*
X119507000Y-34090626D01*
X119253000Y-34090626D01*
X119046671Y-33967284D01*
X118986450Y-33978020D01*
X118525815Y-34226210D01*
X118195222Y-34631785D01*
X118045000Y-35133000D01*
X117947300Y-35133000D01*
X117881212Y-34800759D01*
X117636909Y-34435134D01*
X117271284Y-34190831D01*
X116840000Y-34105043D01*
X116408716Y-34190831D01*
X116085900Y-34406530D01*
X116085900Y-34186192D01*
X118393535Y-31878558D01*
X118560418Y-31845363D01*
X118942265Y-31590222D01*
X119197406Y-31208375D01*
X119266609Y-30860471D01*
X119400036Y-31351721D01*
X119733106Y-31782736D01*
X120205765Y-32053481D01*
X120308815Y-32072318D01*
X120523000Y-31949656D01*
X120523000Y-30607000D01*
X120777000Y-30607000D01*
X120777000Y-31949656D01*
X120991185Y-32072318D01*
X121094235Y-32053481D01*
X121566894Y-31782736D01*
X121899964Y-31351721D01*
X122042739Y-30826055D01*
X121881868Y-30607000D01*
X120777000Y-30607000D01*
X120523000Y-30607000D01*
X120503000Y-30607000D01*
X120503000Y-30353000D01*
X120523000Y-30353000D01*
X120523000Y-28067000D01*
X120777000Y-28067000D01*
X120777000Y-30353000D01*
X121881868Y-30353000D01*
X122042739Y-30133945D01*
X121899964Y-29608279D01*
X121592191Y-29210000D01*
X121899964Y-28811721D01*
X122042739Y-28286055D01*
X121881868Y-28067000D01*
X120777000Y-28067000D01*
X120523000Y-28067000D01*
X120503000Y-28067000D01*
X120503000Y-27813000D01*
X120523000Y-27813000D01*
X120523000Y-26470344D01*
X120777000Y-26470344D01*
X120777000Y-27813000D01*
X121881868Y-27813000D01*
X122042739Y-27593945D01*
X121899964Y-27068279D01*
X121566894Y-26637264D01*
X121094235Y-26366519D01*
X120991185Y-26347682D01*
X120777000Y-26470344D01*
X120523000Y-26470344D01*
X120308815Y-26347682D01*
X120205765Y-26366519D01*
X119733106Y-26637264D01*
X119400036Y-27068279D01*
X119266609Y-27559529D01*
X119253000Y-27491114D01*
X119253000Y-27178000D01*
X119244315Y-27131841D01*
X119217035Y-27089447D01*
X119175410Y-27061006D01*
X119126000Y-27051000D01*
X119090080Y-27051000D01*
X118942265Y-26829778D01*
X118560418Y-26574637D01*
X118110000Y-26485043D01*
X117659582Y-26574637D01*
X117277735Y-26829778D01*
X117129920Y-27051000D01*
X116550080Y-27051000D01*
X116402265Y-26829778D01*
X116020418Y-26574637D01*
X115570000Y-26485043D01*
X115119582Y-26574637D01*
X114737735Y-26829778D01*
X114589920Y-27051000D01*
X114010080Y-27051000D01*
X113862265Y-26829778D01*
X113480418Y-26574637D01*
X113030000Y-26485043D01*
X112579582Y-26574637D01*
X112197735Y-26829778D01*
X112049920Y-27051000D01*
X111470080Y-27051000D01*
X111322265Y-26829778D01*
X110940418Y-26574637D01*
X110490000Y-26485043D01*
X110039582Y-26574637D01*
X109657735Y-26829778D01*
X109509920Y-27051000D01*
X108930080Y-27051000D01*
X108782265Y-26829778D01*
X108400418Y-26574637D01*
X107950000Y-26485043D01*
X107499582Y-26574637D01*
X107117735Y-26829778D01*
X106969920Y-27051000D01*
X106390080Y-27051000D01*
X106242265Y-26829778D01*
X105860418Y-26574637D01*
X105410000Y-26485043D01*
X104959582Y-26574637D01*
X104577735Y-26829778D01*
X104429920Y-27051000D01*
X103850080Y-27051000D01*
X103702265Y-26829778D01*
X103320418Y-26574637D01*
X102870000Y-26485043D01*
X102419582Y-26574637D01*
X102037735Y-26829778D01*
X101889920Y-27051000D01*
X101310080Y-27051000D01*
X101162265Y-26829778D01*
X100780418Y-26574637D01*
X100330000Y-26485043D01*
X99879582Y-26574637D01*
X99497735Y-26829778D01*
X99349920Y-27051000D01*
X98770080Y-27051000D01*
X98622265Y-26829778D01*
X98240418Y-26574637D01*
X97790000Y-26485043D01*
X97339582Y-26574637D01*
X96957735Y-26829778D01*
X96702594Y-27211625D01*
X96613000Y-27662043D01*
X96613000Y-28217957D01*
X96702594Y-28668375D01*
X96809920Y-28829000D01*
X92676612Y-28829000D01*
X92689964Y-28811721D01*
X92832739Y-28286055D01*
X92671868Y-28067000D01*
X91567000Y-28067000D01*
X91567000Y-28087000D01*
X91313000Y-28087000D01*
X91313000Y-28067000D01*
X91293000Y-28067000D01*
X91293000Y-27813000D01*
X91313000Y-27813000D01*
X91313000Y-26470344D01*
X91567000Y-26470344D01*
X91567000Y-27813000D01*
X92671868Y-27813000D01*
X92832739Y-27593945D01*
X92689964Y-27068279D01*
X92356894Y-26637264D01*
X91884235Y-26366519D01*
X91781185Y-26347682D01*
X91567000Y-26470344D01*
X91313000Y-26470344D01*
X91098815Y-26347682D01*
X90995765Y-26366519D01*
X90523106Y-26637264D01*
X90190036Y-27068279D01*
X90056609Y-27559529D01*
X89987406Y-27211625D01*
X89732265Y-26829778D01*
X89350418Y-26574637D01*
X88900000Y-26485043D01*
X88449582Y-26574637D01*
X88116791Y-26797000D01*
X87143209Y-26797000D01*
X86810418Y-26574637D01*
X86360000Y-26485043D01*
X85909582Y-26574637D01*
X85576791Y-26797000D01*
X84978458Y-26797000D01*
X84975591Y-26781763D01*
X84882073Y-26636433D01*
X84739381Y-26538936D01*
X84570000Y-26504635D01*
X83070000Y-26504635D01*
X82911763Y-26534409D01*
X82766433Y-26627927D01*
X82668936Y-26770619D01*
X82634635Y-26940000D01*
X82634635Y-28940000D01*
X82664409Y-29098237D01*
X82757927Y-29243567D01*
X82885000Y-29330392D01*
X82885000Y-29591000D01*
X75819002Y-29591000D01*
X75716092Y-29341940D01*
X75497710Y-29123176D01*
X75212233Y-29004635D01*
X74903123Y-29004366D01*
X74617440Y-29122408D01*
X74398676Y-29340790D01*
X74280135Y-29626267D01*
X74279866Y-29935377D01*
X74397908Y-30221060D01*
X74414100Y-30237280D01*
X74414100Y-33229650D01*
X74264154Y-33291606D01*
X74154569Y-33401000D01*
X71104618Y-33401000D01*
X71198365Y-33175233D01*
X71198634Y-32866123D01*
X71080592Y-32580440D01*
X70862210Y-32361676D01*
X70576733Y-32243135D01*
X70267623Y-32242866D01*
X69981940Y-32360908D01*
X69763176Y-32579290D01*
X69644635Y-32864767D01*
X69644366Y-33173877D01*
X69762408Y-33459560D01*
X69905600Y-33603002D01*
X69905600Y-40997807D01*
X68215204Y-42688204D01*
X68103371Y-42855574D01*
X68064100Y-43053000D01*
X68064100Y-44577000D01*
X51943000Y-44577000D01*
X51943000Y-42164000D01*
X51932994Y-42114590D01*
X51904553Y-42072965D01*
X51862159Y-42045685D01*
X51816000Y-42037000D01*
X46235900Y-42037000D01*
X46235900Y-41769670D01*
X46448375Y-41727406D01*
X46830222Y-41472265D01*
X47085363Y-41090418D01*
X47128591Y-40873093D01*
X48987796Y-40873093D01*
X49166606Y-41305846D01*
X49497412Y-41637230D01*
X49929853Y-41816795D01*
X50398093Y-41817204D01*
X50830846Y-41638394D01*
X51162230Y-41307588D01*
X51330313Y-40902798D01*
X52012771Y-40902798D01*
X52214369Y-41390703D01*
X52587334Y-41764319D01*
X53074885Y-41966769D01*
X53602798Y-41967229D01*
X54090703Y-41765631D01*
X54464319Y-41392666D01*
X54635181Y-40981185D01*
X63177682Y-40981185D01*
X63196519Y-41084235D01*
X63467264Y-41556894D01*
X63898279Y-41889964D01*
X64423945Y-42032739D01*
X64643000Y-41871868D01*
X64643000Y-40767000D01*
X64897000Y-40767000D01*
X64897000Y-41871868D01*
X65116055Y-42032739D01*
X65641721Y-41889964D01*
X66072736Y-41556894D01*
X66343481Y-41084235D01*
X66362318Y-40981185D01*
X66239656Y-40767000D01*
X64897000Y-40767000D01*
X64643000Y-40767000D01*
X63300344Y-40767000D01*
X63177682Y-40981185D01*
X54635181Y-40981185D01*
X54666769Y-40905115D01*
X54667229Y-40377202D01*
X54634841Y-40298815D01*
X63177682Y-40298815D01*
X63300344Y-40513000D01*
X64643000Y-40513000D01*
X64643000Y-40493000D01*
X64897000Y-40493000D01*
X64897000Y-40513000D01*
X66239656Y-40513000D01*
X66362318Y-40298815D01*
X66343481Y-40195765D01*
X66072736Y-39723106D01*
X65641721Y-39390036D01*
X65150471Y-39256609D01*
X65498375Y-39187406D01*
X65880222Y-38932265D01*
X66135363Y-38550418D01*
X66224957Y-38100000D01*
X66135363Y-37649582D01*
X65880222Y-37267735D01*
X65498375Y-37012594D01*
X65047957Y-36923000D01*
X64492043Y-36923000D01*
X64041625Y-37012594D01*
X63659778Y-37267735D01*
X63404637Y-37649582D01*
X63315043Y-38100000D01*
X63404637Y-38550418D01*
X63659778Y-38932265D01*
X64041625Y-39187406D01*
X64389529Y-39256609D01*
X63898279Y-39390036D01*
X63467264Y-39723106D01*
X63196519Y-40195765D01*
X63177682Y-40298815D01*
X54634841Y-40298815D01*
X54465631Y-39889297D01*
X54092666Y-39515681D01*
X53605115Y-39313231D01*
X53077202Y-39312771D01*
X52589297Y-39514369D01*
X52215681Y-39887334D01*
X52013231Y-40374885D01*
X52012771Y-40902798D01*
X51330313Y-40902798D01*
X51341795Y-40875147D01*
X51342204Y-40406907D01*
X51163394Y-39974154D01*
X50832588Y-39642770D01*
X50400147Y-39463205D01*
X49931907Y-39462796D01*
X49499154Y-39641606D01*
X49167770Y-39972412D01*
X48988205Y-40404853D01*
X48987796Y-40873093D01*
X47128591Y-40873093D01*
X47174957Y-40640000D01*
X47085363Y-40189582D01*
X46830222Y-39807735D01*
X46609000Y-39659920D01*
X46609000Y-39080080D01*
X46830222Y-38932265D01*
X47085363Y-38550418D01*
X47128591Y-38333093D01*
X48987796Y-38333093D01*
X49166606Y-38765846D01*
X49497412Y-39097230D01*
X49929853Y-39276795D01*
X50398093Y-39277204D01*
X50830846Y-39098394D01*
X51162230Y-38767588D01*
X51341795Y-38335147D01*
X51341796Y-38333093D01*
X52162796Y-38333093D01*
X52341606Y-38765846D01*
X52672412Y-39097230D01*
X53104853Y-39276795D01*
X53573093Y-39277204D01*
X54005846Y-39098394D01*
X54337230Y-38767588D01*
X54516795Y-38335147D01*
X54517204Y-37866907D01*
X54338394Y-37434154D01*
X54007588Y-37102770D01*
X53575147Y-36923205D01*
X53106907Y-36922796D01*
X52674154Y-37101606D01*
X52342770Y-37432412D01*
X52163205Y-37864853D01*
X52162796Y-38333093D01*
X51341796Y-38333093D01*
X51342204Y-37866907D01*
X51163394Y-37434154D01*
X50832588Y-37102770D01*
X50400147Y-36923205D01*
X49931907Y-36922796D01*
X49499154Y-37101606D01*
X49167770Y-37432412D01*
X48988205Y-37864853D01*
X48987796Y-38333093D01*
X47128591Y-38333093D01*
X47174957Y-38100000D01*
X47085363Y-37649582D01*
X46830222Y-37267735D01*
X46609000Y-37119920D01*
X46609000Y-36540080D01*
X46830222Y-36392265D01*
X47085363Y-36010418D01*
X47174957Y-35560000D01*
X63315043Y-35560000D01*
X63404637Y-36010418D01*
X63659778Y-36392265D01*
X64041625Y-36647406D01*
X64492043Y-36737000D01*
X65047957Y-36737000D01*
X65498375Y-36647406D01*
X65880222Y-36392265D01*
X66135363Y-36010418D01*
X66224957Y-35560000D01*
X66135363Y-35109582D01*
X65880222Y-34727735D01*
X65498375Y-34472594D01*
X65047957Y-34383000D01*
X64492043Y-34383000D01*
X64041625Y-34472594D01*
X63659778Y-34727735D01*
X63404637Y-35109582D01*
X63315043Y-35560000D01*
X47174957Y-35560000D01*
X47085363Y-35109582D01*
X46830222Y-34727735D01*
X46609000Y-34579920D01*
X46609000Y-34000080D01*
X46830222Y-33852265D01*
X47085363Y-33470418D01*
X47174957Y-33020000D01*
X47085363Y-32569582D01*
X46830222Y-32187735D01*
X46448375Y-31932594D01*
X45997957Y-31843000D01*
X45442043Y-31843000D01*
X44991625Y-31932594D01*
X44694688Y-32131000D01*
X41799211Y-32131000D01*
X41795591Y-32111763D01*
X41702073Y-31966433D01*
X41559381Y-31868936D01*
X41390000Y-31834635D01*
X39890000Y-31834635D01*
X39731763Y-31864409D01*
X39586433Y-31957927D01*
X39488936Y-32100619D01*
X39454635Y-32270000D01*
X39454635Y-33770000D01*
X39484409Y-33928237D01*
X39577927Y-34073567D01*
X39720619Y-34171064D01*
X39890000Y-34205365D01*
X40513000Y-34205365D01*
X40513000Y-34382889D01*
X40406907Y-34382796D01*
X39974154Y-34561606D01*
X39642770Y-34892412D01*
X39579784Y-35044100D01*
X37655500Y-35044100D01*
X37458074Y-35083371D01*
X37290704Y-35195204D01*
X35830204Y-36655704D01*
X35718371Y-36823074D01*
X35679100Y-37020500D01*
X35679100Y-43264635D01*
X33725000Y-43264635D01*
X33566763Y-43294409D01*
X33421433Y-43387927D01*
X33323936Y-43530619D01*
X33289635Y-43700000D01*
X33289635Y-45200000D01*
X33319409Y-45358237D01*
X33412927Y-45503567D01*
X33555619Y-45601064D01*
X33655000Y-45621189D01*
X33655000Y-46130860D01*
X33614778Y-46157735D01*
X33359637Y-46539582D01*
X33270043Y-46990000D01*
X33359637Y-47440418D01*
X33614778Y-47822265D01*
X33655000Y-47849140D01*
X33655000Y-48670860D01*
X33614778Y-48697735D01*
X33359637Y-49079582D01*
X33270043Y-49530000D01*
X33359637Y-49980418D01*
X33614778Y-50362265D01*
X33996625Y-50617406D01*
X34447043Y-50707000D01*
X35002957Y-50707000D01*
X35453375Y-50617406D01*
X35750312Y-50419000D01*
X36322000Y-50419000D01*
X36343923Y-50414875D01*
X36362264Y-50446894D01*
X36793279Y-50779964D01*
X37318945Y-50922739D01*
X37538000Y-50761868D01*
X37538000Y-49657000D01*
X37518000Y-49657000D01*
X37518000Y-49403000D01*
X37538000Y-49403000D01*
X37538000Y-49383000D01*
X37719000Y-49383000D01*
X37719000Y-52705000D01*
X34036000Y-52705000D01*
X33986590Y-52715006D01*
X33944965Y-52743447D01*
X33917685Y-52785841D01*
X33909000Y-52832000D01*
X33909000Y-62611000D01*
X31477000Y-62611000D01*
X31477000Y-30453950D01*
X32602470Y-31581387D01*
X34155509Y-32226265D01*
X35837114Y-32227732D01*
X37391275Y-31585566D01*
X38581387Y-30397530D01*
X39226265Y-28844491D01*
X39226600Y-28460000D01*
X40724635Y-28460000D01*
X40724635Y-29960000D01*
X40754409Y-30118237D01*
X40847927Y-30263567D01*
X40990619Y-30361064D01*
X41160000Y-30395365D01*
X42660000Y-30395365D01*
X42818237Y-30365591D01*
X42963567Y-30272073D01*
X42971570Y-30260360D01*
X43852355Y-31141145D01*
X44155691Y-31343827D01*
X44513500Y-31415000D01*
X44763532Y-31415000D01*
X44991625Y-31567406D01*
X45442043Y-31657000D01*
X45997957Y-31657000D01*
X46448375Y-31567406D01*
X46676468Y-31415000D01*
X47936210Y-31415000D01*
X51472355Y-34951145D01*
X51775691Y-35153827D01*
X52133500Y-35225000D01*
X57281631Y-35225000D01*
X57357927Y-35343567D01*
X57500619Y-35441064D01*
X57670000Y-35475365D01*
X59170000Y-35475365D01*
X59328237Y-35445591D01*
X59473567Y-35352073D01*
X59571064Y-35209381D01*
X59605365Y-35040000D01*
X59605365Y-33540000D01*
X59575591Y-33381763D01*
X59482073Y-33236433D01*
X59339381Y-33138936D01*
X59170000Y-33104635D01*
X58897252Y-33104635D01*
X59101577Y-33020000D01*
X63315043Y-33020000D01*
X63404637Y-33470418D01*
X63659778Y-33852265D01*
X64041625Y-34107406D01*
X64492043Y-34197000D01*
X65047957Y-34197000D01*
X65498375Y-34107406D01*
X65880222Y-33852265D01*
X66135363Y-33470418D01*
X66224957Y-33020000D01*
X66135363Y-32569582D01*
X65880222Y-32187735D01*
X65498375Y-31932594D01*
X65047957Y-31843000D01*
X64492043Y-31843000D01*
X64041625Y-31932594D01*
X63659778Y-32187735D01*
X63404637Y-32569582D01*
X63315043Y-33020000D01*
X59101577Y-33020000D01*
X59143923Y-33002460D01*
X59211912Y-32761517D01*
X58420000Y-31969605D01*
X57628088Y-32761517D01*
X57696077Y-33002460D01*
X57983173Y-33104635D01*
X57670000Y-33104635D01*
X57511763Y-33134409D01*
X57366433Y-33227927D01*
X57279608Y-33355000D01*
X52520790Y-33355000D01*
X50750961Y-31585171D01*
X57022799Y-31585171D01*
X57050770Y-32135448D01*
X57207540Y-32513923D01*
X57448483Y-32581912D01*
X58240395Y-31790000D01*
X58599605Y-31790000D01*
X59391517Y-32581912D01*
X59632460Y-32513923D01*
X59817201Y-31994829D01*
X59789230Y-31444552D01*
X59632460Y-31066077D01*
X59391517Y-30998088D01*
X58599605Y-31790000D01*
X58240395Y-31790000D01*
X57448483Y-30998088D01*
X57207540Y-31066077D01*
X57022799Y-31585171D01*
X50750961Y-31585171D01*
X49984273Y-30818483D01*
X57628088Y-30818483D01*
X58420000Y-31610395D01*
X59211912Y-30818483D01*
X59143923Y-30577540D01*
X58869851Y-30480000D01*
X63315043Y-30480000D01*
X63404637Y-30930418D01*
X63659778Y-31312265D01*
X64041625Y-31567406D01*
X64492043Y-31657000D01*
X65047957Y-31657000D01*
X65498375Y-31567406D01*
X65880222Y-31312265D01*
X66135363Y-30930418D01*
X66224957Y-30480000D01*
X66135363Y-30029582D01*
X65880222Y-29647735D01*
X65498375Y-29392594D01*
X65047957Y-29303000D01*
X64492043Y-29303000D01*
X64041625Y-29392594D01*
X63659778Y-29647735D01*
X63404637Y-30029582D01*
X63315043Y-30480000D01*
X58869851Y-30480000D01*
X58624829Y-30392799D01*
X58074552Y-30420770D01*
X57696077Y-30577540D01*
X57628088Y-30818483D01*
X49984273Y-30818483D01*
X48984645Y-29818855D01*
X48681309Y-29616173D01*
X48323500Y-29545000D01*
X46676468Y-29545000D01*
X46448375Y-29392594D01*
X46108558Y-29325000D01*
X46846309Y-29325000D01*
X47079698Y-29228327D01*
X47258327Y-29049699D01*
X47315563Y-28911517D01*
X49373088Y-28911517D01*
X49441077Y-29152460D01*
X49960171Y-29337201D01*
X50510448Y-29309230D01*
X50888923Y-29152460D01*
X50956912Y-28911517D01*
X50165000Y-28119605D01*
X49373088Y-28911517D01*
X47315563Y-28911517D01*
X47355000Y-28816310D01*
X47355000Y-28225750D01*
X47196250Y-28067000D01*
X45847000Y-28067000D01*
X45847000Y-28087000D01*
X45593000Y-28087000D01*
X45593000Y-28067000D01*
X44243750Y-28067000D01*
X44085000Y-28225750D01*
X44085000Y-28729210D01*
X43904645Y-28548855D01*
X43601309Y-28346173D01*
X43243500Y-28275000D01*
X43048369Y-28275000D01*
X42972073Y-28156433D01*
X42829381Y-28058936D01*
X42660000Y-28024635D01*
X42387252Y-28024635D01*
X42633923Y-27922460D01*
X42701912Y-27681517D01*
X41910000Y-26889605D01*
X41118088Y-27681517D01*
X41186077Y-27922460D01*
X41473173Y-28024635D01*
X41160000Y-28024635D01*
X41001763Y-28054409D01*
X40856433Y-28147927D01*
X40758936Y-28290619D01*
X40724635Y-28460000D01*
X39226600Y-28460000D01*
X39227732Y-27162886D01*
X38955970Y-26505171D01*
X40512799Y-26505171D01*
X40540770Y-27055448D01*
X40697540Y-27433923D01*
X40938483Y-27501912D01*
X41730395Y-26710000D01*
X42089605Y-26710000D01*
X42881517Y-27501912D01*
X43122460Y-27433923D01*
X43254222Y-27063690D01*
X44085000Y-27063690D01*
X44085000Y-27654250D01*
X44243750Y-27813000D01*
X45593000Y-27813000D01*
X45593000Y-26713750D01*
X45847000Y-26713750D01*
X45847000Y-27813000D01*
X47196250Y-27813000D01*
X47274079Y-27735171D01*
X48767799Y-27735171D01*
X48795770Y-28285448D01*
X48952540Y-28663923D01*
X49193483Y-28731912D01*
X49985395Y-27940000D01*
X50344605Y-27940000D01*
X51136517Y-28731912D01*
X51377460Y-28663923D01*
X51552142Y-28173093D01*
X52162796Y-28173093D01*
X52341606Y-28605846D01*
X52672412Y-28937230D01*
X53104853Y-29116795D01*
X53573093Y-29117204D01*
X54005846Y-28938394D01*
X54337230Y-28607588D01*
X54516795Y-28175147D01*
X54517204Y-27706907D01*
X54338394Y-27274154D01*
X54254387Y-27190000D01*
X63334635Y-27190000D01*
X63334635Y-28690000D01*
X63364409Y-28848237D01*
X63457927Y-28993567D01*
X63600619Y-29091064D01*
X63770000Y-29125365D01*
X65770000Y-29125365D01*
X65928237Y-29095591D01*
X66073567Y-29002073D01*
X66171064Y-28859381D01*
X66205365Y-28690000D01*
X66205365Y-27190000D01*
X66175591Y-27031763D01*
X66082073Y-26886433D01*
X65939381Y-26788936D01*
X65770000Y-26754635D01*
X63770000Y-26754635D01*
X63611763Y-26784409D01*
X63466433Y-26877927D01*
X63368936Y-27020619D01*
X63334635Y-27190000D01*
X54254387Y-27190000D01*
X54007588Y-26942770D01*
X53575147Y-26763205D01*
X53106907Y-26762796D01*
X52674154Y-26941606D01*
X52342770Y-27272412D01*
X52163205Y-27704853D01*
X52162796Y-28173093D01*
X51552142Y-28173093D01*
X51562201Y-28144829D01*
X51534230Y-27594552D01*
X51377460Y-27216077D01*
X51136517Y-27148088D01*
X50344605Y-27940000D01*
X49985395Y-27940000D01*
X49193483Y-27148088D01*
X48952540Y-27216077D01*
X48767799Y-27735171D01*
X47274079Y-27735171D01*
X47355000Y-27654250D01*
X47355000Y-27063690D01*
X47315564Y-26968483D01*
X49373088Y-26968483D01*
X50165000Y-27760395D01*
X50956912Y-26968483D01*
X50888923Y-26727540D01*
X50369829Y-26542799D01*
X49819552Y-26570770D01*
X49441077Y-26727540D01*
X49373088Y-26968483D01*
X47315564Y-26968483D01*
X47258327Y-26830301D01*
X47079698Y-26651673D01*
X46846309Y-26555000D01*
X46005750Y-26555000D01*
X45847000Y-26713750D01*
X45593000Y-26713750D01*
X45434250Y-26555000D01*
X44593691Y-26555000D01*
X44360302Y-26651673D01*
X44181673Y-26830301D01*
X44085000Y-27063690D01*
X43254222Y-27063690D01*
X43307201Y-26914829D01*
X43279230Y-26364552D01*
X43122460Y-25986077D01*
X42881517Y-25918088D01*
X42089605Y-26710000D01*
X41730395Y-26710000D01*
X40938483Y-25918088D01*
X40697540Y-25986077D01*
X40512799Y-26505171D01*
X38955970Y-26505171D01*
X38639181Y-25738483D01*
X41118088Y-25738483D01*
X41910000Y-26530395D01*
X42701912Y-25738483D01*
X42633923Y-25497540D01*
X42114829Y-25312799D01*
X41564552Y-25340770D01*
X41186077Y-25497540D01*
X41118088Y-25738483D01*
X38639181Y-25738483D01*
X38585566Y-25608725D01*
X37455815Y-24477000D01*
X124546050Y-24477000D01*
X123418613Y-25602470D01*
M02*
